/* XPM */
static char *result[] = {
/* columns rows colors chars-per-pixel */
"50 50 36 1 ",
"  c #6D634A",
". c #72664B",
"X c #75694E",
"o c #786C4F",
"O c #736650",
"+ c #756952",
"@ c #796C53",
"# c #7D6F58",
"$ c #7E7155",
"% c #7E7159",
"& c #817457",
"* c #83755C",
"= c #86795C",
"- c #8A7B5E",
"; c #857760",
": c #877860",
"> c #8C7D62",
", c #907F65",
"< c #8F805F",
"1 c #8F8063",
"2 c #938365",
"3 c #978867",
"4 c #988967",
"5 c #968569",
"6 c #98876B",
"7 c #978869",
"8 c #9B8B6C",
"9 c #9F906D",
"0 c #9E8D70",
"q c #A08F6F",
"w c #A1916E",
"e c #A08F71",
"r c #A39371",
"t c #A89774",
"y c #A99975",
"u c #A99679",
/* pixels */
"5rw8w>&82569+*28t5r82r0893855128r5=;2;56-$8t880588",
"5>8882;0816w13r3888rrtye63:11>288>8r889944w88:2086",
"52838262rr15r325588tr85528>>0,0038e5805-4$-<51822w",
"18w28266885561196=19962>26>>5>26091:>>6422<4352=;8",
"92w<6w88>3851849ww8e8e82>6>:,56;256631-1299349>=55",
"2y82w6=52w931932tw835291=5>26202:1206-%=4=<28829q8",
"-4334186->5=28=99=2633888,002:5015>72:<:2wt<-w3455",
"24-8313>5-121128w2=13e0e8>00056668211$+-19<&&&&<4<",
"w31512838>66182108>;>>;288*66>6e366:73<1<<4&4=o234",
"8=382196331>9w48622,0>:>>=2:>=288:5e1r<@<49$24<4<2",
"9==4<-3<331=8888e==22*122=2>#8528161-11=<3239<<92<",
"w-2w21133rw62>68=25::>=88>:::,,03331%19<<<$$4<<428",
"< &ww319>2885322>::>:>6r5>:2e8>27+29$<4<12=<<944w8",
"- .<<2<=<=w<-3>1>,%:838:2108522,711w9r2997<<&2w92<",
"993<-3&Xo=t$=>+25,;*2>36562**22>:171972193$&<$&=-3",
"4<3<=34<=4w3y5*065,2*X6683>O>r2099w98w942<$<23=$23",
"<<19-&2*843662;:5,5,55r86:816>81>86r6888r622-43o88",
"993$=43=54552,>5;>,:21>01%5>%101>082w8>e8339-<<4y2",
"r9<$<413282>2>;,>;566636212:5e268066852yw49=-$-w45",
"17483<*2222*:u,O>00588;>>>835851>88082>868488-8882",
"3182>1:8<-25,2:,6u0>6,18,u52*2005r0,959824<w88822-",
"23320rtw4652:8666065;>r86u652,50052>-68639888<8w86",
"7t338r3t651=*>5,,06:>60600,002:0528152285ww5$=2856",
"888t31163>2>*:00:65600665,,062>605*32162233<<2596>",
"85605560>q8,::>55:>228&>06>5;;%26561:>388>5>:5156&",
"-e2102015,62,,>>626>50>566>e22258ur3262<1>2:>02245",
"373>5tu63652>6r28u2>r>>86>668r6>388385881266132363",
"3t22211855>4226e585=25*502>6r113>-2365365600,565ww",
"771621765268606>6685522r8>:0r1r2132189622220688402",
"=781;8786>8320e2,2628518822>5181t938t56>66>,8322r>",
">371%12w86>60:228q5520>25551:231-198616622265=62r3",
"71186917>8620628qwq280526855>1=1819e3562852058366>",
"9861132-<92>23882335585288252>;=q5860565038029rr=2",
"1t79y6&3862>3t86378r60826582;>5>=62>006re5063>>162",
"=811ww3-1=%-6r16962831352>8r1085>=-O,02w86:2r13tq6",
"86t6623522rw3--w533125888rw66>>:31610>8818*58-58r2",
"3ru5:1>119t=<12t33e12r988>5366>25%;266r62,26125*26",
"%556*1>38<<<4924r3233837526215:*21*:,>2522>6>35%28",
":82*8t191-9494<=ty31808r8988>2>602*26>08566526116e",
"y625y863<3r9w4=4e9738r92w8880r630r05266r605,003r00",
"22%18215931t33=9<23882<3y866586>:26562686te281%>;>",
"52:88-4w3384<933-1884339862=2&55>515e88830778:=550",
"#%255-2>%>3$48w3&33&243w228>82520573w08yrr868;%265",
":;331<1=31648t98-2843<99w4-,6r665508973er9r98>;*0,",
"8>>228222142<984<4tw48843234w85805862617r8685688e6",
"2;>>22>>992343489w3989483-q8<925882>626666002;2>28",
">:#>&#==24523219w43w54w34834<95113e8668199066,0:20",
">8,>1>5552281398w4w46ww85wwwy8-23135,6313268666#>0",
"252,;>505108811w8888w9ww2133t38581661>688832228>88",
"02,6,#>853r>=2259t<w460%5t63w3321::>>;199w89r56526"
};
