/* XPM */
static char *result[] = {
/* columns rows colors chars-per-pixel */
"70 70 220 2 ",
"   c #350100",
".  c #3C1A01",
"X  c #270000",
"o  c #442904",
"O  c #473504",
"+  c #553705",
"@  c #462C15",
"#  c #462C15",
"$  c #493313",
"%  c #4B3D16",
"&  c #4C341A",
"*  c #4D3B1B",
"=  c #453B16",
"-  c #523D1D",
";  c #523915",
":  c #533D20",
">  c #533721",
",  c #4E3821",
"<  c #564307",
"1  c #4D421B",
"2  c #4D4115",
"3  c #53431D",
"4  c #57481C",
"5  c #66491D",
"6  c #61561C",
"7  c #6D5316",
"8  c #5C6509",
"9  c #696E0D",
"0  c #4E4220",
"q  c #564523",
"w  c #5A4523",
"e  c #554B23",
"r  c #5B4C23",
"t  c #5F4D29",
"y  c #5D5225",
"u  c #5D5329",
"i  c #634C25",
"p  c #664F2B",
"a  c #625326",
"s  c #63542A",
"d  c #6B532B",
"f  c #65592B",
"g  c #6A5B2C",
"h  c #675725",
"j  c #735C2E",
"k  c #775A2E",
"l  c #6B5C33",
"z  c #645230",
"x  c #755C31",
"c  c #7B5D34",
"v  c #6D622D",
"b  c #6A6727",
"n  c #72622E",
"m  c #75692D",
"M  c #757729",
"N  c #6E6232",
"B  c #716433",
"V  c #7C6334",
"C  c #766A34",
"Z  c #7B6C34",
"A  c #74653A",
"S  c #766B3A",
"D  c #7A6D3B",
"F  c #7D723C",
"G  c #797134",
"H  c #796A41",
"J  c #7E7341",
"K  c #7F7551",
"L  c #816636",
"P  c #836A39",
"I  c #886D38",
"U  c #82733B",
"Y  c #8C733E",
"T  c #857A3B",
"R  c #92713B",
"E  c #817642",
"W  c #8E7441",
"Q  c #857A44",
"!  c #8A7D44",
"~  c #8A7E4A",
"^  c #857949",
"/  c #927742",
"(  c #947A44",
")  c #997F49",
"_  c #896C40",
"`  c #728B18",
"'  c #78A318",
"]  c #79822C",
"[  c #7A9425",
"{  c #8C9B1C",
"}  c #87A81D",
"|  c #94A919",
" . c #8BB51B",
".. c #93BD1A",
"X. c #A9B817",
"o. c #888B27",
"O. c #84982B",
"+. c #8A8A36",
"@. c #94883B",
"#. c #869435",
"$. c #989939",
"%. c #908F2C",
"&. c #A09A39",
"*. c #8CAB28",
"=. c #9BA925",
"-. c #96A336",
";. c #97AE2C",
":. c #A3BA39",
">. c #AAB22B",
",. c #9DC328",
"<. c #A7C633",
"1. c #B1CF34",
"2. c #8C8344",
"3. c #8E834B",
"4. c #92854C",
"5. c #9C844A",
"6. c #968A4D",
"7. c #988847",
"8. c #9A9447",
"9. c #8C8256",
"0. c #928651",
"q. c #958A52",
"w. c #9A8D54",
"e. c #968C5B",
"r. c #9A8F5A",
"t. c #94845A",
"y. c #9D9356",
"u. c #9C935B",
"i. c #A0874C",
"p. c #A28A4E",
"a. c #A5924E",
"s. c #AB9A4D",
"d. c #A58E51",
"f. c #A38A55",
"g. c #A69153",
"h. c #AA9355",
"j. c #AD9A54",
"k. c #A2955C",
"l. c #A4995D",
"z. c #AF9958",
"x. c #AA9958",
"c. c #B39D5B",
"v. c #B49C59",
"b. c #97AA47",
"n. c #A0AB43",
"m. c #B3A94F",
"M. c #A5B34C",
"N. c #B5A15E",
"B. c #B9A35F",
"V. c #ABB459",
"C. c #9D9462",
"Z. c #A29663",
"A. c #A59B63",
"S. c #A99E63",
"D. c #A59C6B",
"F. c #A99F6B",
"G. c #A09669",
"H. c #ABA164",
"J. c #ACA26A",
"K. c #A9A662",
"L. c #BAA662",
"P. c #BEA964",
"I. c #B1A76A",
"U. c #B4AA6C",
"Y. c #B5A968",
"T. c #BCB76D",
"R. c #AEA472",
"E. c #B4AB73",
"W. c #B9AE74",
"Q. c #B4AC7A",
"!. c #BCB274",
"~. c #BCB37A",
"^. c #BEBA74",
"/. c #C2AD65",
"(. c #C6B168",
"). c #CAB46A",
"_. c #D3BC6F",
"`. c #C5BA74",
"'. c #C0B77B",
"]. c #C3BA7C",
"[. c #C1B773",
"{. c #B5C954",
"}. c #BCCC68",
"|. c #CAC17A",
" X c #D4C97F",
".X c #BDB481",
"XX c #C4BB83",
"oX c #C5BD8A",
"OX c #C6BB84",
"+X c #CCC384",
"@X c #CCC48C",
"#X c #CEC88A",
"$X c #D3CA85",
"%X c #D4CA8C",
"&X c #D9CE89",
"*X c #CEC691",
"=X c #CFC892",
"-X c #CBC594",
";X c #D2CA94",
":X c #D4CD9A",
">X c #D4CB93",
",X c #D7D09B",
"<X c #DAD39C",
"1X c #D9D194",
"2X c #DDD28E",
"3X c #E2D99A",
"4X c #EBE39B",
"5X c #DCD5A3",
"6X c #DDD7A8",
"7X c #E4DBA3",
"8X c #E2DCAB",
"9X c #EBE3AB",
"0X c #E9E0A7",
"qX c #E7E1B2",
"wX c #EBE6B8",
"eX c #F2ECBE",
"rX c #F2EDC3",
"tX c #F3EFC8",
"yX c #F7F2C8",
"uX c None",
/* pixels */
"uXuXuXuXuXuXuXuXuXuXuXuXuXuXuXuXuXuXuXuXuXuXuXuXuXuXuXuXuXuXuXuXuXuXuXuXuXuXuXuXuXuXuXuXuXuXuXuXuXuXuXuXuXuXuXuXuXuXuXuXuXuXuXuXuXuXuXuXuXuX",
"uXuXuXuXuXuXuXuXuXuXuXuXuXuXuXuXuXuXuXuXuXuXuXuXuXuXuXuXuXuXuXuXuXuXuXuXuXuXuXuXuXuXuXuXuXuXuXuXuXuXuXuXuXuXuXuXuXuXuXuXuXuXuXuXuXuXuXuXuXuX",
"uXuXuXuXuXuXuXuXuXuXuXuXuXuXuXuXuXuXuXuXuXuXuXuXuXuXuXuXuXuXuXuXuXuXuXuXuXuXuXuXuXuXuXuXuXuXuXuXuXuXuXuXuXuXuXuXuXuXuXuXuXuXuXuXuXuXuXuXuXuX",
"uXuXuXuXuXuXuXuXuXuXuXuXuXuXuXuXuXuXuXuXuXuXuXuXuXuXuXuXuXuXuXuXuXuXuXuXuXuXuXuXuXuXuXuXuXuXuXuXuXuXuXuXuXuXuXuXuXuXuXuXuXuXuXuXuXuXuXuXuXuX",
"uXuXuXuXuXuXuXuXuXuXuXuXuXuXuXuXuXuXuXuXuXuXuXuXuXuXuXuXuXuXuXuXuXuXuXuXuXuXuXuXuXuXuXuXuXuXuXuXuXuXuXuXuXuXuXuXuXuXuXuXuXuXuXuXuXuXuXuXuXuX",
"uXuXuXuXuXuXuXuXuXuXuXuXuXuXuXuXuXuXuXuXuXuXuXuXuXuXuXuXuXuXuXuXuXuXuXuXuXuXuXuXuXuXuXuXuXuXuXuXuXuXuXuXuXuXuXuXuXuXuXuXuXuXuXuXuXuXuXuXuXuX",
"uXuXuXuXuXuXuXuXuXuXuXuXuXuXuXuXuXuXuXuXuXuXuXuXuXuXuXuXuXuXuXuXuXuXuXuXuXuXuXuXuXuXuXuXuXuXuXuXuXuXuXuXuXuXuXuXuXuXuXuXuXuXuXuXuXuXuXuXuXuX",
"uXuXuXuXuXuXuXuXuXuXuXuXuXuXuXuXuXuXuXuXuXuXuXuXuXuXuXuXuXuXuXuXuXuXuXuXuXuXuXuXuXuXuXuXuXuXuXuXuXuXuXuXuXuXuXuXuXuXuXuXuXuXuXuXuXuXuXuXuXuX",
"uXuXuXuXuXuXuXuXuXuXuXuXuXuXuXuXuXuXuXuXuXuXuXuXuXuXuXuXuXuXuXuXuXuXuXuXuXuXuXuXuXuXuXuXuXuXuXuXuXuXuXuXuXuXuXuXuXuXuXuXuXuXuXuXuXuXuXuXuXuX",
"uXuXuXuXuXuXuXuXuXuXuXuXuXuXuXuXuXuXuXuXuXuXuXuXuXuXuXuXuXuXuXuXuXuXuXuXuXuXuXuXuXuXuXuXuXuXuXuXuXuXuXuXuXuXuXuXuXuXuXuXuXuXuXuXuXuXuXuXuXuX",
"uXuXuXuXuXuXuXuXuXuXuXuXuXuXuXuXuXuXuXuXuXuXuXuXuXuXuXuXuXuXuXuXuXuXuXuXuXuXuXuXuXuXuXuXuXuXuXuXuXuXuXuXuXuXuXuXuXuXuXuXuXuXuXuXuXuXuXuXuXuX",
"uXuXuXuXuXuXuXuXuXuXuXuXuXuXuXuXuXuXuXuXuXuXuXuXuXuXuXuXuXuXuXuXuXuXuXuXuXuXuXuXuXuXuXuXuXuXuXuXuXuXuXuXuXuXuXuXuXuXuXuXuXuXuXuXuXuXuXuXuXuX",
"uXuXuXuXuXuXuXuXuXuXuXuXuXuXuXuXuXuXuXuXuXuXuXuXuXuXuXuXuXuXuXuXuXuXuXuXuXuXuXuXuXuXuXuXuXuXuXuXuXuXuXuXuXuXuXuXuXuXuXuXuXuXuXuXuXuXuXuXuXuX",
"uXuXuXuXuXuXuXuXuXuXuXuXuXuXuXuXuXuXuXuXuXuXuXuXuXuXuXuXuXuXuXuXuXuXuXuXuXuXuXuXuXuXuXuXuXuXuXuXuXuXuXuXuXuXuXuXuXuXuXuXuXuXuXuXuXuXuXuXuXuX",
"uXuXuXuXuXuXuXuXuXuXuXuXuXuXuXuXuXuXuXuXuXuXuXuXuXuXuXuXuXuXuXuX%X%X1X0XeXyX9X@X#X$XuXuXuXuXuXuXuXuXuXuXuXuXuXuXuXuXuXuXuXuXuXuXuXuXuXuXuXuX",
"uXuXuXuXuXuXuXuXuXuXuXuXuXuXuXuXuXuXuXuXuXuXuXuXuXuXuXuXuXuXuX#X4X$X<X0XqX7XT.N.T.$X$X$XuXuXuXuXuXuXuXuXuXuXuXuXuXuXuXuXuXuXuXuXuXuXuXuXuXuX",
"uXuXuXuXuXuXuXuXuXuXuXuXuXuXuXuXuXuXuXuXuXuXuXuXuXuXuXuXuXuXQ.!.e.^ l.^.OXOX&X|.|.+X`.$X[.R uXuXuXuXuXuXuXuXuXuXuXuXuXuXuXuXuXuXuXuXuXuXuXuX",
"uXuXuXuXuXuXuXuXuXuXuXuXuXuXuXuXuXuXuXuXuXuXuXuXuXuXuXuXuXuXA.u.G v E 6.7.2.+X%X`.T.`.(.Y.d.uXuXuXuXuXuXuXuXuXuXuXuXuXuXuXuXuXuXuXuXuXuXuXuX",
"uXuXuXuXuXuXuXuXuXuXuXuXuXuXuXuXuXuXuXuXuXuXuXuXuXuXuXI.%X7X6XrX6XJ.Q C w.q.y.#X$X|.`.`.I.4.W uXuXuXuXuXuXuXuXuXuXuXuXuXuXuXuXuXuXuXuXuXuXuX",
"uXuXuXuXuXuXuXuXuXuXuXuXuXuXuXuXuXuXuXuXuXuXuXuXuXI.&X%X:XwXtXyXyXtX8X.XE 4.4.y.[.[.W.].^ E 5.5.uXuXuXuXuXuXuXuXuXuXuXuXuXuXuXuXuXuXuXuXuXuX",
"uXuXuXuXuXuXuXuXuXuXuXuXuXuXuXuXuXuXuXuXuXuXuXuXQ Y.+X,X=X-XqXrXtXrXrXrX:XC.! y.6.U q.S.^ ~ w.H.2X3X3X9X].uXuXuXuXuXuXuXuXuXuXuXuXuXuXuXuXuX",
"uXuXuXuXuXuXuXuXuXuXuXuXuXuXuXuXuXuXuXuXuXuXuXuXS.Y.K.A.*X;X:X6XqXwXeXyXqX^.J.e.4.~ 4.F q.E r.I.3X9X9X7X#Xz.uXuXuXuXuXuXuXuXuXuXuXuXuXuXuXuX",
"uXuXuXuXuXuXuXuXuXuXuXuXuXuXuXuXuXuXuXuXuXuXE 4.y.Y.J.Z.A.=X5XOX6X6XeXqX,XU.#XC.a u D E 0.^ 0.S.3X0X7X7XI.Z ! uXuXuXuXuXuXuXuXuXuXuXuXuXuXuX",
"uXuXuXuXuXuXuXuXuXuXuXuXuXuXuXuXuXuXuXuXy.u.S.l.l.F.A.u.A.oX<X*X.X5X,X5XXXQ G Q e e * g E ~ w.J.3X7X7X7XI.Z ! 7.4.uXuXuXuXuXuXuXuXuXuXuXuXuX",
"uXuXuXuXuXuXuXuXuXuXuXuXuXuXuXuXuXuXuXJ.Y.I.W.U.:X,XJ.w.A.R.e.@X-X-X6XwX~.E E Q v q e 3 v e.w.U.<X3X7X7X!.Z E T 2.4.j uXuXuXuXuXuXuXuXuXuXuX",
"uXuXuXuXuXuXuXuXuXuXuXuXuXuXuXuXuXuXQ ].XXE.U.@X8X6X<X:XI.D o l D.J.Q.6X:Xu.F 2.F ] b % u q.w.~.2X<X<X>XXXP Z T U U I r uXuXuXuXuXuXuXuXuXuX",
"uXuXuXuXuXuXuXuXuXuXuXuXuXuXuXuXuXuXJ l.@X@XOX@X0X6X,X~.4.r t $ X z 2 e.<X-X2.! F M b 0 y q.q.S.[.>X;X%XXX7.Z T T U Z n 1 uXuXuXuXuXuXuXuXuX",
"uXuXuXuXuXuXuXuXuXuXuXuXuXuXuXuXuXuX~ Z.E.+X+X~.6X5XE.y.l w s - q & # t ~.,XoX2.E J 9.S 2 e.u.E 0.e.E.XX+XJ.U U T P U n 1 uXuXuXuXuXuXuXuXuX",
"uXuXuXuXuXuXuXuXuXuXuXuXuXuXuXuXuXS u.A.W.].~.T..X@X4.A 3 f w - * * *   C.@X,XQ.q.q.3.B k h r 1 = O D Q.XX!.2.n Z Z U n 1 uXuXuXuXuXuXuXuXuX",
"uXuXuXuXuXuXuXuXuXuXuXuXuXuXuXuXA.^ 0.F.+XXX'.!.E.E.g 4 f s - * # # & . A -X,X~.! ! 3.u L k 5 2 = = e u.S.XXF.T a C U h = uXuXuXuXuXuXuXuXuX",
"uXuXuXuXuXuXuXuXuXuXuXuXuXuX4.A.I.q.A E.@X'.~.~..XF g g i q - - & & & # u .X<XoX2.3.3.q k c 5 E.u.G S U.K.~.}.n.A n U h 1 uXuXuXuXuXuXuXuXuX",
"uXuXuXuXuXuXuXuXuXuXuXuXuXE.;X:XXXF.C ~.W.E.'.#XC.% D a 3 - - - & & * # t J.@X.X3.q.J * x L h :X.Xy.q.u.n.{.}.k.V n U u a u uXuXuXuXuXuXuXuX",
"uXuXuXuXuXuXuXuXuXuXuXuXw.E.+X>X5XZ.S @XOX+X].k.$ B F 4 w - - & & # & # - ~.-X~.4.3.J = H ) C oX>XW.y.w.#.{.oXF.k a n g 1 u uXuXuXuXuXuXuXuX",
"uXuXuXuXuXuXuXuXuXuX'.oXJ.F.u.A.r.B G.5X6X>Xu.- - 4.D i 3 : - & * & * # i :X8X:X3.E 3.o 9.@XF u.:X;X~.k.q.Z.OX~.L 4 y U g 1 uXuXuXuXuXuXuXuX",
"uXuXuXuXuXuXuXuXuXH.$X:X6X<X@XZ.x j D.:XXX~ 3 $ C 4.g g 3 w - & & & >   ~ 8XqX;XG 4.J O C.:Xe.C XX*X;XXXy.7.S.XXc.j = Z U u uXuXuXuXuXuXuXuX",
"uXuXuXuXuXuXuXuXU.].].OX+X*X~.Z.~.Q.F.u.x $ # r 4.C B f 3 - ; & & & >   .XqXqXC.C 4.s q .XXXu.B D.;X^.:X@XJ.6.u.H.g.4 4 Z h uXuXuXuXuXuXuXuX",
"uXuXuXuXuXuXuXl.].OX1X;XoX;X*X,X<X5X~.D l : N 3.S v B s - & & & & & o w -XrXoX6 4.~ . D.~.U.w.F D XX^.].;X:X~.l.~ 4.3.f n 3 4 uXuXuXuXuXuXuX",
"uXuXuXuXuXuXq.!.+X<XOX~ ~.<X*X@X@X~.E l r x E B N v r 3 - & & & & & & q.oX-X^ Q q.r K :XK.F e.D B e.!.~.E.XX@XI.U B Q C g 3 4 uXuXuXuXuXuXuX",
"uXuXuXuXuXuXx.oX:XD.O t.;XQ U Q ! C s f s N r w i 4 w d i - : $ # # A J.6.C E q.J o .X@XE.N 2.0.Q B 3.^.S.u.!.l.D r F 3.a 2 e uXuXuXuXuXuXuX",
"uXuXuXuXuX0.F.=Xe.7 C.%XZ.o w q & u i f g d i i i d d d p p + d l i Q q.J u D S e N J.~.E.K.q.y.6.D 4 u.I.Y.^.U.E 3 F 6.f = y uXuXuXuXuXuXuX",
"uXuXuXuXuX~ r.D < E.;XA.: b y b O.G d x k c c x j V V j d + t.OXS.C.Z.3.6.3.y e u B S E.|.^.!.I.J.~ f A W.U.W.!.E 3 D 4.F 1 3 uXuXuXuXuXuXuX",
"uXuXuXuXuXU B g w.Z.s O u M O.*.$.c L V V c c V c V V L L E.<X<X*X@X~.3.Q ~.H.v f e v I.~.T.^.~.[.E.+.6 6.l.l.I.! 2 B 4.y.y = uXuXuXuXuXuXuX",
"uXuXuXuXuXW i ~ 0.i r s b M #.T c L L L P P Y Y Y ( Y I OX1X'.OXJ.6.4.N D W.+Xu.K 0 v 2.M.V.T.V.q.u.+.r y r 3.l.3.l f F E B ! uXuXuXuXuXuXuX",
"uXuXuXuXuXh.w.V j j L P U Y Y I I Y Y W / / / / Y ( R f.,XOXW.I.w.6.8.O J !.^.y.3.M O.O.<.#.#.n.M ` b y g 6 o.s F $.M a V j.).c.uXuXuXuXuXuX",
"uXuXuXuXuXuXN.c.p.h.z.z.p.i.i.i.5.( ( / ( / / Y ( ( R J.J.y.l.k.6.3.%.8 Q [.^.e.y u.x.8 [ ,.[ *.| =.| h M o.g a { o.d h U N.N.uXuXuXuXuXuXuX",
"uXuXuXuXuXuXuXc.z.v.j.c.v.h.h.p.d.i.5.5.5.) ( 5.( ) 5.5.U g G G h T T =.=.k.^.8.4 {.{.K.'  .' | X.X.] h >.X.%.%.%._ 4.w.B.c.uXuXuXuXuXuXuXuX",
"uXuXuXuXuXuXuXuXuXuXuXh.h.h.h.h.h.h.i.p.p.d.p.p.5.i.i.5.p.! V +.+.@.@.;.$.&.1.>.,.1.,.b.-. .` =.$.I @.&.>.j.m.j.h.c.P.(.P.uXuXuXuXuXuXuXuXuX",
"uXuXuXuXuXuXuXuXuXuXuXuXuXh.h.g.d.h.h.h.h.h.h.h.h.h.h.h.h.h.h.h.a.$.$.$.( 5.|  ...} =.} ` ' [ 8.s.s.s.m.z.L./.L.L.L.L.L.L.uXuXuXuXuXuXuXuXuX",
"uXuXuXuXuXuXuXuXuXuXuXh.z.h.h.h.h.h.h.h.d.h.h.h.h.h.h.h.h.h.z.z.z.j.g.p.i.5.5.2.@.7.f.p.-.7.p.g.d.h.z.z.v.L.L.L.L.L.L./._._.uXuXuXuXuXuXuXuX",
"uXuXuXuXuXuXuXuXuXh.v.z.h.h.h.h.h.h.h.h.h.h.h.z.z.h.z.h.h.h.h.h.h.h.h.h.h.p.h.h.h.h.h.h.h.z.c.z.v.z.z.v.L./.P./.(.(.P.L.L.uXuXuXuXuXuXuXuXuX",
"uXuXuXuXuXuXuXh.z.h.h.h.h.g.d.h.h.h.h.h.h.h.h.h.h.z.z.z.h.z.h.h.h.h.h.j.j.j.v.j.z.v.c.S.c.z.z.B.B./.B.L.L.L.L.P.L.uXuXuXuXuXuXuXuXuXuXuXuXuX",
"uXuXuXuXuXuXuX/.v.v.v.v.v.v.v.z.c.c.c.c.v.v.v.c.v.d.g.h.c.c.z.z.c.c.c.c.c.v.c.j.c.c.c.c.c.L./.c.v.uXuXuXuXuXuXuXuXuXuXuXuXuXuXuXuXuXuXuXuXuX",
"uXuXuXuXuXuXuXuXh.h.h.uXuXuXuXuXuXuXuXuXh.h.h.d.h.z.z.z.L.N.c.c.c.c.c.c.c.c.N.N.c.c.c.N.L.N.uXuXuXuXuXuXuXuXuXuXuXuXuXuXuXuXuXuXuXuXuXuXuXuX",
"uXuXuXuXuXuXuXuXuXuXuXuXuXuXuXuXuXuXuXuXuXuXuXuXL.L.L.L.L.N.c.c.c.N.c.N.c.c.c.c.c.c.c.N.c.uXuXuXuXuXuXuXuXuXuXuXuXuXuXuXuXuXuXuXuXuXuXuXuXuX",
"uXuXuXuXuXuXuXuXuXuXuXuXuXuXuXuXuXuXuXuXuXL.P.)./.L.L.L.L.L.N.c.N.N.c.z.c.c.c.N.N.B.N.P.N.uXuXuXuXuXuXuXuXuXuXuXuXuXuXuXuXuXuXuXuXuXuXuXuXuX",
"uXuXuXuXuXuXuXuXuXuXuXuXuXuXuXuXuXuXuXL.)./.L.P.L.L.L.L.L.L.L.N.N.B.B.P././././././././.uXuXuXuXuXuXuXuXuXuXuXuXuXuXuXuXuXuXuXuXuXuXuXuXuXuX",
"uXuXuXuXuXuXuXuXuXuXuXuXuXuXuXuXuXuXuXL.L.Y././.(.(.(.(.(./.P.L.N.N.N.N.N.N.c.c.N.c.c.uXuXuXuXuXuXuXuXuXuXuXuXuXuXuXuXuXuXuXuXuXuXuXuXuXuXuX",
"uXuXuXuXuXuXuXuXuXuXuXuXuXuXuXuXuXuXuXuXuXuXuXuXuXuXuXuXuXuXuXuXuXuXuXuXuXuXuXuXuXuXuXuXuXuXuXuXuXuXuXuXuXuXuXuXuXuXuXuXuXuXuXuXuXuXuXuXuXuX",
"uXuXuXuXuXuXuXuXuXuXuXuXuXuXuXuXuXuXuXuXuXuXuXuXuXuXuXuXuXuXuXuXuXuXuXuXuXuXuXuXuXuXuXuXuXuXuXuXuXuXuXuXuXuXuXuXuXuXuXuXuXuXuXuXuXuXuXuXuXuX",
"uXuXuXuXuXuXuXuXuXuXuXuXuXuXuXuXuXuXuXuXuXuXuXuXuXuXuXuXuXuXuXuXuXuXuXuXuXuXuXuXuXuXuXuXuXuXuXuXuXuXuXuXuXuXuXuXuXuXuXuXuXuXuXuXuXuXuXuXuXuX",
"uXuXuXuXuXuXuXuXuXuXuXuXuXuXuXuXuXuXuXuXuXuXuXuXuXuXuXuXuXuXuXuXuXuXuXuXuXuXuXuXuXuXuXuXuXuXuXuXuXuXuXuXuXuXuXuXuXuXuXuXuXuXuXuXuXuXuXuXuXuX",
"uXuXuXuXuXuXuXuXuXuXuXuXuXuXuXuXuXuXuXuXuXuXuXuXuXuXuXuXuXuXuXuXuXuXuXuXuXuXuXuXuXuXuXuXuXuXuXuXuXuXuXuXuXuXuXuXuXuXuXuXuXuXuXuXuXuXuXuXuXuX",
"uXuXuXuXuXuXuXuXuXuXuXuXuXuXuXuXuXuXuXuXuXuXuXuXuXuXuXuXuXuXuXuXuXuXuXuXuXuXuXuXuXuXuXuXuXuXuXuXuXuXuXuXuXuXuXuXuXuXuXuXuXuXuXuXuXuXuXuXuXuX",
"uXuXuXuXuXuXuXuXuXuXuXuXuXuXuXuXuXuXuXuXuXuXuXuXuXuXuXuXuXuXuXuXuXuXuXuXuXuXuXuXuXuXuXuXuXuXuXuXuXuXuXuXuXuXuXuXuXuXuXuXuXuXuXuXuXuXuXuXuXuX",
"uXuXuXuXuXuXuXuXuXuXuXuXuXuXuXuXuXuXuXuXuXuXuXuXuXuXuXuXuXuXuXuXuXuXuXuXuXuXuXuXuXuXuXuXuXuXuXuXuXuXuXuXuXuXuXuXuXuXuXuXuXuXuXuXuXuXuXuXuXuX",
"uXuXuXuXuXuXuXuXuXuXuXuXuXuXuXuXuXuXuXuXuXuXuXuXuXuXuXuXuXuXuXuXuXuXuXuXuXuXuXuXuXuXuXuXuXuXuXuXuXuXuXuXuXuXuXuXuXuXuXuXuXuXuXuXuXuXuXuXuXuX",
"uXuXuXuXuXuXuXuXuXuXuXuXuXuXuXuXuXuXuXuXuXuXuXuXuXuXuXuXuXuXuXuXuXuXuXuXuXuXuXuXuXuXuXuXuXuXuXuXuXuXuXuXuXuXuXuXuXuXuXuXuXuXuXuXuXuXuXuXuXuX",
"uXuXuXuXuXuXuXuXuXuXuXuXuXuXuXuXuXuXuXuXuXuXuXuXuXuXuXuXuXuXuXuXuXuXuXuXuXuXuXuXuXuXuXuXuXuXuXuXuXuXuXuXuXuXuXuXuXuXuXuXuXuXuXuXuXuXuXuXuXuX",
"uXuXuXuXuXuXuXuXuXuXuXuXuXuXuXuXuXuXuXuXuXuXuXuXuXuXuXuXuXuXuXuXuXuXuXuXuXuXuXuXuXuXuXuXuXuXuXuXuXuXuXuXuXuXuXuXuXuXuXuXuXuXuXuXuXuXuXuXuXuX",
"uXuXuXuXuXuXuXuXuXuXuXuXuXuXuXuXuXuXuXuXuXuXuXuXuXuXuXuXuXuXuXuXuXuXuXuXuXuXuXuXuXuXuXuXuXuXuXuXuXuXuXuXuXuXuXuXuXuXuXuXuXuXuXuXuXuXuXuXuXuX"
};
