/* XPM */
static char *_4900a7abd942_key_transparent_resized[] = {
/* columns rows colors chars-per-pixel */
"50 50 207 2 ",
"   c None",
".  c #4B3A44",
"X  c #4B3B44",
"o  c #4F3D44",
"O  c #52424B",
"+  c #564349",
"@  c #56424B",
"#  c #57454C",
"$  c #54444E",
"%  c #5C464B",
"&  c #584450",
"*  c #594554",
"=  c #5A4850",
"-  c #5B4A51",
";  c #5D4A51",
":  c #5D4953",
">  c #5E4C52",
",  c #5D4856",
"<  c #5F4A56",
"1  c #5F4E57",
"2  c #684E4D",
"3  c #6C534A",
"4  c #644E53",
"5  c #664D54",
"6  c #604D58",
"7  c #654F58",
"8  c #665054",
"9  c #665255",
"0  c #675057",
"q  c #6E5550",
"w  c #63535B",
"e  c #665359",
"r  c #65535E",
"t  c #67555C",
"y  c #66545E",
"u  c #6A5258",
"i  c #6A5259",
"p  c #6C5258",
"a  c #695558",
"s  c #685559",
"d  c #6D555B",
"f  c #6F555B",
"g  c #6E565A",
"h  c #6F575B",
"j  c #68545D",
"k  c #6D5A5F",
"l  c #785B53",
"z  c #71565B",
"x  c #70565C",
"c  c #72575E",
"v  c #765B5B",
"b  c #735A5D",
"n  c #705B5F",
"m  c #775D5C",
"M  c #745C5E",
"N  c #795E5B",
"B  c #7B635D",
"V  c #7E665E",
"C  c #6D5761",
"Z  c #6C5A60",
"A  c #6D5C63",
"S  c #715B60",
"D  c #725E62",
"F  c #725D64",
"G  c #785D61",
"H  c #766467",
"J  c #796467",
"K  c #796667",
"L  c #77656D",
"P  c #7A646A",
"I  c #7D696A",
"U  c #7D6870",
"Y  c #846658",
"T  c #80665F",
"R  c #84665C",
"E  c #836A61",
"W  c #856960",
"Q  c #866861",
"!  c #876B61",
"~  c #846965",
"^  c #846D67",
"/  c #8B6D63",
"(  c #8B6E64",
")  c #8C6F66",
"_  c #806A69",
"`  c #82696B",
"'  c #856F6B",
"]  c #877066",
"[  c #8F7060",
"{  c #8E7365",
"}  c #86716A",
"|  c #8B7168",
" . c #8D716A",
".. c #8F736A",
"X. c #8E726B",
"o. c #8E746A",
"O. c #907363",
"+. c #977761",
"@. c #917566",
"#. c #927766",
"$. c #967A65",
"%. c #987960",
"&. c #987861",
"*. c #9A7B67",
"=. c #9B7C66",
"-. c #927468",
";. c #95776A",
":. c #967C6F",
">. c #98796B",
",. c #9E7E68",
"<. c #987A6C",
"1. c #9B7C6D",
"2. c #9B7D6D",
"3. c #9A7F6C",
"4. c #877071",
"5. c #8C7976",
"6. c #8C7A76",
"7. c #937970",
"8. c #917B76",
"9. c #987E76",
"0. c #9E8069",
"q. c #938075",
"w. c #9F8777",
"e. c #978279",
"r. c #92807C",
"t. c #9D8679",
"y. c #9B877C",
"u. c #98847F",
"i. c #99867E",
"p. c #A18169",
"a. c #A3846C",
"s. c #A4846F",
"d. c #A9896E",
"f. c #A8896F",
"g. c #A18575",
"h. c #AB8C72",
"j. c #AC8C70",
"k. c #AC8C71",
"l. c #AC8D71",
"z. c #AC8D72",
"x. c #A38A78",
"c. c #A58B79",
"v. c #A58A7B",
"b. c #AA8E78",
"n. c #A99078",
"m. c #AC907E",
"M. c #BB9E7F",
"N. c #8F8081",
"B. c #9C8782",
"V. c #9B8881",
"C. c #9E8B85",
"Z. c #A28D86",
"A. c #A59387",
"S. c #AA9486",
"D. c #A7948C",
"F. c #AC9788",
"G. c #AE9689",
"H. c #AD978E",
"J. c #B19781",
"K. c #B29882",
"L. c #B69986",
"P. c #B09A8A",
"I. c #B59E8C",
"U. c #AC9A91",
"Y. c #AE9D92",
"T. c #AF9E97",
"R. c #B59F94",
"E. c #B3A094",
"W. c #B7A694",
"Q. c #BCA590",
"!. c #BEA490",
"~. c #BAA695",
"^. c #BAA699",
"/. c #B8A59C",
"(. c #BDAA9E",
"). c #BCABA1",
"_. c #BDB8BB",
"`. c #C3AD9A",
"'. c #C4AD99",
"]. c #C7B09B",
"[. c #C5B2A4",
"{. c #C9B5A2",
"}. c #CDBBA7",
"|. c #CAB7A8",
" X c #C8B5AB",
".X c #C9B7AA",
"XX c #CFBCAC",
"oX c #D2BEA9",
"OX c #C5B6B2",
"+X c #C6B8B4",
"@X c #C7BBB6",
"#X c #C1B5B8",
"$X c #C0B4B9",
"%X c #D0C0B1",
"&X c #D2C0B3",
"*X c #D2C4BA",
"=X c #E0D0B9",
"-X c #E3D2BB",
";X c #E0D1BE",
":X c #CDC3C0",
">X c #D2C8C5",
",X c #DFD3C8",
"<X c #DAD1CF",
"1X c #E3D9D1",
"2X c #E8E5E4",
"3X c #E9E7E9",
"4X c #F9FAFA",
/* pixels */
"                                                                                                    ",
"                                                                                                    ",
"                                                                                                    ",
"                                                                                                    ",
"                                                                                                    ",
"                                                                                                    ",
"                E #.O.    [ L.].m.@.                                                                ",
"                H g.K.] Y !.I.c.I.'.{                                                               ",
"                6 4.:.t.`.P.B r.i.=Xx.                                                              ",
"                y L 8.).&Xe.N.4X2X;XQ.                                                              ",
"                  ; H.+X$X X%X1X,X-Xw.                                                              ",
"                  _ R./.>X#X.XS.oXF.q                                                               ",
"                a Z.J e (.@XT.} }.~.V                                                               ",
"                K B.A _.OX5.6.q.W.{.^                                                               ",
"                k u.Z 3X<XC.Y.A.y.) R 3                                                             ",
"                = V.D.:X*X|.^.E.' 2 l &.%.                                                          ",
"                  - U.XX[.I s t 9 @ 0 p.,.n.                                                        ",
"                    O w 1 $ X .     7 b v.M.                                                        ",
"                                      j P 7.J.                                                      ",
"                                          F o.0.                                                    ",
"                                            d / a.                                                  ",
"                                              x 1.d.                                                ",
"                                                c -.=.                                              ",
"                                                  5 ;.k.                                            ",
"                                                    z <.l.                                          ",
"                                                      f >.d.                                        ",
"                                                        p Q f.                                      ",
"                                                          u ..h.                                    ",
"                                                            i X.z.                                  ",
"                                                                 .j.$.                              ",
"                                                                  ~ *.3.                            ",
"                                                                    G 9.b.+.                        ",
"                                                                    r U 2.s.                        ",
"                                                                      C ` G.|                       ",
"                                                                        D n v (                     ",
"                                                                            u N !                   ",
"                                                                      : 4 % & < m W                 ",
"                                                                      # S g     , M T               ",
"                                                                        > h       * 8               ",
"                                                                          + o                       ",
"                                                                                                    ",
"                                                                                                    ",
"                                                                                                    ",
"                                                                                                    ",
"                                                                                                    ",
"                                                                                                    ",
"                                                                                                    ",
"                                                                                                    ",
"                                                                                                    ",
"                                                                                                    "
};
