/* XPM */
static char *result[] = {
/* columns rows colors chars-per-pixel */
"50 50 110 2 ",
"   c #170E09",
".  c #1D0D09",
"X  c #1C100D",
"o  c #1E1513",
"O  c #260C06",
"+  c #2F0E06",
"@  c #220E09",
"#  c #24120C",
"$  c #2B160D",
"%  c #2C180F",
"&  c #30160C",
"*  c #33190E",
"=  c #391A0E",
"-  c #241611",
";  c #2D1711",
":  c #2D1912",
">  c #251B1A",
",  c #281C19",
"<  c #331A13",
"1  c #391E14",
"2  c #371E18",
"3  c #391E18",
"4  c #2D211E",
"5  c #3E2116",
"6  c #32221E",
"7  c #3C231A",
"8  c #2C1F21",
"9  c #2E2325",
"0  c #352623",
"q  c #3B2A26",
"w  c #352A2B",
"e  c #3D2C28",
"r  c #392F31",
"t  c #3C3134",
"y  c #432217",
"u  c #442419",
"i  c #4A261A",
"p  c #44291C",
"a  c #4B2A1D",
"s  c #522D1E",
"d  c #54301F",
"f  c #75271E",
"g  c #462B21",
"h  c #4C2D21",
"j  c #522F20",
"k  c #4D3125",
"l  c #4D3329",
"z  c #543222",
"x  c #5B3524",
"c  c #5E3826",
"v  c #533528",
"b  c #5A3729",
"n  c #5E3B2A",
"m  c #5E3F31",
"M  c #7B2E26",
"N  c #603724",
"B  c #653B27",
"V  c #683D27",
"C  c #653C29",
"Z  c #693E29",
"A  c #7B3F2F",
"S  c #64402E",
"D  c #6D412C",
"F  c #72462E",
"G  c #75482F",
"H  c #654232",
"J  c #6B4533",
"K  c #6E4835",
"L  c #6A4639",
"P  c #6D4A39",
"I  c #744730",
"U  c #764932",
"Y  c #7A4C34",
"T  c #734D3C",
"R  c #7C4F38",
"E  c #7E5037",
"W  c #77503C",
"Q  c #7D513A",
"!  c #433940",
"~  c #4A3F43",
"^  c #4C4349",
"/  c #53484C",
"(  c #534A51",
")  c #584F54",
"_  c #5D555D",
"`  c #755140",
"'  c #7C5542",
"]  c #675D65",
"[  c #766E77",
"{  c #86352A",
"}  c #8B3429",
"|  c #943A2E",
" . c #973B30",
".. c #95473B",
"X. c #9E4639",
"o. c #815137",
"O. c #84553B",
"+. c #88573D",
"@. c #87583E",
"#. c #88593F",
"$. c #A14235",
"%. c #A4443A",
"&. c #AB473A",
"*. c #A74A3C",
"=. c #AB493B",
"-. c #815741",
";. c #855A43",
":. c #895A41",
">. c #BA514D",
",. c #C4B2AC",
/* pixels */
"s i B x j Z F Y +.+.O.Y Y O.+.+.Y Y U b F U Y Y Y O.o.1 O.O.O.O.Q O.O.Y U Y O.O.S F E G U V V < 3 i ",
"y y x j a x x V = j C B V B V F U U D a C V B C B B Z 5 B Z V B D C B F G D D B V V B D V z C B 3 y ",
"a i i < y x Y Y Y Y Y o.R E Y o.E E O.T T Y U Y y Y Y Y Y O.E E Y Y U Y Y U i F U G F d s 3 a a 2 u ",
"u u @ $.&.h V +.:.+.:.:.:.#.:.#.;.+.+.+.O.+.+.O.y O.#.#.+.O.o.O.O.+.+.#.+.Y Y O.O.O.D B N *.=.a 1 i ",
"i y >.$.$.$.u j I I U F I Z V V Z Z V F U U V V 5 B Z Z D D F G U U V C B D G D S d s X.*.+ %.a < y ",
"i u @ } } } # z U Y U U U U U U U G U p I U U Y Y U G o.E E Y G U U U U U U Y U U % z | | | X i < y ",
"a i h @ f . n D -.+.+.;.+.o.G G Y Y o.h O.+.R R O.O.O.O.+.+.E U U U O.+.O.O.Y U U B c f f @ p s < u ",
"y y s z a j j z V C V Z C C V Z B V C u C C I Z Z D D D S B Z D D F J F U F D S B C s s s i s x ; y ",
"i u z d v s x Y Y U Y Y Y Y Y Y Y Y Y U U Y Y U G U Y Y U Y U Y U U Y U U U U Y Y Y o.O.B u j x < i ",
"i i Z Z L Z y Y Y :.:.+.O.+.Y U E E E Y Y U Y U Y Y Y Y o.Y Y O.+.+.E Y R Y U U U U U U U B Z U < u ",
"u u V Z J c Z Y Y U U U U U Y Y Y Y U U Y Y E E Y o.O.O.O.Y x Y U Y U U Y Y Y R U U U U U z V I < u ",
"# # & = 1 z P -.-.' T C y & < # % $ $ $ $ : : : % % * & = u b D T ' ' ;.' ;.;.' ;.-.Q L y & ; ; # O ",
"i i F < J Z Y Y +.O.O.o.Y Y Y Y U O.+.O.+.Y U U R Y Y Y Y Y Y O.+.#.+.O.O.O.O.+.-.o.O.E o.B Z < ; i ",
"u i Z Z H B F U I U Y U U Y Y U U Y U V C C Z D C C Z Z Z V V B Z Z C B C C C Z U I U I I z Z Z < u ",
"u u Z Z T R ' ` ` T T T ` ' ;.;.;.O.E Q R R R Y Y Y Y Y Y Y Y Y Y Y Y Y Y Y Y Y Y Y Y R R B F Z ; u ",
"i 1 N V J z x j V Y Y Y Y Y O.-.+.+.+.;.O.O.+.O.+.:.+.+.Y Y Y Y G Y E #.#.#.+.+.Y O.O.O.o.V Z Z < i ",
"y [ _ ( ^ ! r q 0 7 D B B D B D C C C B D D D D D V D D Z Z D Z D D G U F D V Z : e 4 t ~ ^ ( ) ] y ",
"u 5 h z u h . - : U U U Y G G Y Y E E Y Y U Y U D = < U Y Y Y U U U Y U U Y U Y 2 - p   j i j z 2 i ",
"i a B V z C R Y O.O.o.+.+.O.o.O.+.#.O.O.O.O.O.O.E U : Y Y O.o.O.O.E Y G Y Y U Y Y o.Y Y Y N G F 3 i ",
"u u B Z c n Z C S D D B V V S D B V D B V D B S V D < C B Z S D D B D S C S V S C C Z < Z z I Z 3 u ",
"i i C Z R Z R E O.Y G E U U E O.Y U U Y Y Y Y Y Q E U E Y U Y Y Y Y O.E Y U Y U Y Y Y G D z U Z 3 u ",
"i i B F Y U O.O.Q G Y G Q +.Q Q O.+.O.@.O.O.E U U U U @.+.+.+.+.#.#.+.#.#.O.O.O.+.+.O.U U x G Z 3 i ",
"y y B F I z N C C B c b v z a y * % % % - * 5 z b n B C B C C C B B F G F G D B C B B B B s Y F 3 y ",
"y i Z Z U C Y Y Y G E Q E Y Y Y E O.+.O.O.E Y U Y O.O.+.Y Y U U E O.O.O.E Y Y G U K C U F d D Z 1 i ",
"i ] _ ( / ~ l o U Y U Y Y Y Y Y Y E Y Y U E Y Y Y Y G Y Y E R Q o.Q E R Y U Y Y k - g o X o o , 8 u ",
"; < g h l < X o T -.;.:.:.;.;.;.;.+.:.% Q J b i 5 5 5 a C J W Q ;.;.@.Q W L p % > 0 > 9 . @ u 7 @ $ ",
"y u V I L c K Y U U +.:.+.U U U U U O.< :.@.Y Y E E O.E R U U U U U U Y Y E G G Y U U U U x F Z 3 u ",
"i i V < J c U R O.O.U Y +.+.+.O.Y Y U 2 U U Y U U U U Y U Y Y Y Y E O.O.O.Q E E Y Y U U U c I < 3 i ",
"1 < : < $ % $ 5 z b n N C N N b z h < $ : : ; % : : $ : - $ - % % : 1 * * * % % $ $ $ $ ; # 7 u ; 3 ",
"u u B U J V R O.U U U U Y U U G U E Y U U U Y U U O.U U Y E O.+.O.O.E Y U Y G U Y U U G U z F Z 2 u ",
"y u N U J S U U I I F U U I G G U Y E E Y G U U U U U F F U G G U U F G F G F U F U U U U B Z Z 2 y ",
"u u B D J C Y R E E Y R O.+.O.O.;.:.+.;.:.+.:.:.:.:.:.:.+.O.O.O.Q Q @.@.@.;.S 5 $ * & 2 j v J A 1 i ",
"i u B Z H C E ;.#.#.:.:.#.:.#.:.;.:.+.#.;.+.O.E +.O.O.o.Y U U U Y Y U Y U U U Y U U Y E U x U D 2 u ",
"u u B B J C U U G Y U U Y U G U U U U U U U U Y Y Y G F I U F U U G O.o.G Y o.o.o.U U U G x Y Z 2 y ",
"u y V B U N Y Y Y Y Y Y Y U Y R E Q E Y Y Y Y o.O.E Y Y Y E O.+.O.O.O.:.:.;.:.+.+.+.O.Y Y x F F 2 u ",
"u 5 k h l 7 > : < D Y O.+.;.+.:.+.+.#.#.#.+.#.+.+.#.#.#.+.Y Y Y R Y +.+.+.+.+.o.C v C o x s x x < i ",
"u t 0 9 > > o 0 0 7 C C B Z C C D D B C V C V D F U Y U Y Y Y Y Y Y Y Y U U I I 6 q , , 0 w w r r u ",
"y i F D n x D z z Y U Y U U Y Y U Y U Y Y Y Y Y Y U Y Y Y Y Y Y Y Y o.Y Y Y U Y U u C B v i N Z < y ",
"i a F Y J C O.O.+.O.;.#.#.O.:.+.+.#.+.+.+.+.E U Y Y Y Y O.O.O.Y Y U U j o.Y o.O.Y U U I Y x J U 2 i ",
"y y V Z J z C B N C C N C C C C V D B B S B B C B V F D D F V V V C C B B B B B V C B B V j Z V 2 u ",
"y u D = J c < R T Y Y Y U Y Y O.O.Y U U U T O.E R O.O.O.+.E Y U Y Y Y Y Y Y Y U U U U U I v Z < < u ",
"i i D p J B 5 E E U G U U Y Y Y Q O.@.O.+.O.+.O.Q O.O.@.O.Y U U U C U Y O.Y U Y U U U I I x Z C < u ",
"7 7 p 5 h b T L n k h h k z m L ` ' ;.;.;.;.:.:.#.+.+.+.O.-.O.-.;.;.;.;.;.;.' ' ` L m m k : 7 g ; 7 ",
"u 3 ..*.&.@ x Y U Y Y U G U G U Y Y Y Y Y Y O.;.+.+.+.+.+.Y Y U Y U R E R Y O.+.o.Y B B # >.=.@ < i ",
"u 5 @ X.,.&.. c G Y G Y G G G G G G Y G G G G G U U U G U U U U U U U U U U G G Y U x # %.%.I O < y ",
"u y p O  . . .c Y Y Y Y Q Q E E Y E Y Y Y Y Y O.#.#.:.:.;.+.+.% O.Q R Y Y o.Y Y Y D s } } } { i : u ",
"u y j i X M z C :.#.+.+.#.#.#.E Y +.+.+.+.O.O.Q E U U U Y U U * U U Y Y Y Y Y Y Y +.n @ f O u s ; y ",
"; y j j u j z x G Y G Y U U Y G G Z B Z B Z S D F U F E O.U G & I U U U U U U U I D z s i a z z < y ",
"y y j z u c N Y Y Y Y o.E Y U Y U Y Y Y Y Y E Y 1 Y Y E E O.o.o.Y Y Y Y G Y Y G Y Y Y D D d s d < y ",
"i 7 a j 5 i j U O.o.E Y Y F F F 1 = G F E Y F D % E E G G G U Y o.Y D x U U G o.o.o.O.F D x d s < u "
};
