/* XPM */
static char *result[] = {
/* columns rows colors chars-per-pixel */
"64 64 254 2 ",
"   c #010101",
".  c #02040A",
"X  c #070A0C",
"o  c #080B15",
"O  c #0D1215",
"+  c #0C131A",
"@  c #13161B",
"#  c #161C25",
"$  c #0B1833",
"%  c #1B242B",
"&  c #1D2736",
"*  c #1F303A",
"=  c #262C36",
"-  c #2E3136",
";  c #2A343A",
":  c #6E342C",
">  c #37603C",
",  c #706233",
"<  c #0D1F49",
"1  c #162A49",
"2  c #172A4A",
"3  c #182B54",
"4  c #1C3558",
"5  c #21294E",
"6  c #283649",
"7  c #373C47",
"8  c #263957",
"9  c #323C57",
"0  c #162E66",
"q  c #1C3567",
"w  c #1D3974",
"e  c #253B66",
"r  c #333E69",
"t  c #253C75",
"y  c #37414A",
"u  c #2F4B51",
"i  c #384658",
"p  c #355D5A",
"a  c #2A4467",
"s  c #354968",
"d  c #3A526B",
"f  c #294678",
"g  c #344B77",
"h  c #2E5279",
"j  c #345373",
"k  c #3C5474",
"l  c #38567A",
"z  c #3C5A7A",
"x  c #4B564D",
"c  c #434B57",
"v  c #45545C",
"b  c #6B4C55",
"n  c #4A704A",
"m  c #726B50",
"M  c #475769",
"N  c #525B67",
"B  c #465775",
"V  c #455C7C",
"C  c #4B5D7B",
"Z  c #525773",
"A  c #59646B",
"S  c #496476",
"D  c #4E6A70",
"F  c #58687A",
"G  c #6A6D70",
"H  c #677279",
"J  c #915337",
"K  c #AC5A36",
"L  c #B05931",
"P  c #B55D34",
"I  c #B85B35",
"U  c #8E6F3D",
"Y  c #AB6034",
"T  c #B86138",
"R  c #8F544D",
"E  c #AD5B43",
"W  c #91664E",
"Q  c #B96545",
"!  c #AC6B50",
"~  c #8F746D",
"^  c #AD7A64",
"/  c #C46945",
"(  c #C97650",
")  c #6F833C",
"_  c #548C47",
"`  c #739F48",
"'  c #87984D",
"]  c #B6846F",
"[  c #15379B",
"{  c #233D81",
"}  c #1536AA",
"|  c #453883",
" . c #2B4785",
".. c #344D82",
"X. c #374C87",
"o. c #3B5484",
"O. c #395789",
"+. c #2A4C98",
"@. c #355895",
"#. c #3C5C94",
"$. c #3C5C9B",
"%. c #3B6788",
"&. c #3F718F",
"*. c #3E6497",
"=. c #1B41AB",
"-. c #375BA6",
";. c #2A52B7",
":. c #2F53B4",
">. c #3A65A8",
",. c #3A6EB6",
"<. c #465B87",
"1. c #445C84",
"2. c #425C95",
"3. c #535D92",
"4. c #486688",
"5. c #4B648B",
"6. c #556887",
"7. c #5A6E8C",
"8. c #48748C",
"9. c #577588",
"0. c #5C728C",
"q. c #44639C",
"w. c #476998",
"e. c #576A93",
"r. c #536C93",
"t. c #447493",
"y. c #4A7898",
"u. c #587697",
"i. c #646F8E",
"p. c #667689",
"a. c #657998",
"s. c #4465A3",
"d. c #466BA6",
"f. c #4B6BA4",
"g. c #4D72A4",
"h. c #4978A5",
"j. c #4D73AA",
"k. c #5375A4",
"l. c #587BA7",
"z. c #5274AA",
"x. c #537AAC",
"c. c #486CB1",
"v. c #4878B5",
"b. c #557CB4",
"n. c #657BA4",
"m. c #727DA0",
"M. c #3863C4",
"N. c #4D73CB",
"B. c #4D8299",
"V. c #578499",
"C. c #6A859A",
"Z. c #738894",
"A. c #5584A7",
"S. c #5491A8",
"D. c #4788B6",
"F. c #5D84B4",
"G. c #5A86B8",
"H. c #5B97B9",
"J. c #6887A8",
"K. c #7289A9",
"L. c #6895A6",
"P. c #7795AA",
"I. c #6889B5",
"U. c #638CBC",
"Y. c #6C8FBA",
"T. c #7A98B7",
"R. c #5CA2BD",
"E. c #70A7AF",
"W. c #69A8BA",
"Q. c #76A5B2",
"!. c #78B6BB",
"~. c #578BCA",
"^. c #5B97C4",
"/. c #6793C3",
"(. c #6890CD",
"). c #5CA6C3",
"_. c #68A9C6",
"`. c #6DB7CA",
"'. c #75B8C5",
"]. c #79A6D2",
"[. c #74B9D7",
"{. c #759EE3",
"}. c #7DC7C9",
"|. c #7CC7D2",
" X c #8D9094",
".X c #B3A293",
"XX c #859AA8",
"oX c #899BAF",
"OX c #8BAAB2",
"+X c #87A5BA",
"@X c #99A9B7",
"#X c #ABAFB1",
"$X c #829BC1",
"%X c #8AABC2",
"&X c #95ACC7",
"*X c #88B9CA",
"=X c #97B7C9",
"-X c #89B7D9",
";X c #95BED6",
":X c #A4BAC9",
">X c #ABBACE",
",X c #89AFE1",
"<X c #8AB6E3",
"1X c #86C6C9",
"2X c #84CACB",
"3X c #97C6CC",
"4X c #88D3CE",
"5X c #95D4CE",
"6X c #8BC8D5",
"7X c #93C2D5",
"8X c #99CAD6",
"9X c #93C4DB",
"0X c #9AC5DB",
"qX c #93CBDB",
"wX c #88D4D7",
"eX c #8CD4D4",
"rX c #94D5D3",
"tX c #97D5D9",
"yX c #ADC4CA",
"uX c #A7C9D8",
"iX c #A4CCDC",
"pX c #B6CCDB",
"aX c #A6D5DC",
"sX c #B7D3DD",
"dX c #8BCDE6",
"fX c #99C6E4",
"gX c #9DCBE3",
"hX c #98D5E3",
"jX c #A2CCE4",
"kX c #A8CCE5",
"lX c #ACD3E5",
"zX c #A9D7E7",
"xX c #B4D4E4",
"cX c #B6D8E6",
"vX c #B0D2EB",
"bX c #B4DBEC",
"nX c #BBDCEC",
"mX c #BADDF2",
"MX c #B8E3E8",
"NX c #BBE3EC",
"BX c #BCE3F3",
"VX c #BAE5F6",
"CX c #C5D0D4",
"ZX c #C4DBE9",
"AX c #C2DFF3",
"SX c #C5E5ED",
"DX c #C3E4F2",
"FX c #C9EAF5",
"GX c #CBEAF5",
"HX c #D0E8F0",
"JX c #D6EAF6",
"KX c #D3ECF4",
"LX c #D8F2F8",
"PX c #E1EEF8",
/* pixels */
"r X.t t <.<.1.a.P.+X&X&X+XK.1.s M a.:XpXpX>XK.K.i.s 5 9 9 6 5 9 Z Z 9 i M 9 9 9 9 6.K.&XvXpXpXoX6.<.<.P.%X%X=X&X&Xa.w.w.q.2.X.5 ",
"r <.<.t ..4.1.<.n.K.+X+XP.u.g a a V a.oX$XY.e.6.C i 5 8 s C B B i.<.B C g 9 6 5 s 6.a.$XkX&XoX6.B g 5.K.T.T.%XT.a.5.w.w.w.2.t e ",
"r <.2.| f #.1.g s C e.r.V g a r 9 e k u.3.B B g s r B <.C i.i.C M C m.7.C 3.r e 9 B <.e.m.i.k a e r g 5.r.7.0.6.k l j.j.f. .X.B ",
"f X.f.3...q.4.e 8 g e.a.r.e.<.6.1.V r.n.C B 3.e.6.3.a.i.Z 9 6 # o 1 i Z n.m.3.3.g s g B <.3.6.5.V <.6.4.g s s 9 8 ..x.F.b.X.2.<.",
"o.x.U.b.k.b.n.n.a.7.K.K.n.n.n.e.1.0.K.K.a.7.m.m.m.6.r 5 # o . . . . o # 6 c i.m.a.e.e.e.5.n.I.J.e.r.n.k.3.e.a.a.a.b.U.~./.c.b.<.",
"k././.U.Y.Y./.J.a.7.e.5.<.o.g r 8 s 4.<.B F i.9 = & + . . . .     . .   . O = r i.m.n.n.e.n.K.n.B g 5.r.e.n.J.m.K.I.(././././.5.",
"k.(./.U././.l.a e 8 4 3 3 3 3 3 3 2 5 8 M F 6 o .                 . .       . o # 9 N 6.Z s a r 8 3 8 4 4 8 4 9 e o.G././././.w.",
"w.I.U.F.G.U.k.e 4 4 1 2 3 3 4 8 8 5 8 Z Z = X . . .                 .       . . . o - c F Z 5 2 3 4 4 < 2 3 < 2 8 f b.U.F.b./.r.",
"2.z.z.z.x.G.l.h h a a z d 4 a d i u B H ; .                                     .   X % b p.Z 8 a a a 8 j z a a j O.b.F.x.g.k.<.",
"..2.f.f.z.G.l.%.z 8.4.S z a j z S F F 7 o . .   . .         .                         X % N p.M a j j j 9.4.4.8.l w.F.F.g.f.f...",
"g q.f.z.x.F.l.l z j z 4.4.h z S Z.XX7 X   .     . .       . .   .                       O = v 6.d z z j 4.4.r.z l y.G.F.z.c.s...",
"<.2.s.z.x.U.u.j h a j 8.l a j d p.N o     .                                       X       o # N C.d l a %.u.4.a h h.U.I.x.d.s...",
"X.s.s.f.j.U.J.o.h a j J.V a j i Z %                                             . X         X c Z.d s j 8.I.u.g l f./.G.z.s.s.#.",
"2.f.d.*.d.I.J.r.j j V Y.8.a s S c X                                                         . - Z.S s j y.T.A.l l f./.G.s.s.f.2.",
"2.g.g.w.w.x.K.u.s 4.r.J.V.z d M % .                                                           O N Z.k z J.J.r.4.j w.G.j.w.d.f.o.",
"5.x.h.j.g.A.J.6.a d z 6.0.k M c X                                                             X ; p.S k u.r.S d g w.G.x.d.j.k.o.",
"w.l.l.z.j.I.J.0.B i a S 9.s 7 # .                                                             . # G F B 0.6.s s S l.U.F.j.x.k.o.",
"u.J.l.z.s.b.n.J.D 2 8 s d 6 % .                                                                 X v H s d s 8 6 6.J.U.z.d.k.l.1.",
"u.n.x.b.s.z.n.J.F 6 F B 6 M # .                                                                   # A B 6 C C 6 s y.F.z.w.b.l.1.",
"w.A.l.z.s.z.a.a.F a P.9.u H %     .                                                               o N p.8 C.K.8 4 4.b.c.f.x.l.O.",
"<.k.z.f.s.f.e.a.F C T.K.M F #                                                                     X c p.M K.K.j 8 2.z.s.s.f.k.g ",
"<.2.q.-.2.2.<.7.6.a.K.T.F A @                                                                     . c p.7.+XJ.r.8 X.s.-.-.2.s.g ",
"X.q.s.$.@.2.l 7.6.e.J.T.V N @                                                                     X c p.6.T.J.5.e X.s.$.$.-.q.g ",
"X.2.$.$.$.2.V e.6.k Y.l.9 M @                                                                     . c p.s J.I.a e @.s.$.$.$.2.g ",
"O.#.$.$.#.2.z 0.6.a I.r.8 v @                                       X                             . 7 p.8 J.n.q e O.*.$.$.$.#...",
"#.q.s.$.#.q.o.0.6.8 K.u.8 i +                                           X                         . c p.8 n.l.e e #.d.*.#.#.s.g ",
"5.q.@.2.z.F.r.7.F e K.$Xi.c O                                           x 7 X               X     . c i.8 J.n.q a w.w.q.q.q.f.o.",
"*.2. .@.x.Y.r.u.C f I.&X+XZ +                           X             X G H O                     . 7 F a l.n.t f g.h.q.w.q.w.o.",
"O.X. . .g.T.u.0.C <.w.+X:XF O                                     X   X  XXX@   X                   7 6.V y.w.<.l l.h.h.w.2.5.X.",
"O... . .y.].L.0.C V u.%XuXi.@   X - - X                               % XX#X=       @ - %         . 7 F l r.w.g l l.D.d.>.#.@.h ",
"h 5.q. .j.].L.p.Z 8 K.kXxXXX#   X XX XO                             . i :XyXv X     7 yXb     .     7 G 3 u.f.4 o.U.x.c.$.X.#.o.",
"O.l.b.O.q.Y.V.0.B 5 +XbXvX+X%   O #X#X@                 X           O H aXuXp.o     y CXA           7 i.i u.7.3 1.I.G.c.@. .#.o.",
"w.U.G.q.#.l.r.7.B 8 %XbXzX%X;   = @X@X%               - G %         % OXxXzXP.%   X A sXA           y H i.@Xk < S U.b.s. . .$...",
"l.Y.U.x.#.w.2.7.C i =XvXzX=Xp X N yX@Xy .             A CX7       X y uXzXjXOX6 . % @XsXH o     .   7 H XXpXi 1 z x.j.$. . .#.f ",
"u.G.F.x.#.o.B V B 0.iXkXgX0XC.# Z.sXuXF o X X X   . . A CXc . .   @ H lXkXgX7XS o M uXpXP.%   . .   7 p.oXZXa.s 1.#.+. .{  .X.f ",
"u.F.j.x.*...g B V =XvXiXgX0XL.d @XxXuXP.6 # + X O O =  XCXv # @ @ ; =XlXjX0X8XV.; OXcXlX&Xu @ O o . y XX:XsXK.V 4. .t { { { X.t ",
"l.y.2.j.f.X.r s 9.>XmXfX9X9X%X+XbXzXiX%XM * * & - ; A pXsXZ.7 - ; H pXxXgX;X;XQ.C.8XxXzX8XF ; % % % y :XZXxXT.6.6.t t t { X.{ e ",
"A.*. .s.b.@.e C @XnXvXkX0X;X7XlXbXzXiX0X9.y u y v N P.SXnX+XM c A @XZXvXjX;X-X*X=XbXzXkX0XC.u 6 u ; M yXAXxX+XJ.e.t t t X.{ t 0 ",
"l.O.t #.b.2.e 6.CXAXnXjX0X;X8XbXkXjXhX0XE.k M D D 9.:XnXbX;Xp.F  XZXDXxXiX9X;X0XzXvXjXjX8XQ.M p p ; D sXAXxXT.S 1.e t f { t e 5 ",
"h.O.w #.z.2.5 i.ZXJXZX;X0X8XiXbXjXjXhXjX*XC.F D M p.pXbXkXuXQ.p.oXHXHXpX0X0X9XkXMXjXgXgXzX*XV.S d y 9.cXvXkX%X4.k e e t t t t < ",
"u.#.w  .h.*.4 Z.PXJXxXuX8X8XNXvXjXfXgXhX;XL.0.F S P.NXbXhXgX*XZ.#XPXKXsX8X8X8XMXVXgXfX0XtX9XL.8.z M +XmXvXjX*XC.z 4 e q t X.o.8 ",
"8.O.w w *.w.k &XPXLXZXuXiXlXNXlXgXfX9XqX*XE.C.L.oXuXDXvXgXfX=XXXZXLXKXZXuXiXzXBXbXjXgXfXqX7XQ.9.V.P.kXDXvXgXgXT.k 3 3 q f f.k.g ",
"%.f 0 0 X.y.C.ZXPXJXFXsXuXMXBXkXfX0XqX6X3X!.L.P.=XxXbXjXfX9X*X;XHXPXJXSXuXiXMXNXkXuXfX9XqX6X!.L.C.!.cXvXgXfXfX].g < < q #.x.A.1.",
"S f w 0 f q.T.HXPXJXGXxXuXSXGXlX0X0XqXqX6X1XQ.E.uXGXnXjXfX9X6XkXLXPXJXHXpXaXFXVXiX0X0XqX6X5X!.L.C.uXFXnXfXfX-X%Xk $ $ q w.h.h.1.",
"t.*.w 0 w O.T.HXLXJXHXsXsXFXFXxX0XgXqXhXrX*XE.Q.vXLXmXkX7XqX6X8XSXLXJXZXsXxXGXFXiX0X8XqXtXrX'.L.E.MXGXmXjX<X9X'.%.$ < h h.h.y.z ",
"y.%.w 0 w h K.FXJXJXZXsXnXFXFXcXjX8XtXtXtX1XE.*XVXFXxX0X7X6X6X7XMXKXKXZXsXSXGXFXlXiXtXtXtXtX2XE.*XDXDXlX;X6X9X6Xt.3 0 @.h.y.B.l ",
"8.%.f 0 0 e V.FXJXZXZXxXSXFXSXuXaXaXtXtXrX1XQ.3XFXGXxX;X7X7X4X3XaXFXFXZXxXFXGXNXlXaXtXiXtXtX6XE.7XGXHXpX;X;XqX6XS.a w %.A.A.A.z ",
"8.&.O.w 4 4 0.AXJXHXZXnXDXGXMXuXiXrX5X5XrX3X!.3XKXLXnX9X7XqX6X1X3XMXDXnXcXFXGXnXiXiXrXtXrXeX2XE.8XLXKXcX;X7XeX2XW.l f *.A.y.t.j ",
"8.t.O.h q 4 u.BXGXDXNXbXSXGXMXuXtX5X5X5X5X4X!.3XKXKXSXiX;X6X1X1X1XaXDXnXMXFXFXcXuX5X5XrX5X5X4XE.yXLXKXNX0X7X1X1X!.t.%.>.B.y.%.a ",
"8.t.%.%.h j J.BXFXDXnXbXBXGXMXuXaXrX5X5X5X2X!.uXLXKXSXlX9X6X1X}.1XbXSXMXMXSXSXMXaXaXtX5X5X5X1XE.aXLXKXSXiX6X1X1X!.B.&.h.&.t.y.S ",
"t.t.&.&.%.%.J.NXFXFXbXvXNXSXMXaXaXtXrXtX5X1X3XMXLXLXFXzX9X6X}.}.1XxXFXbXaXNXSXsXaXaXrX5X5X4X}.3XFXLXLXVXhX7X4X4X'.B.&.&.&.S L.yX",
"w.&.&.&.t.t.L.bXDXSXxXlXBXSXMXaXaXrXrXeXeX2X4XMXKXKXDXzXtXeX}.}.1XMXDXbXaXNXMXMXaXtX5X5X5X4X}.5XSXLXGXBXzXrXeX}.}.B.B.&.8.S 6.P.",
"&.t.t.&.B.&.J.xXnXCXyX8XZXSXcXaXaXtXeXeXeX2X1XMXKXHXVXbXhXwX}.}.2XzXbXfXhXBXNXsXaXaXtXeX5X4X4X5XMXLXFXNXaXtX4X}.!.S.B.8.S M 8 a ",
"B.B.t.B._ D m.#X>X.X X.XCXSXMXzXtXtXeXeXeX1X}.MXGXFXVXzXhXwX}.}.*XfX<X(.fXVXBXbXzXtXtXeX4X4X}.4XMXGXVXMXzXtX|.}.!.S.B.8.F p 4 4 ",
"B.B.9.H p.~ ~ ~ ] ^ ! ] .XCXsXtXtXeXeX4X4X2X'.aXGXDXbXzXhX|.|.}.[.[.].G.-XVXVXzXhXtXeXwX4X4X}.}.MXGXNXMXhXhX|.}.'.S.B.B.D u 4 4 ",
"B.B.H G ~ W R ! ! Q Y T ( .XyX5XwXeXeX4X4X2X}.uXGXSXzXhXwX|.}.}._.(.~.c.6XVXVXzXwXwXhXwX}.4X}.}.aXVXVXzXhXdX|.|.!.S.B.B.M u 8 4 ",
"V.9.G W Y P T T E I L Q ( ] #X3X2X4XwXwX4X}.'.1XFXVXzXdX[._.).`.Y.v.-.:.,XmXmXdX|.|.|.|.|.wX4X!.tXVXVXzXdX[.).).W.S.B.D p p u 4 ",
"9.H G U Y P P P I I L Q ( ^ .XOX`.`.|.|.4X}.`.*XmXvXdX[.).D.D.D.H.G.-.,.<XmXvX6X`.`.|.|.|.wX}.!.7XVXvX<X{.).D.D.S.S.9.S p n p u ",
"F G W U P P P P I I I / ( ( ^ Z.L.R.`.|.}.}.}.`.fX<X{.~.N.M.>.>.A.U.G.~.{.VXdX[.).).).|.|.|.}.`.*XgX[.{.~.,.>.>.&.B.S n _ _ > > ",
"F A m Y Y P P P I I Q / / / ! G u.A._.2XwX|.`._.-X{.~.M.;.=.+.>.F.I.G./.<XkX<X~.^.D.D.).|.wX}.}._.,X{.~.;.;.[ +.>.B.D ) ` ` _ _ ",
"H m U J P P P I I I I / / / E ~ i.u.R.[.wX|._.G.U.b.:.} } [ :.v.S.A.A.H.[.<X{.~.,.D.D.).|.wX}._.D.b.N.:.} } [ @.k.6., U ' ` ` _ ",
"H W K L P P I I I I I I / / E R Z w.H.`.|.|._.A.z.c.-.;.[ :.b.A.A.A.A.G.(.{.{.N.M.,.D.H.[.|.|.H.c.c.-.;.} [ -.>.0.A : : , m _ _ ",
"~ W P P P P P T T T I / E E R R Z 2.D._.`.`.H.h.A.x.b.c.>.c.y.y.B.B.A.A.N.N.N.;.M.;.,.^._._._.S.h.j.f.s.-.$.f.e.p.b : J R n > > ",
"m W E K P P P I I I I E I J R b | +.c.~.H.H.H.l.y.y.u.y.g.y.t.t.B.y.y.A.b.N.M.} =.} ;.,.^.^.H.A.t.y.w.w.4.4.6.p.m : : J W , > > "
};
