/* XPM */
static char *result[] = {
/* columns rows colors chars-per-pixel */
"50 50 81 1 ",
"  c #0E0402",
". c #130703",
"X c #140804",
"o c #1B0A06",
"O c #1C0C08",
"+ c #2E0500",
"@ c #220903",
"# c #2B0C06",
"$ c #220E09",
"% c #24120A",
"& c #2A150D",
"* c #2E180F",
"= c #3A1207",
"- c #311008",
"; c #36190F",
": c #2C1510",
"> c #2E1911",
", c #331C14",
"< c #3D221D",
"1 c #431505",
"2 c #45261B",
"3 c #4C2A1E",
"4 c #4A2D23",
"5 c #522F21",
"6 c #4E3125",
"7 c #553224",
"8 c #593526",
"9 c #5F3927",
"0 c #54352A",
"q c #5B3628",
"w c #57382B",
"e c #5D392A",
"r c #633A27",
"t c #623B2B",
"y c #693F2C",
"u c #623E31",
"i c #683F30",
"p c #67402E",
"a c #6D422D",
"s c #71452E",
"d c #74492F",
"f c #784B2F",
"g c #664132",
"h c #6D4433",
"j c #6D4933",
"k c #6F4739",
"l c #714633",
"z c #744935",
"x c #7A4C34",
"c c #714738",
"v c #744A39",
"b c #7B4E39",
"n c #7D5036",
"m c #77503A",
"M c #7D513A",
"N c #7E5640",
"B c #7F5A43",
"V c #8F4718",
"C c #8A4D28",
"Z c #964E21",
"A c #814F3A",
"S c #81533C",
"D c #88573F",
"F c #81593F",
"G c #975935",
"H c #A45820",
"J c #A25B2A",
"K c #AE5B28",
"L c #B06927",
"P c #A96533",
"I c #B06733",
"U c #B56A35",
"Y c #C07133",
"T c #845640",
"R c #885740",
"E c #825A42",
"W c #8A5B43",
"Q c #8D6146",
"! c #8F6249",
"~ c #916247",
"^ c #92654A",
/* pixels */
"78888888878888888888888888888888888888888q88888887",
"llzzzzffxllfzzxzzdfffllffxzzffdzalztalyffzxzxlszzz",
"57575555576755577755777777757555752$;o585555777777",
"bllcccllzzzzzlzzlclczzlllzjlvzllll8K=LxnbbzzMzlzlz",
"SvbbbSMMxvMMxMMbbbmxxMnMbbMbbbxMMSSbSbnMSSMMMMMMSM",
"lchklhlllllzllllhzllhzldclhhjhhlhlhhhhljhlzjljlhhl",
"vxbxbvz4njllxbnbvxAAMxAAb2zvvlczvjzlvzjlvvvxzxvvxz",
"bxvxxlc0AfAAbxxnAxnxbxfAlOlbzllvzvllvxmvlxzllczllx",
"hgthhhyhjzzzzappppgphphahihghjlzzvlpphppyihyhpphgj",
"zlzzzvzzzzzlvvvdvzvzzzzzzzzjzzzzjpzzzvzmzzhzljzvzv",
"^^^^^^F^^^^^npwM~!W^^QW^W!^^^Q^F!W^^^^^!^^F^W!QM!^",
"MMMEMWFMMNMMyKJHOWQ!!TQ~MWEWMFMbFWMMSMSSRFSMMFWFMb",
"mmmmmnMmmmMMmjvMnxMmmMmmmmMnbMMmMMmmMMMSMFMmmnnMvm",
"MMMFFFFEFpJ+mMTFFFWMEMFEMEMSFWEBMMMmMEMFEMMBFFWMMF",
"jaaaasaapoC@Vaaa<apaasasldsssaasasaajsssssjjqsaasa",
"xxxlxfxxjzffzzff&dzxfxxxflzfxzxsfxxfxnxfzzf3pfxxff",
"8qqq888e8e888qe8789888888888888888q8q88888q8888qqe",
"ssapaaapasassaasaapaysssrssaysayssarssssaaaayaaaha",
"aaaaraaapapyaryyyyaasrarryyryarrsyyyyyryyyrty8ters",
"zlzlzlczllllllzlzljdcczcfczxczczczczzllzcczzzvzzcl",
"bScxSxzxxvSbzbbzzlcxvxzbbMMbSSlxMMMzvxnSAlzzzSMvbb",
"zlbbbFMzlMMxllbzxxbzbSMbxzMbAy4xbMSbSxlbASSnAbthbb",
"EEENBBEEBQEToEEEEEEEMEEEEEEEBEBEMEBEEMNBEEEEEEEEEF",
"vzzvvzzvzvvvXzvcMvNMvzbbzzcccvzcMzvvvMzblvlrG$cvbx",
"ettttetqetetteetqqtqeee0eettettytttttettett#-1V8ee",
"ttrttttttttttrtirttttet0ttttttyittettttttttrerettt",
"lclllhhrhtthhhthlhllallghlllhlhuthilclhrytrhhhjllc",
"XXoX.XoXX..XXXXXXXXXXXX.XX.XXXXXoXXXooXX..XXXXXoXX",
"iyiiXlsdjhzyddlzxxlshhaalhzzszlzvzxxlvzlczxdlcxzha",
"X   ....XXoXXXXXXXXX.Y$IX..X....XX.XXXXXXX.XX.XXXX",
"bvNvvcbvvlhvcvvvchzvu$P&jhzcclclcvkcvbcvbbbchcNbbh",
"vhhhihvvckljhjhchcchlzzcczhcczccvvvvvhhkcclighkllz",
"..X.XX.XXXXXX  X.X.X XX X.. XXXX. XXXXXX.XXXXXXXo.",
"vlzzzzvmbmnAMMzMMvvxbMMxMMzvm3hMvMmzlzxmMzvnMmbnbv",
"nlbxxxbjxxnbxzmmlxnbbxxMzbnjvfzlmmzvvxnnbllvbbnbxx",
"ttee9e9rreqqeytrtrttytyttet99ee999ertttttyrerqeret",
"zflxlzazlappllxljzdxlxsjlzlxxxvxfzxxvvzssxlxxxxzxx",
"78e8888888888887708qe5778888q788887778777788778878",
"lzzzllzmzzkzvvllkzzcczvblzmnmzzkzzxMMzvvxMxvlczlll",
"wwwwweweweeeewueuweeeeeer06weeeew8e076664466744445",
"zyOicfzlvzzxzffzzzfdflllzxxlyxlxzhtqyilljzzlzdslll",
"tqo88rqe9988r888q8qqerqq98983UoK5558treeqqq888888e",
"vATNxbMSMnSzXzcllzzczzzzlvzcl$CZxlczcbbAbbbzbbllcz",
"AbSMSAbbMmSSXzlbASSvxvMxmnbxbbbbAbbvxvbbbSSbASbSAS",
"&%&%**>,<,,;X&:>,,,*&&&%;,***%%$$$&O#:&&%%$$$$%%$$",
"ltttzpyhaapsaaprayzfjsllalfhadfy:qtyrtetyalyhhjsfz",
"ssrqahlzfdslzzxlzzzzlfjflspllzla<5yhyfsfzzffdddzsh",
"zvcczzzhzjllczvzlzllzlzzzllzgzbvcvvzvvcvzzccczccxc",
"AAxbzbbSbxbMSSSblSnnAnSzmSSShvSRTDzlzzzvvzlzzMMzSS",
"SSSSbSSSSSSSSbAbbSSASSnSSAAnpzFFTRDRRRDRRRRRRRRRSF"
};
