/* XPM */
static char *result[] = {
/* columns rows colors chars-per-pixel */
"50 50 219 2 ",
"   c #000000",
".  c #070607",
"X  c #03161A",
"o  c #1B1B18",
"O  c #000611",
"+  c #3E0000",
"@  c #321907",
"#  c #321D13",
"$  c #200B08",
"%  c #362012",
"&  c #00082B",
"*  c #001B2C",
"=  c #001728",
"-  c #00252D",
";  c #00292F",
":  c #09272B",
">  c #1B2C2E",
",  c #18282A",
"<  c #002A31",
"1  c #052831",
"2  c #192D30",
"3  c #183236",
"4  c #2D2D2C",
"5  c #242C2C",
"6  c #312E2C",
"7  c #2E302F",
"8  c #31302E",
"9  c #3D312C",
"0  c #262F30",
"q  c #243234",
"w  c #2C3233",
"e  c #29393B",
"r  c #333333",
"t  c #383837",
"y  c #343B3B",
"u  c #3B3C3B",
"i  c #383634",
"p  c #460000",
"a  c #4A1C00",
"s  c #570900",
"d  c #6C0200",
"f  c #760300",
"g  c #6B1700",
"h  c #44220B",
"j  c #592907",
"k  c #4C2B1B",
"l  c #7D3705",
"z  c #743A17",
"x  c #6B3209",
"c  c #432E27",
"v  c #43342E",
"b  c #4B352C",
"n  c #5B3A2C",
"m  c #543528",
"M  c #453731",
"N  c #443934",
"B  c #4C3931",
"V  c #523B32",
"C  c #5C3D31",
"Z  c #633D2E",
"A  c #6A3F2C",
"S  c #6B3C26",
"D  c #723E26",
"F  c #703F28",
"G  c #5B433A",
"H  c #4E403B",
"J  c #7C4326",
"K  c #7D452A",
"L  c #79462E",
"P  c #674434",
"I  c #724835",
"U  c #764A35",
"Y  c #6B402C",
"T  c #233D42",
"R  c #3A4446",
"E  c #2B4145",
"W  c #444544",
"Q  c #484A4A",
"!  c #514947",
"~  c #49585C",
"^  c #595A5A",
"/  c #545656",
"(  c #6B4F44",
")  c #6A524A",
"_  c #77564A",
"`  c #655B58",
"'  c #4B6267",
"]  c #5D686A",
"[  c #626261",
"{  c #736C6B",
"}  c #7D7D7D",
"|  c #767777",
" . c #6E7070",
".. c #931900",
"X. c #912B00",
"o. c #823A02",
"O. c #8E3700",
"+. c #933100",
"@. c #9A3C00",
"#. c #973700",
"$. c #8D2200",
"%. c #A72D00",
"&. c #9B4500",
"*. c #984601",
"=. c #944A1D",
"-. c #9C4E1D",
";. c #984B11",
":. c #9E501D",
">. c #834015",
",. c #A44900",
"<. c #B24D00",
"1. c #BA5300",
"2. c #B85A04",
"3. c #A4521E",
"4. c #A74F09",
"5. c #854625",
"6. c #8C4A26",
"7. c #884A28",
"8. c #954C23",
"9. c #9A4F21",
"0. c #9E5022",
"q. c #92512F",
"w. c #824D33",
"e. c #885236",
"r. c #945838",
"t. c #A35322",
"y. c #AB5B29",
"u. c #A95928",
"i. c #B25E2A",
"p. c #B15A23",
"a. c #A35E37",
"s. c #B6622E",
"d. c #BA642F",
"f. c #A4603B",
"g. c #AD653D",
"h. c #AA6036",
"j. c #B5673A",
"k. c #CB6400",
"l. c #CE6909",
"z. c #D26A06",
"x. c #D46D13",
"c. c #C7661B",
"v. c #C76927",
"b. c #C26A34",
"n. c #C66E39",
"m. c #C6703E",
"M. c #CC723C",
"N. c #CD7136",
"B. c #D3763D",
"V. c #D7783D",
"C. c #D8742E",
"Z. c #865B4B",
"A. c #A7674A",
"S. c #B96C43",
"D. c #A76A52",
"F. c #BC724D",
"G. c #977266",
"H. c #807B7A",
"J. c #A87866",
"K. c #B07E6E",
"L. c #CC7541",
"P. c #C57241",
"I. c #D17741",
"U. c #D57941",
"Y. c #DB7C43",
"T. c #E17F44",
"R. c #80807F",
"E. c #B28576",
"W. c #E48145",
"Q. c #D58966",
"!. c #E09877",
"~. c #767F81",
"^. c #848484",
"/. c #838B8C",
"(. c #8D8D8D",
"). c #8C9395",
"_. c #929393",
"`. c #9A9B9B",
"'. c #9A9999",
"]. c #9D8F8B",
"[. c #AA9C98",
"{. c #B6948A",
"}. c #B1A49F",
"|. c #9EA1A2",
" X c #A5A5A5",
".X c #AAABAB",
"XX c #B9AAA6",
"oX c #AFB1B1",
"OX c #B2B4B4",
"+X c #BCBCBD",
"@X c #B5B9BA",
"#X c #C39D92",
"$X c #D9A38F",
"%X c #C6A499",
"&X c #D4A898",
"*X c #EAAE97",
"=X c #E5AD98",
"-X c #CFB5AE",
";X c #E3B9AA",
":X c #D3C2BD",
">X c #BDC0C1",
",X c #C4C3C3",
"<X c #CBCCCC",
"1X c #CCD3D5",
"2X c #D3D4D4",
"3X c #DCDDDC",
"4X c #D7D6D5",
"5X c #DFD1CE",
"6X c #E5DBD8",
"7X c #F7E4DE",
"8X c #EBECEC",
"9X c #E5E4E3",
"0X c #F4E5E1",
"qX c #F8EAE6",
"wX c #EEF1F2",
"eX c #F4F4F4",
"rX c #FEFFFF",
"tX c #FEF7F5",
"yX c None",
/* pixels */
"yXyXyXyXyXyXyXyXyXyXyXyXyXyXyXyXyXyXyXyXyXyXyXyXyXyXyXyXyXyXyXyXyXyXyXyXyXyXyXyXyXyXyXyXyXyXyXyXyXyX",
"yXyXyXyXyXyXyXyXyXyXyXyXyXyXyXyXyXyXyXyXyXyXyXyXyXyXyXyXyXyXyXyXyXyXyXyXyXyXyXyXyXyXyXyXyXyXyXyXyXyX",
"yXyXyXyXyXyXyXyXyXyXyXyXyXyXyXyXyXyXyXyXyXyXyXyXyXyXyXyXyXyXyXyXyXyXyXyXyXyXyXyXyXyXyXyXyXyXyXyXyXyX",
"yXyXyXyXyXyXyXyXyXyXyXyXyXyXyXyXyXyXyXyXyXyXyXyXyXyXyXyXyXyXyXyXyXyXyXyXyXyXyXyXyXyXyXyXyXyXyXyXyXyX",
"yXyXyXyXyXyXyXyXyXyXyXyXyXyXyXyXyXyXyXyXyXyXyXyXyXyXyXyXyXyXyXyXyXyXyXyXyXyXyXyXyXyXyXyXyXyXyXyXyXyX",
"yXyXyXyXyXyXyXyXyXyXyXyXyXyXyXyXyXyXyXyXyXyXyXyXyXyXyXyXyXyXyXyXyXyXyXyXyXyXyXyXyXyXyXyXyXyXyXyXyXyX",
"yXyXyXyXyXyXyXyXyXyXyXyXyXyXyXyXyXyXyXyXyXyXyXyXyXyXyXyXyXyXyXyXyXyXyXyXyXyXyXyXyXyXyXyXyXyXyXyXyXyX",
"yXyXyXyXyXyXyXyXyXyXyXyXyXyXyXyX7 > ; yXyXyXyXyXyXyXyXyXyXyXyXyXyXyXyXyXyXyXyXyXyXyXyXyXyXyXyXyXyXyX",
"yXyXyXyXyXyXyXyXyXyXyXyXyXyXyX6 7 0 > , yXyXyXyXyXyXyXyXyXyXyXyXyXyXyXyXyXyXyXyXyXyXyXyXyXyXyXyXyXyX",
"yXyXyXyXyXyXyXyXyXyXyXyXyXyXyXw i m j j k yXyXyXyXyXyXyXyXyXyXyXyXyXyXyXyXyXyXyXyXyXyXyXyXyXyXyXyXyX",
"yXyXyX6 2 * * - ; ; yXyXyXyXyX2 9 g f f a < yXyXyXyXyXyXyXyXyXyXyXyXyXyXyXyXyXyXyXyXyXyXyXyXyXyXyXyX",
"yXyX7 4 N B V V N 9 yXyXyXyXyX- B Z.D.A._ 4 , yXyXyXyXyXyXyXyXyXyXyXyXyXyXyXyXyXyXyXyXyXyXyXyXyXyXyX",
"yXyX- > I A.g.a.7.Y m yXyXyXyX  ! [.:X-XE.x s 9 yXyXyXyXyXyXyXyXyXyXyXyXyXyXyXyXyXyXyXyXyXyXyXyXyXyX",
"yXyX* - e.m.U.b.t.5.n > yXyXyX  ^ <XeX0X#X+.d 8 < yXyXyXyXyXyXyXyXyXyXyXyXyXyXyXyXyXyXyXyXyXyXyXyXyX",
"yXyXyX- U j.L.s.9.D V ; - yXyX  ^ 1XrXtX%X+.f M < yXyXyXyXyXyXyXyXyXyXyXyXyXyXyXyXyXyXyXyXyXyXyXyXyX",
"yXyXyXyXyXU e.I m 4 - * * *     ~ 1XrXtX&XX.d v < yXyXyXyXyXyXyXyXyXyXyXyXyXyXyXyXyXyXyXyX      6 r ",
"yXyXyXyXyX- ; w v B B B V H h   ` ,XeX0X#X+.d v ; yXyXyXyXyXyXyXyXyXyXyXyXyXyXyXyXyXyXyXyXW Q W r r ",
"yXyXyXyXyX& < I r.h.f.f.h.g.f.4.D.%X:X-XE.@.l 9 < yXyXyXyXyXyXyXyXyXyXyXyXyXyX    yXyXyXW } _.| u o ",
"yXyXyXyXyX* B f.L.W.B.U.B.U.U.B.L.F.D.A.a.-.J M ; yXyXyXyXyXyXyXyXyXyXyXyXyX< =         ] `.OX(.W   ",
"yXyXyXyXyXc Y f.m.B.B.M.m.m.P.W.V.2.....&.8.L 9 - yXyXyXyXyXyXyXyXyXyXyXyXx L G.].|.|.`..X:X+X_.Q   ",
"yXyXyX2 m K 8.u.u.y.s.u.7.I r.P.V.v.&.*.;.9.L w - yXyXyXyXyXyXyXyXyXyXyX: o.2.$X6XwXeX8X3X2X@X(.!   ",
"yXyX- > Y 8.:.3.:.3.3.-.S 6 U m.U.b.3.-.3.9.5.b 0 yXyXyXyXyXyXyXyXyXyX: P 4.x.*X7XrXrXrX8X2X.XR.Q   ",
"yX5     . p f @.<.1.1.<.,.O.,.k.k.1.#.X.@.&.O.l x k yXyXyXyXyXyXyXyXV e.g.v.C.!.;X5X9X8X3X+XR.[ W yX",
"r 4 .       + *.k.z.z.l.l.l.l.x.z.1.@.X.@.&.&.&.o.n 2 yXyXyXyXyXyX* I j.V.T.Y.L.h.J.}.,XOX^.r . yXyX",
"o H | ).`.).`.XX=X*X=X*X*X*X*X*X=X&X%X{.E.J.K.E.G._ , X yXyXyXyXC U g.U.Y.W.Y.c.%.$.G.'././   yXyXyX",
"  / @X9XwXwX8X0X0X7X0X0X7X0XqXqXqXqX8X4X-XXXXXXX[.{ X yXyXyXyXV e.j.L.U.Y.W.Y.n.<.O.Z.{ ] yXyXyXyXyX",
"  ^ -XeXrXrXtXrXrXrXrXrXrXrXrXrXrXrXrXwX1XoXOX@X`. .. yXyXyX* V g.U.T.Y.U.U.U.m.s.=.z #   yXyXyXyXyX",
"yX^ |.<X4X<X2XwXrXrXrXrXrXrXrXwX9X8XwX1X.X/./.).~./ : O - - * B g.Y.W.W.U.M.b.s.y.-.z @   yXyXyXyXyX",
"yXyX/ ^ ^ 7 | <XrXrXrXrXrXrXeX4X>X,X,X.X| q 3 R u w > > 2 - * B a.I.T.Y.Y.j.u.:.3.-.K N < yXyXyXyXyX",
"yXyXyX        .X4X8X3X3X9X3X<XoX)._.`.^.) p + p a m n Z Z Z m Z r.j.m.M.n.s.-.=.8.7.Y v < yXyXyXyXyX",
"yXyXyXyXyXyXyX^._.'.^.| } } | ] ' ' ' ^ I o.o.o.>.6.6.6.6.6.6.7.L I e.y.i.p.t.8.K n b yXyXyXyXyXyXyX",
"yXyXyXyXyXyXyXyX    i W W W N c % @ % z 8.u.u.t.t.t.:.t.3.t.t.9.D 4 b J -.3.0.5.n ; yXyXyXyXyXyXyXyX",
"yXyXyXyXyXyXyXyX  [  X,X,X+X XJ.#.@.9.u.d.b.b.b.s.u.-.-.3.t.3.3.5.D S S F K K A b yXyXyXyXyXyXyXyXyX",
"yXyXyXyXyXyXyXyX  '.3XrXrXrX7X$Xk.l.I.I.I.I.U.Y.n.u.=.=.9.t.9.0.0.-.5.n 9 i N v yXyXyXyXyXyXyXyXyXyX",
"yXyXyXyXyXyXyX    (.1XwXrXtX7X;XQ.U.U.V.U.Y.Y.Y.B.b.i.t.t.9.:.0.3.3.6.n < - < yXyXyXyXyXyXyXyXyXyXyX",
"yXyXyXyXyXyXyX  o ^ } |.>X2X2X:XXXQ.j.2.N.Y.Y.T.Y.V.M.d.t.-.3.3.3.3.6.Z 1 < yXyXyXyXyXyXyXyXyXyXyXyX",
"yXyXyXyXyXyXyXr r o   # | .X@X@XoX].r.,.b.U.V.B.I.U.L.j.0.=.8.9.t.0.6.Z 2 yXyXyXyXyXyXyXyXyXyXyXyXyX",
"yXyXyXyXyXyXyXyXw a s g _ } /.).). .Z ;.N.Y.m.a.r.f.a.q.J F F J 8.3.8.A 2 yXyXyXyXyXyXyXyXyXyXyXyXyX",
"yXyXyXyXyXyXyX< > Z 8.-.L ! R Q Q e q w.M.V.g.G r b B M v 9 w b 5.0.8.Z > yXyXyXyXyXyXyXyXyXyXyXyXyX",
"yXyXyXyXyXyXyX; 5 Z e.q.z $         - I S.S.r.0 & * - - 1 1 < w A 7.7.C 0 yXyXyXyXyXyXyXyXyXyXyXyXyX",
"yXyXyXyXyXyXyX, 0 V ) _ G 6 X yXyXX 2 H _ Z.( r - 2 q w y r q i B P G B 4 yXyXyXyXyXyXyXyXyXyXyXyXyX",
"yXyXyXyXyXyXyX4 6 T Q ! W r 4 yXyXyX4 t R Q R r 4 4 w i t t r 4 w w y w 4 6 yXyXyXyXyXyXyXyXyXyXyXyX",
"yXyXyXyXyXyXyX4 6 T W T y w yXyXyXyX6 y E E e w yXyX8 r t r r 4 q e y y r 4 yXyXyXyXyXyXyXyXyXyXyXyX",
"yXyXyXyXyXyXyX8 8 u N r r yXyXyXyX6 w t y r w yXyXyXyX6 r w yXyXr 7 i t 4 8 yXyXyXyXyXyXyXyXyXyXyXyX",
"yXyXyXyXyXyXyXyX4 4 4 4 yXyXyXyXyXyX4 4 4 4 yXyXyXyXyXyX6 4 yXyXyX4 4 4 4 yXyXyXyXyXyXyXyXyXyXyXyXyX",
"yXyXyXyXyXyXyXyXyXyXyXyXyXyXyXyXyXyXyXyXyXyXyXyXyXyXyXyXyXyXyXyXyXyXyXyXyXyXyXyXyXyXyXyXyXyXyXyXyXyX",
"yXyXyXyXyXyXyXyXyXyXyXyXyXyXyXyXyXyXyXyXyXyXyXyXyXyXyXyXyXyXyXyXyXyXyXyXyXyXyXyXyXyXyXyXyXyXyXyXyXyX",
"yXyXyXyXyXyXyXyXyXyXyXyXyXyXyXyXyXyXyXyXyXyXyXyXyXyXyXyXyXyXyXyXyXyXyXyXyXyXyXyXyXyXyXyXyXyXyXyXyXyX",
"yXyXyXyXyXyXyXyXyXyXyXyXyXyXyXyXyXyXyXyXyXyXyXyXyXyXyXyXyXyXyXyXyXyXyXyXyXyXyXyXyXyXyXyXyXyXyXyXyXyX",
"yXyXyXyXyXyXyXyXyXyXyXyXyXyXyXyXyXyXyXyXyXyXyXyXyXyXyXyXyXyXyXyXyXyXyXyXyXyXyXyXyXyXyXyXyXyXyXyXyXyX"
};
