/* XPM */
static char *result[] = {
/* columns rows colors chars-per-pixel */
"50 50 219 2 ",
"   c #000000",
".  c #070607",
"X  c #03161A",
"o  c #1B1B18",
"O  c #000611",
"+  c #3E0000",
"@  c #321907",
"#  c #321D13",
"$  c #200B08",
"%  c #362012",
"&  c #00082B",
"*  c #001B2C",
"=  c #001728",
"-  c #00252D",
";  c #00292F",
":  c #09272B",
">  c #1B2C2E",
",  c #18282A",
"<  c #002A31",
"1  c #052831",
"2  c #192D30",
"3  c #183236",
"4  c #2D2D2C",
"5  c #242C2C",
"6  c #312E2C",
"7  c #2E302F",
"8  c #31302E",
"9  c #3D312C",
"0  c #262F30",
"q  c #243234",
"w  c #2C3233",
"e  c #29393B",
"r  c #333333",
"t  c #383837",
"y  c #343B3B",
"u  c #3B3C3B",
"i  c #383634",
"p  c #460000",
"a  c #4A1C00",
"s  c #570900",
"d  c #6C0200",
"f  c #760300",
"g  c #6B1700",
"h  c #44220B",
"j  c #592907",
"k  c #4C2B1B",
"l  c #7D3705",
"z  c #743A17",
"x  c #6B3209",
"c  c #432E27",
"v  c #43342E",
"b  c #4B352C",
"n  c #5B3A2C",
"m  c #543528",
"M  c #453731",
"N  c #443934",
"B  c #4C3931",
"V  c #523B32",
"C  c #5C3D31",
"Z  c #633D2E",
"A  c #6A3F2C",
"S  c #6B3C26",
"D  c #723E26",
"F  c #703F28",
"G  c #5B433A",
"H  c #4E403B",
"J  c #7C4326",
"K  c #7D452A",
"L  c #79462E",
"P  c #674434",
"I  c #724835",
"U  c #764A35",
"Y  c #6B402C",
"T  c #233D42",
"R  c #3A4446",
"E  c #2B4145",
"W  c #444544",
"Q  c #484A4A",
"!  c #514947",
"~  c #49585C",
"^  c #595A5A",
"/  c #545656",
"(  c #6B4F44",
")  c #6A524A",
"_  c #77564A",
"`  c #655B58",
"'  c #4B6267",
"]  c #5D686A",
"[  c #626261",
"{  c #736C6B",
"}  c #7D7D7D",
"|  c #767777",
" . c #6E7070",
".. c #931900",
"X. c #912B00",
"o. c #823A02",
"O. c #8E3700",
"+. c #933100",
"@. c #9A3C00",
"#. c #973700",
"$. c #8D2200",
"%. c #A72D00",
"&. c #9B4500",
"*. c #984601",
"=. c #944A1D",
"-. c #9C4E1D",
";. c #984B11",
":. c #9E501D",
">. c #834015",
",. c #A44900",
"<. c #B24D00",
"1. c #BA5300",
"2. c #B85A04",
"3. c #A4521E",
"4. c #A74F09",
"5. c #854625",
"6. c #8C4A26",
"7. c #884A28",
"8. c #954C23",
"9. c #9A4F21",
"0. c #9E5022",
"q. c #92512F",
"w. c #824D33",
"e. c #885236",
"r. c #945838",
"t. c #A35322",
"y. c #AB5B29",
"u. c #A95928",
"i. c #B25E2A",
"p. c #B15A23",
"a. c #A35E37",
"s. c #B6622E",
"d. c #BA642F",
"f. c #A4603B",
"g. c #AD653D",
"h. c #AA6036",
"j. c #B5673A",
"k. c #CB6400",
"l. c #CE6909",
"z. c #D26A06",
"x. c #D46D13",
"c. c #C7661B",
"v. c #C76927",
"b. c #C26A34",
"n. c #C66E39",
"m. c #C6703E",
"M. c #CC723C",
"N. c #CD7136",
"B. c #D3763D",
"V. c #D7783D",
"C. c #D8742E",
"Z. c #865B4B",
"A. c #A7674A",
"S. c #B96C43",
"D. c #A76A52",
"F. c #BC724D",
"G. c #977266",
"H. c #807B7A",
"J. c #A87866",
"K. c #B07E6E",
"L. c #CC7541",
"P. c #C57241",
"I. c #D17741",
"U. c #D57941",
"Y. c #DB7C43",
"T. c #E17F44",
"R. c #80807F",
"E. c #B28576",
"W. c #E48145",
"Q. c #D58966",
"!. c #E09877",
"~. c #767F81",
"^. c #848484",
"/. c #838B8C",
"(. c #8D8D8D",
"). c #8C9395",
"_. c #929393",
"`. c #9A9B9B",
"'. c #9A9999",
"]. c #9D8F8B",
"[. c #AA9C98",
"{. c #B6948A",
"}. c #B1A49F",
"|. c #9EA1A2",
" X c #A5A5A5",
".X c #AAABAB",
"XX c #B9AAA6",
"oX c #AFB1B1",
"OX c #B2B4B4",
"+X c #BCBCBD",
"@X c #B5B9BA",
"#X c #C39D92",
"$X c #D9A38F",
"%X c #C6A499",
"&X c #D4A898",
"*X c #EAAE97",
"=X c #E5AD98",
"-X c #CFB5AE",
";X c #E3B9AA",
":X c #D3C2BD",
">X c #BDC0C1",
",X c #C4C3C3",
"<X c #CBCCCC",
"1X c #CCD3D5",
"2X c #D3D4D4",
"3X c #DCDDDC",
"4X c #D7D6D5",
"5X c #DFD1CE",
"6X c #E5DBD8",
"7X c #F7E4DE",
"8X c #EBECEC",
"9X c #E5E4E3",
"0X c #F4E5E1",
"qX c #F8EAE6",
"wX c #EEF1F2",
"eX c #F4F4F4",
"rX c #FEFFFF",
"tX c #FEF7F5",
"yX c None",
/* pixels */
"yXyXyXyXyXyXyXyXyXyXyXyXyXyXyXyXyXyXyXyXyXyXyXyXyXyXyXyXyXyXyXyXyXyXyXyXyXyXyXyXyXyXyXyXyXyXyXyXyXyX",
"yXyXyXyXyXyXyXyXyXyXyXyXyXyXyXyXyXyXyXyXyXyXyXyXyXyXyXyXyXyXyXyXyXyXyXyXyXyXyXyXyXyXyXyXyXyXyXyXyXyX",
"yXyXyXyXyXyXyXyXyXyXyXyXyXyXyXyXyXyXyXyXyXyXyXyXyXyXyXyXyXyXyXyXyXyXyXyXyXyXyXyXyXyXyXyXyXyXyXyXyXyX",
"yXyXyXyXyXyXyXyXyXyXyXyXyXyXyXyXyXyXyXyXyXyXyXyXyXyXyXyXyXyXyXyXyXyXyXyXyXyXyXyXyXyXyXyXyXyXyXyXyXyX",
"yXyXyXyXyXyXyXyXyXyXyXyXyXyXyXyXyXyXyXyXyXyXyXyXyXyXyXyXyXyXyXyXyXyXyXyXyXyXyXyXyXyXyXyXyXyXyXyXyXyX",
"yXyXyXyXyXyXyXyXyXyXyXyXyXyXyXyXyXyXyXyXyXyXyXyXyXyXyXyXyXyXyXyXyXyXyXyXyXyXyXyXyXyXyXyXyXyXyXyXyXyX",
"yXyXyXyXyXyXyXyXyXyXyXyXyXyXyXyXyXyXyXyXyXyXyXyXyXyXyXyXyXyXyXyXyXyXyXyXyXyXyXyXyXyXyXyXyXyXyXyXyXyX",
"yXyXyXyXyXyXyXyXyXyXyXyXyXyXyXyXyXyXyXyXyXyXyXyXyXyXyXyXyXyXyX; > 7 yXyXyXyXyXyXyXyXyXyXyXyXyXyXyXyX",
"yXyXyXyXyXyXyXyXyXyXyXyXyXyXyXyXyXyXyXyXyXyXyXyXyXyXyXyXyXyX2 > 4 4 7 yXyXyXyXyXyXyXyXyXyXyXyXyXyXyX",
"yXyXyXyXyXyXyXyXyXyXyXyXyXyXyXyXyXyXyXyXyXyXyXyXyXyXyXyXyXk j j m i q yXyXyXyXyXyXyXyXyXyXyXyXyXyXyX",
"yXyXyXyXyXyXyXyXyXyXyXyXyXyXyXyXyXyXyXyXyXyXyXyXyXyXyXyX< p d ..g v 3 yXyXyXyXyX; ; - * * > 8 yXyXyX",
"yXyXyXyXyXyXyXyXyXyXyXyXyXyXyXyXyXyXyXyXyXyXyXyXyXyXyX, 7 ( D.A.Z.N - yXyXyXyXyX9 B V V B u 4 4 yXyX",
"yXyXyXyXyXyXyXyXyXyXyXyXyXyXyXyXyXyXyXyXyXyXyXyXyXyX9 s x E.-X<X[.!   yXyXyXyXm S 7.a.g.A.I > - yXyX",
"yXyXyXyXyXyXyXyXyXyXyXyXyXyXyXyXyXyXyXyXyXyXyXyXyX< 9 d +.{.7XtX<X^   yXyXyX> n 5.t.n.U.P.e.; * yXyX",
"yXyXyXyXyXyXyXyXyXyXyXyXyXyXyXyXyXyXyXyXyXyXyXyXyX< M f +.&XtXrX1X^   yXyX- ; V D 8.d.m.j.U - yXyXyX",
"r 4       yXyXyXyXyXyXyXyXyXyXyXyXyXyXyXyXyXyXyXyX< M d X.%XtXrX1X~     * * * - 4 m I w.w.yXyXyXyXyX",
"7 i W Q W yXyXyXyXyXyXyXyXyXyXyXyXyXyXyXyXyXyXyXyX< c d +.#X0XeX:X` . h B V B B B M w ; - yXyXyXyXyX",
"o u | _.^.W yXyXyX    yXyXyXyXyXyXyXyXyXyXyXyXyXyX< v l *.E.-X-X}.D.,.h.g.g.f.f.h.r.U < & yXyXyXyXyX",
"  W (.oX X^         = ; yXyXyXyXyXyXyXyXyXyXyXyXyX< v J -.a.D.D.F.L.B.U.U.U.U.U.Y.M.f.N = yXyXyXyXyX",
"  Q _.@X:X.X`.|.|.].G.L x yXyXyXyXyXyXyXyXyXyXyXyX; 9 U 8.&.....2.V.W.I.j.M.B.B.B.n.h.I v yXyXyXyXyX",
"  Q _.@X1X6X8XwXwX6X$X2.o.: yXyXyXyXyXyXyXyXyXyXyX- 7 L 9.;.&.,.v.V.P.r.I 7.y.i.i.y.t.9.K n > yXyXyX",
"  W H..X2XeXrXrXrX7X=Xx.<.P : yXyXyXyXyXyXyXyXyXyX0 b K 9.9.=.t.b.V.j.U 6 S -.3.:.:.3.-.6.Z > - yXyX",
"yXW [ R.@X3X8X0X5X;X!.C.v.j.e.V yXyXyXyXyXyXyXyXk x l O.&.@.X.+.1.z.k.,.O.,.<.1.1.<.@.g p .     5 yX",
"yXyX. i ^.OX,X}.J.g.P.U.Y.V.g.I * yXyXyXyXyXyX2 n o.@.,.&.@.+.@.1.l.x.l.l.l.l.z.x.k.*.p       . 4 r ",
"yXyXyX  / /.'.G.$.%.c.Y.W.W.U.g.I C yXyXyXyXX , _ G.E.K.J.E.[.{.&X=X=X=X*X=X*X*X=X=X%X'.).'._.| W o ",
"yXyXyXyXyX] { Z.*.<.n.Y.Y.Y.U.L.g.r.B yXyXyXyXo { [.XXXXXX-X6XqXqXqXqXqX0X0X0X0X0X0X0X9XwXeX9XOX/   ",
"yXyXyXyXyX  # z =.i.n.U.U.U.Y.W.U.g.V * yXyXyX. { |.@XOXoX<XwXrXrXrXrXrXrXrXrXrXrXrXrXrXrXrXeX,X^   ",
"yXyXyXyXyX  @ z -.i.i.b.L.U.W.W.Y.g.B = - ; O = ~ } )././.oX4X8X8X9XeXrXrXrXrXrXrXrXwX2X<X3X,X X^ yX",
"yXyXyXyXyX< M K 9.t.0.u.b.U.Y.T.U.a.B * - > > > w R R q q | .X<X,X+X4XeXrXrXrXrXrXrX<X .6 ^ ^ / yXyX",
"yXyXyXyXyX< v A 5.8.=.:.s.n.M.m.g.r.Z m n Z Z Z m a p + + / ^.'.)._..X<X6X3X3X3X8X3X.X        yXyXyX",
"yXyXyXyXyXyXyXb n K 8.3.p.i.y.e.I L 7.6.6.6.6.6.>.>.o.o.o.I ` ' ' ' ] | R.~.} ^.'._.H.yXyXyXyXyXyXyX",
"yXyXyXyXyXyXyXyX; n 5.9.t.-.J b 6 D 0.3.t.0.t.:.t.u.3.u.u.6.z # @ h 9 N W W W i     yXyXyXyXyXyXyXyX",
"yXyXyXyXyXyXyXyXyXb A 5.L A S S F 5.-.3.t.t.:.-.p.i.b.n.b.i.y.-.@.@.J.}.@X,X,X X[   yXyXyXyXyXyXyXyX",
"yXyXyXyXyXyXyXyXyXyX9 M i 9 Z 5.9.t.t.-.:.9.=.=.u.b.U.U.U.U.U.B.k.k.$X6XrXrXrX3X`.  yXyXyXyXyXyXyXyX",
"yXyXyXyXyXyXyXyXyXyXyX; ; < m 6.3.3.0.-.0.t.t.y.b.B.T.T.Y.V.N.I.L.Q.;X0XrXrXeX<X(.    yXyXyXyXyXyXyX",
"yXyXyXyXyXyXyXyXyXyXyXyX; : Z 6.t.3.3.3.:.t.d.B.U.Y.T.Y.T.N.2.S.E.-X-X6X2X+X|.~.^ o   yXyXyXyXyXyXyX",
"yXyXyXyXyXyXyXyXyXyXyXyXyX2 Z 6.0.0.9.8.8.9.d.L.U.I.U.U.U.b.,.r.].OX>X@X X} #   o w y yXyXyXyXyXyXyX",
"yXyXyXyXyXyXyXyXyXyXyXyXyX> A 8.t.8.J F S L q.a.a.r.a.P.Y.N.;.P { _.)./.} _ g s a 7 yXyXyXyXyXyXyXyX",
"yXyXyXyXyXyXyXyXyXyXyXyXyX> A 8.0.5.b r 9 v M B B 7 Z g.U.m.w.0 e W Q R ! L 9.=.Z > < yXyXyXyXyXyXyX",
"yXyXyXyXyXyXyXyXyXyXyXyXyX5 C w.7.Y 7 < 1 1 < - * & q r.S.S.I - .       $ z q.e.P 5 < yXyXyXyXyXyXyX",
"yXyXyXyXyXyXyXyXyXyXyXyXyX4 N C P B r q y r w q 2 - i ( Z._ G 2 X yXyXX 8 G ) ( N 7 , yXyXyXyXyXyXyX",
"yXyXyXyXyXyXyXyXyXyXyXyX6 7 y y y w 7 r t t i 4 4 4 w R R R y 4 yXyXyX4 r R Q W T 7 4 yXyXyXyXyXyXyX",
"yXyXyXyXyXyXyXyXyXyXyXyX6 8 y e q q 4 r i i r r yXyXw e E E y 8 yXyXyXyXr y R R N 8 6 yXyXyXyXyXyXyX",
"yXyXyXyXyXyXyXyXyXyXyXyX8 4 i i 7 r yXyXw r 4 yXyXyXyXr w u t 4 4 yXyXyXyXr r t u 8 8 yXyXyXyXyXyXyX",
"yXyXyXyXyXyXyXyXyXyXyXyXyX7 6 4 4 yXyXyX4 4 yXyXyXyXyXyX4 4 4 4 yXyXyXyXyXyX4 4 4 6 yXyXyXyXyXyXyXyX",
"yXyXyXyXyXyXyXyXyXyXyXyXyXyXyXyXyXyXyXyXyXyXyXyXyXyXyXyXyXyXyXyXyXyXyXyXyXyXyXyXyXyXyXyXyXyXyXyXyXyX",
"yXyXyXyXyXyXyXyXyXyXyXyXyXyXyXyXyXyXyXyXyXyXyXyXyXyXyXyXyXyXyXyXyXyXyXyXyXyXyXyXyXyXyXyXyXyXyXyXyXyX",
"yXyXyXyXyXyXyXyXyXyXyXyXyXyXyXyXyXyXyXyXyXyXyXyXyXyXyXyXyXyXyXyXyXyXyXyXyXyXyXyXyXyXyXyXyXyXyXyXyXyX",
"yXyXyXyXyXyXyXyXyXyXyXyXyXyXyXyXyXyXyXyXyXyXyXyXyXyXyXyXyXyXyXyXyXyXyXyXyXyXyXyXyXyXyXyXyXyXyXyXyXyX",
"yXyXyXyXyXyXyXyXyXyXyXyXyXyXyXyXyXyXyXyXyXyXyXyXyXyXyXyXyXyXyXyXyXyXyXyXyXyXyXyXyXyXyXyXyXyXyXyXyXyX"
};
