/* XPM */
static char *result[] = {
/* columns rows colors chars-per-pixel */
"50 50 222 2 ",
"   c black",
".  c #00080B",
"X  c #00161A",
"o  c #1A1A18",
"O  c #0F060D",
"+  c #220000",
"@  c #350000",
"#  c #3F1400",
"$  c #29231F",
"%  c #00152B",
"&  c #001C2C",
"*  c #001923",
"=  c #00032B",
"-  c #00232D",
";  c #012A2F",
":  c #0C2B2F",
">  c #122B2E",
",  c #182B2E",
"<  c #1A2425",
"1  c #002530",
"2  c #012B31",
"3  c #0A2D32",
"4  c #0F3439",
"5  c #242D2E",
"6  c #2D2D2C",
"7  c #252524",
"8  c #322E2C",
"9  c #362923",
"0  c #33312E",
"q  c #3A312E",
"w  c #242F30",
"e  c #2B3232",
"r  c #263637",
"t  c #333332",
"y  c #3C3633",
"u  c #353A39",
"i  c #393A39",
"p  c #450200",
"a  c #4A1704",
"s  c #6C0000",
"d  c #760000",
"f  c #4B2A1A",
"g  c #5D3017",
"h  c #772D00",
"j  c #783607",
"k  c #6C3918",
"l  c #472E24",
"z  c #44332D",
"x  c #4A342D",
"c  c #53372C",
"v  c #5C3B2D",
"b  c #573629",
"n  c #423631",
"m  c #4A3730",
"M  c #4B3A33",
"N  c #453B36",
"B  c #533B31",
"V  c #5B3C30",
"C  c #6C3B25",
"Z  c #673D2A",
"A  c #603F32",
"S  c #7C411F",
"D  c #5F4032",
"F  c #6E412C",
"G  c #7C452B",
"H  c #7A4429",
"J  c #634132",
"K  c #6A4635",
"L  c #764934",
"P  c #754C3A",
"I  c #7F5039",
"U  c #003B43",
"Y  c #384547",
"T  c #4C4C4B",
"R  c #464847",
"E  c #46575B",
"W  c #5B5C5C",
"Q  c #525D5F",
"!  c #504F4E",
"~  c #6E5248",
"^  c #635B59",
"/  c #744F42",
"(  c #7F6258",
")  c #5A6567",
"_  c #5A6E73",
"`  c #6D6E6D",
"'  c #636B6C",
"]  c #757373",
"[  c #7C7C7C",
"{  c #73706F",
"}  c #8D0700",
"|  c #8E1300",
" . c #932B00",
".. c #833400",
"X. c #873E00",
"o. c #963A00",
"O. c #983A00",
"+. c #8E2F00",
"@. c #A53600",
"#. c #954300",
"$. c #9D4A03",
"%. c #87451D",
"&. c #9B4C14",
"*. c #9C4E1D",
"=. c #90491F",
"-. c #9E511F",
";. c #8F4303",
":. c #A44C01",
">. c #AC4B00",
",. c #B44D00",
"<. c #AA5204",
"1. c #BA5508",
"2. c #A4531F",
"3. c #A8541E",
"4. c #B05711",
"5. c #834524",
"6. c #8D4A26",
"7. c #85492A",
"8. c #894A2A",
"9. c #884722",
"0. c #934D24",
"q. c #994E22",
"w. c #9E5021",
"e. c #9C552C",
"r. c #8B5539",
"t. c #865236",
"y. c #9B5D3C",
"u. c #945838",
"i. c #824C34",
"p. c #A35322",
"a. c #AC5D2B",
"s. c #AA5825",
"d. c #B25D28",
"f. c #A55D36",
"g. c #B7632E",
"h. c #AD643B",
"j. c #A5603A",
"k. c #B2663B",
"l. c #B6693D",
"z. c #BD6D3E",
"x. c #BA6532",
"c. c #C65700",
"v. c #C9630E",
"b. c #CC6B24",
"n. c #C46B35",
"m. c #C46E3B",
"M. c #CA6D33",
"N. c #CB713A",
"B. c #D3763E",
"V. c #D37437",
"C. c #D1702E",
"Z. c #8E5A43",
"A. c #A25F42",
"S. c #94634F",
"D. c #A76445",
"F. c #A76B53",
"G. c #BB734F",
"H. c #8E7770",
"J. c #B47D67",
"K. c #A97762",
"L. c #CD7541",
"P. c #C67242",
"I. c #D17741",
"U. c #D57942",
"Y. c #DB7C43",
"T. c #CA7D57",
"R. c #E07E43",
"E. c #BA8775",
"W. c #AF8273",
"Q. c #E28248",
"!. c #CC8464",
"~. c #DE8D66",
"^. c #D68A66",
"/. c #E38F66",
"(. c #7D8182",
"). c #888A8A",
"_. c #988D8A",
"`. c #929292",
"'. c #9B9C9C",
"]. c #92999B",
"[. c #8E9596",
"{. c #A6918B",
"}. c #B79489",
"|. c #B39B94",
" X c #AB8E86",
".X c #BAA098",
"XX c #9B9FA0",
"oX c #9EA4A6",
"OX c #A2A3A3",
"+X c #ABABAB",
"@X c #A6ACAE",
"#X c #B3B3B3",
"$X c #BCBCBC",
"%X c #AEB6B8",
"&X c #C19789",
"*X c #C7A297",
"=X c #DCA692",
"-X c #CDBAB4",
";X c #D6BBB3",
":X c #C8B0A9",
">X c #DAC1BB",
",X c #BEC1C2",
"<X c #CBCCCC",
"1X c #C5C6C6",
"2X c #D9CDC9",
"3X c #D4D4D4",
"4X c #DDDBDB",
"5X c #CCD1D2",
"6X c #E8D2CA",
"7X c #F1D0C5",
"8X c #F3D3C9",
"9X c #E4D8D4",
"0X c #E9CEC5",
"qX c #E4E4E4",
"wX c #ECECEC",
"eX c #F3EFEE",
"rX c #F2F3F4",
"tX c #F6F9FA",
"yX c #FEFEFD",
"uX c #F6F6F7",
"iX c #EEF1F2",
"pX c None",
/* pixels */
"pXpXpXpXpXpXpXpXpXpXpXpXpXpXpXpXpXpXpXpXpXpXpXpXpXpXpXpXpXpXpXpXpXpXpXpXpXpXpXpXpXpXpXpXpXpXpXpXpXpX",
"pXpXpXpXpXpXpXpXpXpXpXpXpXpXpXpXpXpXpXpXpXpXpXpXpXpXpXpXpXpXpXpXpXpXpXpXpXpXpXpXpXpXpXpXpXpXpXpXpXpX",
"pXpXpXpXpXpXpXpXpXpXpXpXpXpXpXpXpXpXpXpXpXpXpXpXpXpXpXpXpXpXpXpXpXpXpXpXpXpXpXpXpXpXpXpXpXpXpXpXpXpX",
"pXpXpXpXpXpXpXpXpXpXpXpXpXpXpXpXpXpXpXpXpXpXpXpXpXpXpXpXpXpXpXpXpXpXpXpXpXpXpXpXpXpXpXpXpXpXpXpXpXpX",
"pXpXpXpXpXpXpXpXpXpXpXpXpXpXpXpXpXpXpXpXpXpXpXpXpXpXpXpXpXpXpXpXpXpXpXpXpXpXpXpXpXpXpXpXpXpXpXpXpXpX",
"pXpXpXpXpXpXpXpXpXpXpXpXpXpXpXpXpXpXpXpXpXpXpXpXpXpXpXpXpXpXpXpXpXpXpXpXpXpXpXpXpXpXpXpXpXpXpXpXpXpX",
"pXpXpXpXpXpXpXpXpXpXpXpXpXpXpXpXpXpXpXpXpXpXpXpXpXpXpXpXpXpXpXpXpXpXpXpXpXpXpXpXpXpXpXpXpXpXpXpXpXpX",
"pXpXpXpXpXpXpXpXpXpXpXpXpXpXpXpXpXpXpXpXpXpXpXpXpXpXpX; 2 2 - & % pXpXpXpXpXpX; - % - 5 0 pXpXpXpXpX",
"pXpXpXpXpXpXpXpXpXpXpXpXpXpXpXpXpXpXpXpXpXpXpXpXpXpXy n n q y M n pXpXpXpXpXq n N m n i 0 pXpXpXpXpX",
"pXpXpXpXpXpXpXpXpXpXpXpXpXpXpXpXpXpXpXpXpXpXpXpXpXx Z H h s ..a.A.t.pXpXpXc Z 8.f.h.y.K ; pXpXpXpXpX",
"pXpXpXpXpXpXpXpXpXpXpXpXpXpXpXpXpXpXpXpXpXpXpXpX2 c 7.*.o.+.<.V.L.y.0 & ; c 5.p.n.B.z.P - pXpXpXpXpX",
"pXpXpXpXpXpXpXpXpXpXpXpXpXpXpXpXpXpXpXpXpXpXpXpX; v X.f.E.*X*X!.g.7.w 1 2 z C 0.k.m.k.K & pXpXpXpXpX",
"pXpXpXpXpXpXpXpXpXpXpXpXpXpXpXpXpXpXpXpXpXpXpXpX2 l d f.;XeX9X{.p   - & - - < z J L L pXpXpXpXpXpXpX",
"pXpXpXpXpXpXpXpXpXpXpXpXpXpXpXpXpXpXpXpXpXpXpXpX; b d f.>XuXqX`.+ p J J J D J B y - & pXpXpXpXpXpXpX",
"pXpXpXpXpX    pXpXpXpXpXpXpXpXpXpXpXpXpXpXpXpXpX2 b ..f.}.-X:XJ.s.a.l.l.k.k.l.h.I 2 = pXpXpXpXpXpXpX",
"pXpXpXpXpXt t pXpXpXpXpXpXpXpXpXpXpXpXpXpXpXpXpX; B 6.*.&.&.a.M.Y.U.U.U.U.Y.Y.I.j.m & pXpXpXpXpXpXpX",
"pXpXpXpXW ] ] W pXpXpXpXpXpXpXpXpXpXpXpXpXpXpXpX1 M i.*.O.| >.C.Q.G.h.k.x.M.N.n.a.G v x pXpXpXpXpXpX",
"pXpXpX  ` OXOX{ o pXpXpXpXpXpXpXpXpXpXpXpXpXpXpX- M 7.p.*.&.d.B.L.y.x C q.s.p.2.w.w.5.c ; pXpXpXpXpX",
"pXpXT ' +X<X1X`.O   pXpXpXpXpXpXpXpXpXpXpXpXpXl l C %.:.$.O.4.C.V.s.C j $.<.<.<.:.#.j f X * pXpXpXpX",
"  T (.OX3XeXqXOX  pXpXpXpXpXpXpXpXpXpXpXpXpXw g ..o.O.O. .} @.c.c.c.<.,.1.c.c.1. .p         t pXpXpX",
"  ! ).#XqXyXrX+X    pXpXpXpXpXpXpXpXpXpXpX- 6 P A.D.A.A.A.F.K.T.~.~.~.~.^.~./.^.K.^ E ) W R 6 7 pXpX",
"X R S. X9XyXtX@X    % & % pXpXpXpXpXpXpXpX  7 { {.|.|.|.-X2X6X8X8X8X8X7X7X7X7X7X2X<X5X3X1X`.6   pXpX",
"; z s *.;XuXrXoX    , , , , pXpXpXpXpXpXpX  7 [ +X-X#X$X4XtXyXyXyXyXyXyXyXyXyXyXyXyXyXyXeX+Xo   pXpX",
"3 l s o.}.9X2X}.%.X.r.u.A.t.L pXpXpXpXpXpX  < ' [.oX].oX<XiXtXrXrXyXyXyXyXyXyXyXtXqXqXrX3X'.o pXpXpX",
"3 z j *.F.W.E.T.m.m.N.L.U.z.r.6 & ; ; ; ; - - Y E Q Y _ XX<X3X1X4XiXyXyXyXyXyXyX3X`.] ).[ ` pXpXpXpX",
"3 z 7.q.O.| O.b.Q.Q.Y.Y.R.N.u.6 : M V c c B c f # @ + # ] '.OX'.+X5XwXwXwXwXuXqX+X        pXpXpXpXpX",
"3 m 7.p.$.o.>.n.R.Q.R.U.M.a.L : x G 8.8.7.7.7.%.j j h j ~ ) _ ) ` (.`.`.`.'.+XOX).pXpXpXpXpXpXpXpXpX",
"; z H q.*.*.s.n.U.Y.U.m.a.%.v q Z q.2.2.w.2.*.p.p.p.p.p.H l < 9 9 8 t u t 6 o   pXpXpXpXpXpXpXpXpXpX",
"pXz Z G 0.q.s.g.n.n.n.a.8.C C F 8.w.2.p.p.*.2.d.n.n.n.x.d.w.#.+.y. X#X$X-XOX)   pXpXpXpXpXpXpXpXpXpX",
"pXpX5 z G 0.3.s.p.s.s.0.b x H q.2.*.w.w.*.*.*.g.N.Y.U.I.I.I.C.c.^.0XuXyXyXqX'.  pXpXpXpXpXpXpXpXpXpX",
"pXpXpX2 b 5.0.6.9.9.9.Z 5 q 5.p.3.w.q.2.w.0.9.e.k.m.I.Y.B.B.U.Q.=X9XtXtXiX3X{.a @ pXpXpXpXpXpXpXpXpX",
"pXpXpXpXm b A V v v v m w M 7.2.3.w.w.2.*.5.b x c t.m.R.b.4.J.|.-X3X3X,XoXH.S.;.j q pXpXpXpXpXpXpXpX",
"pXpXpXpXpX: > > > 3 : 3 ; x H q.w.w.w.w.6.F w 2 3 L z.U.v.O.H.OX#X%X@X(.* + ..e.t.n ; pXpXpXpXpXpXpX",
"pXpXpXpXpXpXpXpXpXpXpXpXpXpXA C 6.w.w.5.J N Y ~ y.z.U.Y.n.C ^ [ ).).[ W . + F / K i , pXpXpXpXpXpXpX",
"pXpXpXpXpXpXpXpXpXpXpXpXpXpX; 8 G w.0.Z w U T S.P.Y.R.B.f.B - w t t t 6 6 i T ! R t 6 pXpXpXpXpXpXpX",
"pXpXpXpXpXpXpXpXpXpXpXpXpXpX1 > J G G x 2 U Y Z.D.m.m.h.r.i .           7 u Y Y Y t 6 pXpXpXpXpXpXpX",
"pXpXpXpXpXpXpXpXpXpXpXpXpXpX5 0 N D N y e e i M J K P V V pXpXpXpXpXpXpXpXpXt i i t 6 pXpXpXpXpXpXpX",
"pXpXpXpXpXpXpXpXpXpXpXpXpXpX6 0 r r r r 0 8 6 - - & & & pXpXpXpXpXpXpXpXpXpX7 6 0 6 0 pXpXpXpXpXpXpX",
"pXpXpXpXpXpXpXpXpXpXpXpXpXpX6 t u u e e pXpXpXpXpXpXpXpXpXpXpXpXpXpXpXpXpXpXpXpXpXpXpXpXpXpXpXpXpXpX",
"pXpXpXpXpXpXpXpXpXpXpXpXpXpXe 8 t 8 6 pXpXpXpXpXpXpXpXpXpXpXpXpXpXpXpXpXpXpXpXpXpXpXpXpXpXpXpXpXpXpX",
"pXpXpXpXpXpXpXpXpXpXpXpXpXpXpXpX8 6 pXpXpXpXpXpXpXpXpXpXpXpXpXpXpXpXpXpXpXpXpXpXpXpXpXpXpXpXpXpXpXpX",
"pXpXpXpXpXpXpXpXpXpXpXpXpXpXpXpXpXpXpXpXpXpXpXpXpXpXpXpXpXpXpXpXpXpXpXpXpXpXpXpXpXpXpXpXpXpXpXpXpXpX",
"pXpXpXpXpXpXpXpXpXpXpXpXpXpXpXpXpXpXpXpXpXpXpXpXpXpXpXpXpXpXpXpXpXpXpXpXpXpXpXpXpXpXpXpXpXpXpXpXpXpX",
"pXpXpXpXpXpXpXpXpXpXpXpXpXpXpXpXpXpXpXpXpXpXpXpXpXpXpXpXpXpXpXpXpXpXpXpXpXpXpXpXpXpXpXpXpXpXpXpXpXpX",
"pXpXpXpXpXpXpXpXpXpXpXpXpXpXpXpXpXpXpXpXpXpXpXpXpXpXpXpXpXpXpXpXpXpXpXpXpXpXpXpXpXpXpXpXpXpXpXpXpXpX",
"pXpXpXpXpXpXpXpXpXpXpXpXpXpXpXpXpXpXpXpXpXpXpXpXpXpXpXpXpXpXpXpXpXpXpXpXpXpXpXpXpXpXpXpXpXpXpXpXpXpX",
"pXpXpXpXpXpXpXpXpXpXpXpXpXpXpXpXpXpXpXpXpXpXpXpXpXpXpXpXpXpXpXpXpXpXpXpXpXpXpXpXpXpXpXpXpXpXpXpXpXpX",
"pXpXpXpXpXpXpXpXpXpXpXpXpXpXpXpXpXpXpXpXpXpXpXpXpXpXpXpXpXpXpXpXpXpXpXpXpXpXpXpXpXpXpXpXpXpXpXpXpXpX",
"pXpXpXpXpXpXpXpXpXpXpXpXpXpXpXpXpXpXpXpXpXpXpXpXpXpXpXpXpXpXpXpXpXpXpXpXpXpXpXpXpXpXpXpXpXpXpXpXpXpX",
"pXpXpXpXpXpXpXpXpXpXpXpXpXpXpXpXpXpXpXpXpXpXpXpXpXpXpXpXpXpXpXpXpXpXpXpXpXpXpXpXpXpXpXpXpXpXpXpXpXpX"
};
