/* XPM */
static char *result[] = {
/* columns rows colors chars-per-pixel */
"50 50 221 2 ",
"   c #000000",
".  c #0D0000",
"X  c #000B1A",
"o  c #00191E",
"O  c #1D1C19",
"+  c #160807",
"@  c #250000",
"#  c #26221F",
"$  c #34261F",
"%  c #000826",
"&  c #00152B",
"*  c #001C2D",
"=  c #001825",
"-  c #00242D",
";  c #012A2F",
":  c #0C2A2E",
">  c #142A2E",
",  c #1E2D2F",
"<  c #002430",
"1  c #002A30",
"2  c #002E39",
"3  c #152E31",
"4  c #193235",
"5  c #222C2D",
"6  c #2D2E2D",
"7  c #282624",
"8  c #332E2C",
"9  c #352C28",
"0  c #32302E",
"q  c #3A322F",
"w  c #2B3434",
"e  c #253536",
"r  c #333333",
"t  c #3C3532",
"y  c #3A3B3A",
"u  c #393938",
"i  c #272F30",
"p  c #500000",
"a  c #550F00",
"s  c #680900",
"d  c #781100",
"f  c #5D2F0F",
"g  c #662D00",
"h  c #692400",
"j  c #6B3308",
"k  c #773400",
"l  c #712F0B",
"z  c #462F26",
"x  c #4B352D",
"c  c #42312C",
"v  c #53372B",
"b  c #54392F",
"n  c #5C3A2C",
"m  c #593526",
"M  c #4E3931",
"N  c #473731",
"B  c #523B32",
"V  c #5E3F30",
"C  c #6D3D25",
"Z  c #643D2D",
"A  c #653A27",
"S  c #703E25",
"D  c #40403F",
"F  c #584238",
"G  c #6D412E",
"H  c #7E4324",
"J  c #74432C",
"K  c #7A442A",
"L  c #634232",
"P  c #6B4B3D",
"I  c #7D4D35",
"U  c #764832",
"Y  c #333F41",
"T  c #124047",
"R  c #2D4549",
"E  c #334346",
"W  c #3B4446",
"Q  c #434342",
"!  c #4B4D4C",
"~  c #555554",
"^  c #5C5D5D",
"/  c #585858",
"(  c #4C5A5C",
")  c #67534C",
"_  c #785548",
"`  c #645F5E",
"'  c #654A40",
"]  c #546569",
"[  c #6C6D6C",
"{  c #676666",
"}  c #697476",
"|  c #7C7C7C",
" . c #727778",
".. c #8D1400",
"X. c #8E2300",
"o. c #962B00",
"O. c #8B3C00",
"+. c #933D00",
"@. c #9A3800",
"#. c #A73A00",
"$. c #9A4400",
"%. c #9D4904",
"&. c #954A1C",
"*. c #9B4D1D",
"=. c #994B17",
"-. c #9F501E",
";. c #884514",
":. c #A14A01",
">. c #A54904",
",. c #A65001",
"<. c #BC5200",
"1. c #BA5C02",
"2. c #A3521E",
"3. c #B45C1D",
"4. c #BF6117",
"5. c #834624",
"6. c #8D4A24",
"7. c #84492B",
"8. c #8A4B2B",
"9. c #844728",
"0. c #944C23",
"q. c #994E22",
"w. c #9E5021",
"e. c #98522C",
"r. c #834E34",
"t. c #8C5539",
"y. c #875237",
"u. c #995935",
"i. c #965A3A",
"p. c #9B5B38",
"a. c #945736",
"s. c #A35322",
"d. c #AD5B2A",
"f. c #AA5824",
"g. c #B25E2B",
"h. c #B25E22",
"j. c #A45D35",
"k. c #B6612D",
"l. c #AB633A",
"z. c #A8613B",
"x. c #B1663B",
"c. c #BA6A3B",
"v. c #B46537",
"b. c #C25E00",
"n. c #C96201",
"m. c #D36700",
"M. c #C96B2B",
"N. c #D4722C",
"B. c #D8732A",
"V. c #C26A34",
"C. c #C86D34",
"Z. c #CC733D",
"A. c #C6703D",
"S. c #D1753D",
"D. c #D7783E",
"F. c #876659",
"G. c #AD6642",
"H. c #B96D43",
"J. c #AD7057",
"K. c #98766C",
"L. c #827A78",
"P. c #B07A66",
"I. c #CC7541",
"U. c #C47143",
"Y. c #D17740",
"T. c #D67941",
"R. c #DB7C43",
"E. c #E07E43",
"W. c #B48A7B",
"Q. c #B18272",
"!. c #CC805A",
"~. c #E58245",
"^. c #DF926E",
"/. c #798183",
"(. c #838483",
"). c #858A8B",
"_. c #8C8D8D",
"`. c #949696",
"'. c #9C9C9C",
"]. c #948B88",
"[. c #B99185",
"{. c #A89A97",
"}. c #BCA59D",
"|. c #999FA0",
" X c #A4A4A4",
".X c #ACACAC",
"XX c #A3AAAB",
"oX c #B6ADAB",
"OX c #ADB1B2",
"+X c #B4B5B5",
"@X c #BCBBBB",
"#X c #B9B6B5",
"$X c #AAAEB0",
"%X c #D29B85",
"&X c #C3A59C",
"*X c #DAAD9D",
"=X c #EBA88D",
"-X c #DBB5A9",
";X c #CFB1A8",
":X c #EBB9A7",
">X c #EABCAB",
",X c #C3C3C3",
"<X c #C9CACA",
"1X c #CAC8C7",
"2X c #D7C9C6",
"3X c #DCDCDD",
"4X c #D8D4D3",
"5X c #CBD0D2",
"6X c #E4D8D5",
"7X c #E1CEC9",
"8X c #FCE6DF",
"9X c #E6E7E8",
"0X c #F9EEEB",
"qX c #F7EFED",
"wX c #FAF1EF",
"eX c #EDF1F1",
"rX c #F4F4F4",
"tX c #FCF4F2",
"yX c #FEFEFE",
"uX c #F7F9F9",
"iX c None",
/* pixels */
"iXiXiXiXiXiXiXiXiXiXiXiXiXiXiXiXiXiXiXiXiXiXiXiXiXiXiXiXiXiXiXiXiXiXiXiXiXiXiXiXiXiXiXiXiXiXiXiXiXiX",
"iXiXiXiXiXiXiXiXiXiXiXiXiXiXiXiXiXiXiXiXiXiXiXiXiXiXiXiXiXiXiXiXiXiXiXiXiXiXiXiXiXiXiXiXiXiXiXiXiXiX",
"iXiXiXiXiXiXiXiXiXiXiXiXiXiXiXiXiXiXiXiXiXiXiXiXiXiXiXiXiXiXiXiXiXiXiXiXiXiXiXiXiXiXiXiXiXiXiXiXiXiX",
"iXiXiXiXiXiXiXiXiXiXiXiXiXiXiXiXiXiXiXiXiXiXiXiXiXiXiXiXiXiXiXiXiXiXiXiXiXiXiXiXiXiXiXiXiXiXiXiXiXiX",
"iXiXiXiXiXiXiXiXiXiXiXiXiXiXiXiXiXiXiXiXiXiXiXiXiXiXiXiXiXiXiXiXiXiXiXiXiXiXiXiXiXiXiXiXiXiXiXiXiXiX",
"iXiXiXiXiXiXiXiXiXiXiXiXiXiXiXiXiXiXiXiXiXiXiXiXiXiXiXiXiXiXiXiXiXiXiXiXiXiXiXiXiXiXiXiXiXiXiXiXiXiX",
"iXiXiXiXiXiXiXiXiXiXiXiXiXiXiXiXiXiXiXiXiXiXiXiXiXiXiXiXiXiXiXiXiXiXiXiXiXiXiXiXiXiXiXiXiXiXiXiXiXiX",
"iXiXiXiXiXiXiXiXiXiXiXiXiXiXiXiXiXiXiXiXiXiXiXiXiXiXiXiXiXiXiXiXiXiXiXiXiXiXiXiXiXiXiXiXiXiXiXiXiXiX",
"iXiXiXiXiXiXiXiXiXiXiXiXiXiXiXiXiXiXiXiXiXiXiXiXiXiXiXiXiXiXiXiXiXiXiXiXiXiXiXiXiXiXiXiXiXiXiXiXiXiX",
"iXiXiXiXiXiXiXiXiXiXiXiXiXiXiXiXiXiXiXiXiXiXiXiXiXiXiXiXiXiX; iXiX* iXiXiXiXiXiXiXiX1 iXiX; iXiXiXiX",
"iXiXiXiXiXiXiXiXiXiXiXiXiXiXiXiXiXiXiXiXiXiXiXiXiXiXiXiXiX, , , , : 1 1 iXiXiXiXiX, > - ; 5 8 0 iXiX",
"iXiXiXiXiXiXiXiXiXiXiXiXiXiXiXiXiXiXiXiXiXiXiXiXiXiXiXiXB Z A g g 9.t.y.iXiXiXiXv Z r.t.y.P r : iXiX",
"iXiXiXiXiXiXiXiXiXiXiXiXiXiXiXiXiXiXiXiXiXiXiXiXiXiXiXt G 8.+.d ..1.Y.G.V * - c S 0.g.A.U.i.i * iXiX",
"iXiXiXiXiXiXiXiXiXiXiXiXiXiXiXiXiXiXiXiXiXiXiXiXiXiX1 t H =.G.P.!.P.Y.l.V < 1 t S 0.k.S.A.t.5 iXiXiX",
"iXiXiXiXiXiXiXiXiXiXiXiXiXiXiXiXiXiXiXiXiXiXiXiXiXiX< c h @.%X2X6X&Xt.h 5 * * 1 9 m U p.i.I iXiXiXiX",
"iXiXiXiXiXiXiXiXiXiXiXiXiXiXiXiXiXiXiXiXiXiXiXiXiXiX< q s X.&XqXuX#Xr   7 r r 0 0 8 0 r 6 iXiXiXiXiX",
"iXiXiXiXiXiXiXiXiXiXiXiXiXiXiXiXiXiXiXiXiXiXiXiXiXiX1 q h @.W.7X3X}.y.O.a.p.p.a.p.i.I w & iXiXiXiXiX",
"iXiXiX6 7               X 1 iXiXiXiXiXiXiXiXiXiXiXiX1 q S *.G.J.P.U.I.Z.Y.Y.Y.Y.T.Y.l.P * iXiXiXiXiX",
"iXiX# r ~ [  .{ [ ).`.].F.S m iXiXiXiXiXiXiXiXiXiXiX1 r K e.$...o.n.E.R.I.A.Z.S.D.S.c.r.c 9 iXiXiXiX",
"iXiX  6 | |..X X X5XeX6X%X,.k & iXiXiXiXiXiXiXiXiXiX< , J q.=.+.>.M.T.H.r.U e.g.g.d.d.q.5.Z 6 iXiXiX",
"iXiX  7 | XX@X#X,X9XyX8X=Xn.:.B : iXiXiXiXiXiXiXiXiX5 x K q.2.=.d.A.T.x.L z 5.*.2.-.w.s.0.G 6 - iXiX",
"iXiXiXiX{ /.XX#X,X2X2X-X^.B.N.z.I 6 iXiXiXiXiXiXiXz g k +.+.@.X.o.1.m.b.:.@.>.<.<.<.#.d p .     7 iX",
"iXiXiXiXiX+ [ XX@X{.G.f.Z.R.R.T.z.B & iXiXiXiXiX1 v H %.%.=.$.+.:.b.N.N.N.N.N.N.B.B.h.j       O 6 r ",
"iXiXiXiXiX  ! ).'.K.X.#.M.E.E.R.I.z.U V iXiXiXiXo ) K.W.Q.Q.[.}.;X-X>X:X:X:X:X:X:X:X-XoXXX$XXX_.!   ",
"iXiXiXiXiXiXiX( ` _ =.3.S.R.R.T.T.Y.x.U - iXiXiX  ` '.#X#XoX1X9XtXtXtXtXwX0X0X0X0X0XwXrXrXyXeX,X{   ",
"iXiXiXiXiXiXiX  @ k &.g.A.S.T.T.R.E.I.t.- * iXiX  ^ `.OX.XXX1XqXyXyXuXyXyXyXyXyXyXyXyXuXrXyXrX1X{   ",
"iXiXiXiXiXiXiXX $ S q.f.d.c.Z.R.~.~.I.y.- * ; = o E ]  .} } '.<X9X3X3XeXyXyXyXyXyXyXrX<XXX#X.X'.iXiX",
"iXiXiXiXiXiXiX1 q K q.*.=.s.V.T.R.R.c.I > : q t q 8 9 $   . [ |.+XOXOX4XrXyXyXuXyXyX4X|         iXiX",
"iXiXiXiXiXiXiXiXq n K 8.*.2.g.M.c.z.a.7.S J K K J S g h s h _ L.)././.'.+X@X@X@X<X1X.X^       iXiXiX",
"iXiXiXiXiXiXiXiXiXi q J q.2.f.f.7.B n 9.w.q.0.q.q.0.6.&.*.*.8.P W R E E Q Q Q Q / ` ^ iXiXiXiXiXiXiX",
"iXiXiXiXiXiXiXiXiXiX< v 5.6.6.S A c A 6.2.2.s.s.*.2.g.g.d.0.l @   p j _ Q./._.(./     iXiXiXiXiXiXiX",
"iXiXiXiXiXiXiXiXiXiXiXiXn n x x A 5.0.q.s.w.w.*.=.s.V.A.j.n % % 7 $.Z.;X3XeXrX9X#XQ   iXiXiXiXiXiXiX",
"iXiXiXiXiXiXiXiXiXiXiXiX3 4 3 c J *.2.s.w.w.q.-.w.g.S.T.x.L w q J >.S.>XwXyXyXrX+X!   iXiXiXiXiXiXiX",
"iXiXiXiXiXiXiXiXiXiXiXe 4 u L 5.0.s.2.2.2.-.2.d.V.S.R.R.I.H.l.v.x.%.u.&X3X9X3X+X`.iXiXiXiXiXiXiXiXiX",
"iXiXiXiXiXiXiXiXiXiX6 w 4 F 7.q.2.w.w.w.w.&.w.k.Z.R.R.T.T.T.R.~.C.;.0 /.+X+X| O iXiXiXiXiXiXiXiXiXiX",
"iXiXiXiXiXiXiXiXiX6 r u e M J 8.6.9.9.9.9.H H a.z.c.x.l.x.H.H.U.H.J - ] _.(.Q   iXiXiXiXiXiXiXiXiXiX",
"iXiXiXiXiXiXiXiXiXr 6 u u t N M b M M M v M x v n L L n L L ' _ ) F 6 W ~ ~ iXiXiXiXiXiXiXiXiXiXiXiX",
"iXiXiXiXiXiXiXiXiXiX6 0 0 i > 1 1 ; ; ; 1 1 : 1 - 1 - * = = 2 T R E 0 O     iXiXiXiXiXiXiXiXiXiXiXiX",
"iXiXiXiXiXiXiXiXiXiXiXiXiXiXiXiXiXiXiXiXiX5 w w w e e > - iXiXe E y w 7 iXiXiXiXiXiXiXiXiXiXiXiXiXiX",
"iXiXiXiXiXiXiXiXiXiXiXiXiXiXiXiXiXiXiXiXiXiX0 r y y u 6 iXiXiX6 6 6 6 0 iXiXiXiXiXiXiXiXiXiXiXiXiXiX",
"iXiXiXiXiXiXiXiXiXiXiXiXiXiXiXiXiXiXiXiXiXiXiXr r u u r 6 iXiXiX7 6 iXiXiXiXiXiXiXiXiXiXiXiXiXiXiXiX",
"iXiXiXiXiXiXiXiXiXiXiXiXiXiXiXiXiXiXiXiXiXiXiXiX6 u u 6 0 iXiXiXiXiXiXiXiXiXiXiXiXiXiXiXiXiXiXiXiXiX",
"iXiXiXiXiXiXiXiXiXiXiXiXiXiXiXiXiXiXiXiXiXiXiXiX6 6 6 0 iXiXiXiXiXiXiXiXiXiXiXiXiXiXiXiXiXiXiXiXiXiX",
"iXiXiXiXiXiXiXiXiXiXiXiXiXiXiXiXiXiXiXiXiXiXiXiXiXiXiXiXiXiXiXiXiXiXiXiXiXiXiXiXiXiXiXiXiXiXiXiXiXiX",
"iXiXiXiXiXiXiXiXiXiXiXiXiXiXiXiXiXiXiXiXiXiXiXiXiXiXiXiXiXiXiXiXiXiXiXiXiXiXiXiXiXiXiXiXiXiXiXiXiXiX",
"iXiXiXiXiXiXiXiXiXiXiXiXiXiXiXiXiXiXiXiXiXiXiXiXiXiXiXiXiXiXiXiXiXiXiXiXiXiXiXiXiXiXiXiXiXiXiXiXiXiX",
"iXiXiXiXiXiXiXiXiXiXiXiXiXiXiXiXiXiXiXiXiXiXiXiXiXiXiXiXiXiXiXiXiXiXiXiXiXiXiXiXiXiXiXiXiXiXiXiXiXiX",
"iXiXiXiXiXiXiXiXiXiXiXiXiXiXiXiXiXiXiXiXiXiXiXiXiXiXiXiXiXiXiXiXiXiXiXiXiXiXiXiXiXiXiXiXiXiXiXiXiXiX",
"iXiXiXiXiXiXiXiXiXiXiXiXiXiXiXiXiXiXiXiXiXiXiXiXiXiXiXiXiXiXiXiXiXiXiXiXiXiXiXiXiXiXiXiXiXiXiXiXiXiX",
"iXiXiXiXiXiXiXiXiXiXiXiXiXiXiXiXiXiXiXiXiXiXiXiXiXiXiXiXiXiXiXiXiXiXiXiXiXiXiXiXiXiXiXiXiXiXiXiXiXiX"
};
