/* XPM */
static char *result[] = {
/* columns rows colors chars-per-pixel */
"50 50 216 2 ",
"   c #010000",
".  c #0C0D0B",
"X  c #00060E",
"o  c #000B10",
"O  c #061519",
"+  c #1D1C1D",
"@  c #1A1716",
"#  c #1F0907",
"$  c #220100",
"%  c #370000",
"&  c #2B1E1A",
"*  c #29110B",
"=  c #34241E",
"-  c #000C2A",
";  c #00002A",
":  c #00152C",
">  c #011D2D",
",  c #051B29",
"<  c #191D21",
"1  c #3B1820",
"2  c #01262E",
"3  c #09262B",
"4  c #16232A",
"5  c #1D2C2F",
"6  c #192327",
"7  c #0E2C32",
"8  c #062730",
"9  c #132B31",
"0  c #1A2D30",
"q  c #123135",
"w  c #2B2625",
"e  c #2A2927",
"r  c #242C2D",
"t  c #2D2D2D",
"y  c #232527",
"u  c #312F2E",
"i  c #3C2E2B",
"p  c #2D302F",
"a  c #33302F",
"s  c #3B322E",
"d  c #212E30",
"f  c #243234",
"g  c #293739",
"h  c #343433",
"j  c #3B3431",
"k  c #343C3C",
"l  c #393939",
"z  c #383937",
"x  c #5E0E00",
"c  c #561B0A",
"v  c #640000",
"b  c #7E0000",
"n  c #720000",
"m  c #5B2B13",
"M  c #5A2505",
"N  c #6F3200",
"B  c #783507",
"V  c #6E2F0E",
"C  c #442921",
"Z  c #522D23",
"A  c #43332E",
"S  c #4D342C",
"D  c #553224",
"F  c #5A392D",
"G  c #58372A",
"H  c #443431",
"J  c #4B3934",
"K  c #523B32",
"L  c #5A3E32",
"P  c #6B3B25",
"I  c #623C2C",
"U  c #6A3E29",
"Y  c #57403A",
"T  c #6C412D",
"R  c #74422B",
"E  c #7D462B",
"W  c #7E4426",
"Q  c #654335",
"!  c #674739",
"~  c #7A4E3D",
"^  c #724732",
"/  c #3A4343",
"(  c #344E52",
")  c #444645",
"_  c #4A4B4A",
"`  c #454949",
"'  c #465456",
"]  c #5A5958",
"[  c #645550",
"{  c #745548",
"}  c #485D62",
"|  c #545F61",
" . c #5A6162",
".. c #6C6C6C",
"X. c #646A6C",
"o. c #737373",
"O. c #757A7B",
"+. c gray49",
"@. c #736F6D",
"#. c #810000",
"$. c #910400",
"%. c #832D00",
"&. c #962700",
"*. c #953B01",
"=. c #853D11",
"-. c #903714",
";. c #9D3620",
":. c #9A4505",
">. c #834218",
",. c #94491D",
"<. c #9C4D1D",
"1. c #9C4311",
"2. c #9F501D",
"3. c #AB4C00",
"4. c #A04003",
"5. c #B54C00",
"6. c #A2521F",
"7. c #A75319",
"8. c #824525",
"9. c #8C4924",
"0. c #8B4B2A",
"q. c #864828",
"w. c #924C24",
"e. c #9B4E21",
"r. c #9D4523",
"t. c #9D5122",
"y. c #9A5128",
"u. c #885336",
"i. c #9C5D3B",
"p. c #975835",
"a. c #A35322",
"s. c #A95828",
"d. c #B25E2B",
"f. c #A45E37",
"g. c #A5623B",
"h. c #AC633A",
"j. c #BC6C3E",
"k. c #B76637",
"l. c #BB642C",
"z. c #C56213",
"x. c #C9681F",
"c. c #D06A1C",
"v. c #C05920",
"b. c #CC6424",
"n. c #C76527",
"m. c #D46A24",
"M. c #C36B36",
"N. c #C36E3C",
"B. c #C86F39",
"V. c #CD723B",
"C. c #CD7037",
"Z. c #D2763E",
"A. c #D6783E",
"S. c #D87738",
"D. c #8D5B47",
"F. c #9C5E44",
"G. c #936453",
"H. c #A6644B",
"J. c #BC6E46",
"K. c #AD705B",
"L. c #9A7062",
"P. c #A87A6C",
"I. c #C57143",
"U. c #CC7541",
"Y. c #C2714A",
"T. c #D37741",
"R. c #D67941",
"E. c #DB7C43",
"W. c #D27B4D",
"Q. c #E07D42",
"!. c #AD8577",
"~. c #B88777",
"^. c #B88A7B",
"/. c #DE804A",
"(. c #E38143",
"). c #E28348",
"_. c #DC987B",
"`. c #757E80",
"'. c #7B8385",
"]. c #838282",
"[. c #8B8B8B",
"{. c #939292",
"}. c #989A9A",
"|. c #9C918D",
" X c #B79C94",
".X c #AB978F",
"XX c #9DA3A5",
"oX c #A3A4A4",
"OX c #ABABAC",
"+X c #A7A7A7",
"@X c #BAADAA",
"#X c #AFB4B5",
"$X c #B2B3B3",
"%X c #B3B7B8",
"&X c #BABBBB",
"*X c #C29482",
"=X c #CBACA2",
"-X c #D4B5AB",
";X c #CCBAB4",
":X c #E9B5A2",
">X c #BDC0C2",
",X c #C4C5C5",
"<X c #CACACA",
"1X c #D7C6C1",
"2X c #DCDDDD",
"3X c #D5D3D3",
"4X c #EED6CF",
"5X c #E3E3E3",
"6X c #ECEDED",
"7X c #F4EAE6",
"8X c #FAF1EE",
"9X c #F4F3F3",
"0X c #FCF6F4",
"qX c #F6F9FA",
"wX c #FDFEFE",
"eX c None",
/* pixels */
"eXeXeXeXeXeXeXeXeXeXeXeXeXeXeXeXeXeXeXeXeXeXeXeXeXeXeXeXeXeXeXeXeXeXeXeXeXeXeXeXeXeXeXeXeXeXeXeXeXeX",
"eXeXeXeXeXeXeXeXeXeXeXeXeXeXeXeXeXeXeXeXeXeXeXeXeXeXeXeXeXeXeXeXeXeXeXeXeXeXeXeXeXeXeXeXeXeXeXeXeXeX",
"eXeXeXeXeXeXeXeXeXeXeXeXeXeXeXeXeXeXeXeXeXeXeXeXeXeXeXeXeXeXeXeXeXeXeXeXeXeXeXeXeXeXeXeXeXeXeXeXeXeX",
"eXeXeXeXeXeXeXeXeXeXeXeXeXeXeXeXeXeXeXeXeXeXeXeXeXeXeXeXeXeXeXeXeXeXeXeXeXeXeXeXeXeXeXeXeXeXeXeXeXeX",
"eXeXeXeXeXeXeXeXeXeXeXeXeXeXeXeXeXeXeXeXeXeXeXeXeXeXeXeXeXeXeXeXeXeXeXeXeXeXeXeXeXeXeXeXeXeXeXeXeXeX",
"eXeXeXeXeXeXeXeXeXeXeXeXeXeXeXeXeXeXeXeXeXeXeXeXeXeXeXeXeXeXeXeXeXeXeXeXeXeXeXeXeXeXeXeXeXeXeXeXeXeX",
"eXeXeXeXeXeXeXeXeXeXeXeXeXeXeXeXeXu f q eXeXeXeXeXeXeXeXeXeXeXeXeXeXeXeXeXeXeXeXeXeXeXeXeXeXeXeXeXeX",
"eXeXeXeXeXeXeXeXeXeXeXeXeXeXeXeXeXu j H i eXeXeXeXeXeXeXeXeXeXeXeXeXeXeXeXeXeXeXeXeXeXeXeXeXeXeXeXeX",
"eXeXeXeXeXeXeXr 2 - > 2 eXeXeXeXeXp M n v = eXeXeXeXeXeXeXeXeXeXeXeXeXeXeXeXeXeXeXeXeXeXeXeXeXeXeXeX",
"eXeXeXeXeXeXp h J K K j a eXeXeXeXr ~ H.F.Y 5 eXeXeXeXeXeXeXeXeXeXeXeXeXeXeXeXeXeXeXeXeXeXeXeXeXeXeX",
"eXeXeXeXeXeX2 K F.k.f.q.I i eXeXeXe |.1X;XL.v C eXeXeXeXeXeXeXeXeXeXeXeXeXeXeXeXeXeXeXeXeXeXeXeXeXeX",
"eXeXeXeXeXeX: L k.R.M.t.R j eXeXeXh %X0X7X~.#.Z 0 eXeXeXeXeXeXeXeXeXeXeXeXeXeXeXeXeXeXeXeXeXeXeXeXeX",
"eXeXeXeXeXeXeXK p.g.p.P A 2 : :   f %XwX8X.X#.Z 0 eXeXeXeXeXeXeXeXeXeXeXeXeXeXeXeXeXeX  w eXeXeXeXeX",
"eXeXeXeXeXeXeXeXH j s a t u h j $ w OXqX7X^.#.Z 0 eXeXeXeXeXeXeXeXeXeXeXeXeXeXeXeXeXh z h t eXeXeXeX",
"eXeXeXeXeXeXeXeX; 8 ^ i.f.i.f.g.t.e. X1X-XK.%.D q eXeXeXeXeXeXeXeXeXeXeXeXeXeXeXeX] ].+._ . eXeXeXeX",
"eXeXeXeXeXeXeXeX- J H.A.R.A.T.R.R.A.I.H.F.a.9.F 9 eXeXeXeXeXeXeXeXeXeXeXt u l h z ].$XoX]   eXeXeXeX",
"eXeXeXeXeXeXeXeXF 8.f.B.C.B.k.h.I./.n.&.&.1.0.K 2 eXeXeXeXeXeXeXeXeXeXN F. X&X>X&X,X,X+X]   eXeXeXeX",
"eXeXeXeXeXeX7 A E a.a.a.a.a.E A p.T.V.s.e.t.0.K 9 eXeXeXeXeXeXeXeX, H :.W.1XwXwXwX5X,X}.]   eXeXeXeX",
"eXeXeXeXeXeX  # c %.:.3.5.3.*.N 7.c.z.4.&.:.:.B m C eXeXeXeXeXeXeXQ f.z.).:X4X9X9X2XOXo.` eXeXeXeXeX",
"eXeXeXeXh e + & O 1 r.b.m.b.b.b.c.c.v.;.-.1.1.-.=.D 9 eXeXeXeX- H g.Z.A.E.Y.P.=X<X#X..e eXeXeXeXeXeX",
"eXeXeXeX. ] [.OXXXoX=X:X:X:X:X:X:X:X-X=X*X.X!.~.P.[ 6 eXeXeXeXQ i.U.E.).R.5.$.G.{.+.y eXeXeXeXeXeXeX",
"eXeXeXeX  ..3XqXwXqX9X8X8X8X8X8X0X0X0XqX5X;X@X&X+X..@ eXeXeXL g.T.R.R.E.R.l.e.D.] ' eXeXeXeXeXeXeXeX",
"eXeXeXeXeX..,X9X9X6XwXwXwXwXwXwXwXqXqXwX5X#XXX+X}.] . eXeX: Q j.(.(.T.U.V.l.a.V * o eXeXeXeXeXeXeXeX",
"eXeXeXeXeXeX+.{.].}.2XwXwXwXwXwX9X3X<X3X%XO.(  .' k 3 4 0 : L j.(.(.R.N.s.a.a.8.i , eXeXeXeXeXeXeXeX",
"eXeXeXeXeXeXeX.   t $X5X6X2X5X5X<XoX}.XX!.Y % % c D F Y F S T f.N.U.B.d.<.,.w.R j eXeXeXeXeXeXeXeXeX",
"eXeXeXeXeXeXeXeXeXeX+.[.[.o.o.o.X.| ( } ' W =.=.>.9.w.9.w.,.q.^ ^ p.d.s.6.q.I A eXeXeXeXeXeXeXeXeXeX",
"eXeXeXeXeXeXeXeXeXeXy . ) @.o...[ m c m W a.d.d.s.6.2.2.6.6.<.U i P 9.e.w.U d eXeXeXeXeXeXeXeXeXeXeX",
"eXeXeXeXeXeXeXeXeXeX  l OX5X6X5X;XY.5.l.j.B.V.V.k.s.,.2.a.a.<.9.W P G I I S eXeXeXeXeXeXeXeXeXeXeXeX",
"eXeXeXeXeXeXeXeXeXeX  _ &X9XwXwX4X_.C.A.A.R.E.E.U.l.a.e.2.t.t.6.t.U 0 9 5 eXeXeXeXeXeXeXeXeXeXeXeXeX",
"eXeXeXeXeXeXeXeXeXeX  l O.XX,X2X4X;X*XJ.z.Z.E./.E.A.B.d.2.2.6.a.e.T d 2 eXeXeXeXeXeXeXeXeXeXeXeXeXeX",
"eXeXeXeXeXeXeXeXeXeXh u X + @.oX%X%X|.D.3.V.R.U.U.T.N.s.,.,.t.a.t.R r eXeXeXeXeXeXeXeXeXeXeXeXeXeXeX",
"eXeXeXeXeXeXeXeXeXeXq i M B ~ ..'.'.@.Y t.Z.T.f.u.u.u.R I I U e.t.E u eXeXeXeXeXeXeXeXeXeXeXeXeXeXeX",
"eXeXeXeXeXeXeXeXeXeX2 s q.a.W w < y + < u.I.J.Q , y 0 d d 8 A 8.w.R u eXeXeXeXeXeXeXeXeXeXeXeXeXeXeX",
"eXeXeXeXeXeXeXeXeXeX3 h ! { Q &   eX  4 ! G.D.J > 8 7 f f q h Q ^ Y u eXeXeXeXeXeXeXeXeXeXeXeXeXeXeX",
"eXeXeXeXeXeXeXeXeXeXe h ` _ ) j eXeXeXt / ( / l t t h l l h u h k z u eXeXeXeXeXeXeXeXeXeXeXeXeXeXeX",
"eXeXeXeXeXeXeXeXeXeXt h / / k eXeXeXeXu k / g g eXeXa h z h eXf g k h eXeXeXeXeXeXeXeXeXeXeXeXeXeXeX",
"eXeXeXeXeXeXeXeXeXeXt h z a t eXeXeXeXu z h t eXeXeXeXt t eXeXa h h a eXeXeXeXeXeXeXeXeXeXeXeXeXeXeX",
"eXeXeXeXeXeXeXeXeXeXeXt t eXeXeXeXeXeXeXu e eXeXeXeXeXeXeXeXeXeXt u eXeXeXeXeXeXeXeXeXeXeXeXeXeXeXeX",
"eXeXeXeXeXeXeXeXeXeXeXeXeXeXeXeXeXeXeXeXeXeXeXeXeXeXeXeXeXeXeXeXeXeXeXeXeXeXeXeXeXeXeXeXeXeXeXeXeXeX",
"eXeXeXeXeXeXeXeXeXeXeXeXeXeXeXeXeXeXeXeXeXeXeXeXeXeXeXeXeXeXeXeXeXeXeXeXeXeXeXeXeXeXeXeXeXeXeXeXeXeX",
"eXeXeXeXeXeXeXeXeXeXeXeXeXeXeXeXeXeXeXeXeXeXeXeXeXeXeXeXeXeXeXeXeXeXeXeXeXeXeXeXeXeXeXeXeXeXeXeXeXeX",
"eXeXeXeXeXeXeXeXeXeXeXeXeXeXeXeXeXeXeXeXeXeXeXeXeXeXeXeXeXeXeXeXeXeXeXeXeXeXeXeXeXeXeXeXeXeXeXeXeXeX",
"eXeXeXeXeXeXeXeXeXeXeXeXeXeXeXeXeXeXeXeXeXeXeXeXeXeXeXeXeXeXeXeXeXeXeXeXeXeXeXeXeXeXeXeXeXeXeXeXeXeX",
"eXeXeXeXeXeXeXeXeXeXeXeXeXeXeXeXeXeXeXeXeXeXeXeXeXeXeXeXeXeXeXeXeXeXeXeXeXeXeXeXeXeXeXeXeXeXeXeXeXeX",
"eXeXeXeXeXeXeXeXeXeXeXeXeXeXeXeXeXeXeXeXeXeXeXeXeXeXeXeXeXeXeXeXeXeXeXeXeXeXeXeXeXeXeXeXeXeXeXeXeXeX",
"eXeXeXeXeXeXeXeXeXeXeXeXeXeXeXeXeXeXeXeXeXeXeXeXeXeXeXeXeXeXeXeXeXeXeXeXeXeXeXeXeXeXeXeXeXeXeXeXeXeX",
"eXeXeXeXeXeXeXeXeXeXeXeXeXeXeXeXeXeXeXeXeXeXeXeXeXeXeXeXeXeXeXeXeXeXeXeXeXeXeXeXeXeXeXeXeXeXeXeXeXeX",
"eXeXeXeXeXeXeXeXeXeXeXeXeXeXeXeXeXeXeXeXeXeXeXeXeXeXeXeXeXeXeXeXeXeXeXeXeXeXeXeXeXeXeXeXeXeXeXeXeXeX",
"eXeXeXeXeXeXeXeXeXeXeXeXeXeXeXeXeXeXeXeXeXeXeXeXeXeXeXeXeXeXeXeXeXeXeXeXeXeXeXeXeXeXeXeXeXeXeXeXeXeX",
"eXeXeXeXeXeXeXeXeXeXeXeXeXeXeXeXeXeXeXeXeXeXeXeXeXeXeXeXeXeXeXeXeXeXeXeXeXeXeXeXeXeXeXeXeXeXeXeXeXeX"
};
