/* XPM */
static char *_7d08a45762348f9ba49af90a2c4190cyLobKT1VW3M0MOv9[] = {
/* columns rows colors chars-per-pixel */
"50 50 213 2 ",
"   c None",
".  c #000000",
"X  c #080205",
"o  c #04181C",
"O  c #1D1B18",
"+  c #00001B",
"@  c #20201F",
"#  c #2C231F",
"$  c #34231C",
"%  c #00152B",
"&  c #001B2C",
"*  c #00262E",
"=  c #00292F",
"-  c #0C2A2E",
";  c #002027",
":  c #122B2E",
">  c #1A2C2E",
",  c #002630",
"<  c #002A31",
"1  c #172D31",
"2  c #0C3238",
"3  c #242D2E",
"4  c #2D2D2D",
"5  c #272524",
"6  c #332F2D",
"7  c #332B27",
"8  c #2F302F",
"9  c #33302E",
"0  c #3A322F",
"q  c #233335",
"w  c #2A3334",
"e  c #2D3A3C",
"r  c #323433",
"t  c #3D3633",
"y  c #343939",
"u  c #383D3E",
"i  c #202E30",
"p  c #5F0600",
"a  c #421C02",
"s  c #550A00",
"d  c #680500",
"f  c #681F00",
"g  c #770C00",
"h  c #59301C",
"j  c #582B0E",
"k  c #692A00",
"l  c #762A00",
"z  c #6B3306",
"x  c #763303",
"c  c #472F26",
"v  c #41322D",
"b  c #4C352C",
"n  c #53362B",
"m  c #5C3B2D",
"M  c #5B3626",
"N  c #443A36",
"B  c #523C34",
"V  c #5B3E30",
"C  c #633C2B",
"Z  c #6C3E28",
"A  c #723E23",
"S  c #703F28",
"D  c #3D403F",
"F  c #47413F",
"G  c #58433B",
"H  c #6F402B",
"J  c #73422C",
"K  c #7B452B",
"L  c #7A4429",
"P  c #654335",
"I  c #694839",
"U  c #764A33",
"Y  c #794A33",
"T  c #7A503C",
"R  c #1D4248",
"E  c #2A4448",
"W  c #394447",
"Q  c #4E4E4D",
"!  c #434647",
"~  c #545555",
"^  c #5C5D5C",
"/  c #5D4F4A",
"(  c #61514B",
")  c #73574C",
"_  c #6F564D",
"`  c #73635E",
"'  c #5D686A",
"]  c #656565",
"[  c #6B6B6A",
"{  c #697375",
"}  c #787A7A",
"|  c #8C0F00",
" . c #882800",
".. c #922C00",
"X. c #9B2A00",
"o. c #8A3900",
"O. c #943E00",
"+. c #9B3D00",
"@. c #963200",
"#. c #A53E00",
"$. c #9A4400",
"%. c #994904",
"&. c #954A1B",
"*. c #9C4D1C",
"=. c #8E4719",
"-. c #A14A01",
";. c #A74B04",
":. c #BC5200",
">. c #B45700",
",. c #A2521E",
"<. c #AA551D",
"1. c #B44C00",
"2. c #BF6117",
"3. c #844523",
"4. c #8A4A28",
"5. c #944C22",
"6. c #994E22",
"7. c #9E5021",
"8. c #9A522A",
"9. c #844E32",
"0. c #8A5237",
"q. c #8D5639",
"w. c #83513A",
"e. c #955A3A",
"r. c #9B5C3A",
"t. c #945737",
"y. c #A45422",
"u. c #A95827",
"i. c #B15D28",
"p. c #A25E3B",
"a. c #AB5F31",
"s. c #B8622E",
"d. c #A9633A",
"f. c #BB6B3C",
"g. c #B56638",
"h. c #C15F00",
"j. c #CA650A",
"k. c #D4722C",
"l. c #D9742D",
"z. c #C26A34",
"x. c #C66E39",
"c. c #C6713E",
"v. c #CB723D",
"b. c #CC7036",
"n. c #D3753C",
"m. c #D7783E",
"M. c #D07132",
"N. c #CE6D28",
"B. c #9D6149",
"V. c #AF6A45",
"C. c #B67250",
"Z. c #997468",
"A. c #8C7C78",
"S. c #B17A65",
"D. c #C47042",
"F. c #CC7441",
"G. c #D17741",
"H. c #D57941",
"J. c #DB7C43",
"K. c #E17E42",
"L. c #B48879",
"P. c #A98377",
"I. c #D98559",
"U. c #E58245",
"Y. c #C68B74",
"T. c #798385",
"R. c #828181",
"E. c #8C8C8B",
"W. c #888988",
"Q. c #939393",
"!. c #999B9B",
"~. c #A18C86",
"^. c #B7948A",
"/. c #A69894",
"(. c #B59990",
"). c #979FA0",
"_. c #9CA0A1",
"`. c #ACACAD",
"'. c #A4A9AA",
"]. c #B5AEAC",
"[. c #ADB1B2",
"{. c #B3B3B2",
"}. c #BBBBBB",
"|. c #B9B6B4",
" X c #AAAEB0",
".X c #C19D92",
"XX c #C9A69C",
"oX c #D0A697",
"OX c #CCACA2",
"+X c #C5A9A1",
"@X c #DAB6A9",
"#X c #CFB1A8",
"$X c #EBB9A7",
"%X c #EABBAA",
"&X c #D6C1BB",
"*X c #EAC3B6",
"=X c #BCC2C4",
"-X c #CACBCB",
";X c #C5C6C6",
":X c #D8CBC7",
">X c #D8D9D9",
",X c #E5DAD8",
"<X c #DEE1E2",
"1X c #E3E3E3",
"2X c #E9E8E7",
"3X c #F9EEEB",
"4X c #F7EFED",
"5X c #F8F1EE",
"6X c #EDF1F1",
"7X c #F4F4F4",
"8X c #FCF5F3",
"9X c #FEFEFE",
"0X c #FBF9F8",
/* pixels */
"                                                                                                    ",
"                                                                                                    ",
"                                                                                                    ",
"                                                                                                    ",
"                                                                                                    ",
"                                                                                                    ",
"                                                                                                    ",
"                              4 > <                                                                 ",
"                            w r t t 0                                                               ",
"        =     *             q r j d d a                                                             ",
"    9 4 3 = = : 3           < 6 x @.o.h <                                                           ",
"    - r I 0.q.T C n         . r A.(..XZ.h a                                                         ",
"    & w e.c.v.s.5.Z v       . r ].2X,X^.l d 6                                                       ",
"      3 0.D.v.s.5.J t =     . r ;X9X0XoXX.g t =                                                     ",
"        Y e.r.K M 6 * & % + . < =X9X0XOX..d t =                                                     ",
"          8 9 9 4 6 9 9 9 7 . t }.0X4XoX..d 0 <                                                     ",
"          % w T e.r.r.r.d.r.%.e.(.:X&XL.O.l 0 <                                                     ",
"          % I g.G.H.F.G.F.n.v.F.C.S.S.V.&.A 0 ,                                                     ",
"        0 v 9.f.n.m.n.v.c.c.J.J.h.X.| +.8.U 9 ,                                                     ",
"      4 C 3.6.u.i.i.i.8.U 9.c.m.b.;.O.%.6.J i ,                                                     ",
"    * 3 Z 5.*.,.7.y.,.3.c G g.m.x.y.*.*.6.K b 3                                                     ",
"  5 . . X s g ;.:.:.:.;.+.$.h.j.h.X. .@.+.O.x k c                   % % % % %               .       ",
"9 4 O . . . z i.l.l.k.N.k.k.l.k.j.%.O.O.%.-.%.3.n <               > > 1 > : 1 >           5 O 5     ",
". Q E.`.[._.].@X$X$X$X$X$X$X%X%X@X#X+X^.P.L.L.Z.( o               U e.e.e.e.r.w.U         [ } [     ",
". ] ;X7X0X0X7X4X3X3X3X3X3X3X5X8X8X8X1X-X].{.|.!.^ .           % V p.D.G.D.F.H.x.e.y . . 5 Q.`.Q.Q . ",
". ] ;X7X9X7X0X9X9X9X9X9X9X9X9X9X9X9X6X-X'. X[.Q.^ .           & C D.J.U.J.K.U.H.d.C Q [ Q.{.|.!.~ . ",
"    !.`.|.'.-X7X9X9X9X9X9X9X6X>X>X1X-X_.{ { } ' W o ; = , * * & V V.K.K.K.J.U.H.>.o.~.-X>X-X{.E.Q . ",
"    . . . . } >X9X9X0X9X9X7X>X[.[.}./.[ X . # 7 9 0 t 9 0 t 3 * V a.H.H.H.H.J.G.1.$.XX7X9X<X|.E.Q . ",
"      . .   ^ {.-X-X}.}.#X{.!.T.T.T.{ _ d p f k A J J L K K C : N t.z.b.z.z.z.z.#.#.OX0X9X9X1X`.^ . ",
"              ^ ] ~ W N W W W W R R G 3.&.*.5.&.5.6.6.6.6.6.3.v 6 3.y.u.y.y.y.,.X.+.OX5X9X9X9X-X] . ",
"              . . ~ W.E.E.T.) l k x =.,.i.s.i.i.u.,.y.y.y.y.5.J m A 3.3.3.3.3.3.l o.^.-X2X7X1X}.] . ",
"          0 o . e  X1X7X6X,XoXh.:.s.c.x.v.m.m.z.i.*.*.7.7.7.6.5.4.S M n V m V C h M ` W.!._.Q.R.    ",
"          8 7 . ( |.7X0X9X8X*XI.N.m.m.m.J.H.F.f.y.=.6.6.7.7.7.<.5.J > < - - : : 1 1 + . . . .       ",
"          > b k 0.~.{.-X<X1X:XoXY.D.N.M.H.f.e.J Z L 5.y.,.7.y.<.7.J q = <                           ",
"          = m 4.6.x $ { '.=X;X|./.B.1.M.G.p.0 * * n 3.7.y.7.7.y.5.J 6 =                             ",
"          > G w.0.p . e } Q._.!.A.) %.b.J.f.t.I D u P 3.&.7.7.4.L m 6                               ",
"          4 F / ( F 6 y Q ^ ^ ~ ! r 9.c.K.K.G.V.) E e b L ,.5.J v 9                                 ",
"          4 r W ! W r O . . . . . % I d.F.H.v.V._ E 2 > Z 4.4.n *                                   ",
"              y D y                   U q.e.q.T G e q w B P G N >                                   ",
"              4 4 4                   * = * * > 3 4 4 r w y y r 6                                   ",
"                                        % %           4 w q e y 9                                   ",
"                                                        9 r r r 8                                   ",
"                                                          4 4 9 8                                   ",
"                                                                                                    ",
"                                                                                                    ",
"                                                                                                    ",
"                                                                                                    ",
"                                                                                                    ",
"                                                                                                    ",
"                                                                                                    "
};
