/* XPM */
static char *_3a0c0f5a7c14ad2ef89cd646088a929gAo0wla1qk2vKb6y[] = {
/* columns rows colors chars-per-pixel */
"50 50 216 2 ",
"   c None",
".  c black",
"X  c #0D0806",
"o  c #150000",
"O  c #1A1A18",
"+  c #000612",
"@  c #3A0000",
"#  c #311B0B",
"$  c #21211F",
"%  c #000022",
"&  c #00082B",
"*  c #00132A",
"=  c #001D2D",
"-  c #001720",
";  c #00242D",
":  c #002A2F",
">  c #0B2A2E",
",  c #132A2D",
"<  c #1E2C2F",
"1  c #1E2221",
"2  c #002430",
"3  c #012B30",
"4  c #192E31",
"5  c #1D3235",
"6  c #00343A",
"7  c #242523",
"8  c #252D2E",
"9  c #2D2E2D",
"0  c #2F2622",
"q  c #332C2A",
"w  c #392D29",
"e  c #32302E",
"r  c #3A312E",
"t  c #2B3435",
"y  c #293739",
"u  c #343433",
"i  c #383836",
"p  c #3B3C3A",
"a  c #383633",
"s  c #460700",
"d  c #6A0500",
"f  c #7A0000",
"g  c #641B00",
"h  c #7D1F00",
"j  c #5B2705",
"k  c #51280D",
"l  c #662C02",
"z  c #7F2C00",
"x  c #683106",
"c  c #753400",
"v  c #6A361B",
"b  c #713812",
"n  c #452E27",
"m  c #4D362D",
"M  c #44332C",
"N  c #55372A",
"B  c #553A2E",
"V  c #5B3B2D",
"C  c #593526",
"Z  c #4C3830",
"A  c #423632",
"S  c #513A32",
"D  c #5C3E31",
"F  c #633A29",
"G  c #693B26",
"H  c #743E24",
"J  c #40403F",
"K  c #5B443B",
"L  c #6A402D",
"P  c #7B4224",
"I  c #74422B",
"U  c #7B452C",
"Y  c #7E492C",
"T  c #644334",
"R  c #6C4533",
"E  c #764935",
"W  c #03444D",
"Q  c #334447",
"!  c #3C4D51",
"~  c #424241",
"^  c #4B4C4B",
"/  c #44494A",
"(  c #534A46",
")  c #50504E",
"_  c #545555",
"`  c #5E5E5D",
"'  c #465356",
"]  c #7C625A",
"[  c #6A6C6B",
"{  c #6C7476",
"}  c #747575",
"|  c #7D7B7B",
" . c #737C7E",
".. c #636F71",
"X. c #8C0000",
"o. c #8F1F00",
"O. c #852700",
"+. c #843900",
"@. c #963300",
"#. c #943E00",
"$. c #9E3900",
"%. c #A93F00",
"&. c #9A4000",
"*. c #9D4A04",
"=. c #954504",
"-. c #8A4618",
";. c #964B1C",
":. c #9D4E1B",
">. c #9E501E",
",. c #A54500",
"<. c #B34D00",
"1. c #BC5200",
"2. c #B45500",
"3. c #A3521E",
"4. c #A85319",
"5. c #AE5508",
"6. c #854523",
"7. c #8A4926",
"8. c #824729",
"9. c #854A2C",
"0. c #8C4925",
"q. c #944C22",
"w. c #9A4F21",
"e. c #9D5022",
"r. c #94522E",
"t. c #8B5133",
"y. c #885438",
"u. c #935736",
"i. c #9A5B39",
"p. c #975937",
"a. c #834B33",
"s. c #A25324",
"d. c #A95927",
"f. c #B25E2A",
"g. c #A45B36",
"h. c #A25F3C",
"j. c #B8622E",
"k. c #AF653B",
"l. c #A86139",
"z. c #BA6634",
"x. c #BE6834",
"c. c #B2663B",
"v. c #B5693D",
"b. c #BB6C3E",
"n. c #CA5F00",
"m. c #CF6000",
"M. c #D66B00",
"N. c #C86A28",
"B. c #D4722C",
"V. c #DA752D",
"C. c #C56C36",
"Z. c #C06D3D",
"A. c #CA6E37",
"S. c #C5703D",
"D. c #CD733D",
"F. c #D3753C",
"G. c #D9793E",
"H. c #D06F2C",
"J. c #E27C38",
"K. c #AE6A4B",
"L. c #826D66",
"P. c #A77764",
"I. c #B47C67",
"U. c #A57F72",
"Y. c #C27144",
"T. c #CC7541",
"R. c #C4754C",
"E. c #D27740",
"W. c #D57942",
"Q. c #DB7C43",
"!. c #D47E52",
"~. c #84807F",
"^. c #AB877B",
"/. c #B48A7D",
"(. c #DD8351",
"). c #E18045",
"_. c #CE8A6D",
"`. c #767E80",
"'. c #748083",
"]. c #848383",
"[. c #8B8C8C",
"{. c #838889",
"}. c #8E8F90",
"|. c #979797",
" X c #999897",
".X c #AF958D",
"XX c #9FA3A4",
"oX c #A3A3A3",
"OX c #ABACAC",
"+X c #A7A9A9",
"@X c #AEAFB0",
"#X c #AFB3B4",
"$X c #BCBBBB",
"%X c #B9B5B4",
"&X c #B7AEAC",
"*X c #CAABA2",
"=X c #D1B8AF",
"-X c #EBB9A7",
";X c #E7B9A9",
":X c #E8BFB1",
">X c #DDC1B8",
",X c #C7C7C7",
"<X c #D9C7C3",
"1X c #D6D6D7",
"2X c #C8CFD1",
"3X c #F1D3C9",
"4X c #E5D7D4",
"5X c #E3E4E4",
"6X c #E8E8E8",
"7X c #F9EFEB",
"8X c #F2EDEB",
"9X c #F4F4F4",
"0X c #FDF4F2",
"qX c #FEFEFE",
"wX c #F7F9FA",
"eX c #FBF1EE",
/* pixels */
"                                                                                                    ",
"                                                                                                    ",
"                                                                                                    ",
"                                                                                                    ",
"                                                                                                    ",
"                                                                                                    ",
"                                                                                                    ",
"                                                                                                    ",
"                                                                                                    ",
"            < ;   = 3               = ;   3 3                                                       ",
"          e 9 , ; > < <           ; ; , < < < <                                                     ",
"          , K y.t.y.E C         E y.u.b j G G D                                                     ",
"          ; E K.T.x.e.P B 3 = q i.Y.N.$.f @.0.E m 3                                                 ",
"          = R v.E.C.e.P B 3 2 u u.S.!._.I.K.s.-.D 3                                                 ",
"            T u.p.t.G n , ; = ; k c ^.<X4X*Xg.h N 3                                                 ",
"              9 t e q e e e e e . . }.5XqX<Xh.f C 3                                                 ",
"              & 3 T t.i.p.p.i.i.-.+.^.<X1X*Xg.h N 2                                                 ",
"              * u i.T.W.E.E.F.E.F.D.R.I.P.K.s.-.B 3                         . . . . . . . 7 e       ",
"              w L l.D.G.F.F.S.S.E.).H.,.X.@.3.9.S ;                         {.|.[.{ [ } [ _ q 7     ",
"          3 N P q.s.d.f.f.g.9.E K.W.F.5.&.&.3.9.Z 2                     . '.2X9X1X@XoX@XXX| 9 .     ",
"          : K 7.s.3.:.3.3.;.C r t.D.F.f.;.:.e.7.F q                     o  X6XqX5X$XOX$X+X| 7 .     ",
"      u . . . @ d @.<.1.1.<.,.&.2.M.n.,.o.@.&.#.+.l C 8             * x =._.-X3X=X.X.X X{.[         ",
"    u 9 7 X . . # >.H.V.B.H.B.B.B.V.N.<.#.&.*.*.,.-.G 8 3         & , p.Y.Q.(.!.Y.g.a.K y           ",
"    . 9 | oX@X+X+X*X;X-X-X-X-X-X;X;X;X=X*X.X^.^./.U.] 8 +         R p.K.Q.J.M.m.n.$.O.s .           ",
"    . $ OX6XqX9X9X9X7X7X7X7X7X7XeX0X0X0X8X1X%X&X%X+X| 7       * D i.T.Q.W.G.G.F.N.4.-.V ;           ",
"      O oX6XqXwX9XqXqXqXqXqXqXqXqXqXqXqXwX1X#X+X#XoX} 1 .     = K k.F.Q.W.Q.Q.W.z.r.H m :           ",
"        ].oX$XOX$X6XqXqXqXqXqXqXwX5X1X5X1X#X`... .{ ' ; - : 2 ; Z r.N.A.W.Q.Q.Q.k.I n M             ",
"          . . . p $X9XqXqXqXqXqX5X$XOX%XOX].r . # 0 q e r e u 8 m H q.z.D.W.Q.W.h.A *               ",
"            . . .  X,X2X>X$X=X$XXX{.`.{.].L.c d g l v I U U I I I F G r.x.A.A.x.u.u =               ",
"                  ` ` ` ! J Q Q Q Q Q Q ( E ;.:.;.;.;.w.w.q.w.e.q.G q L w.d.4.s.9.A 2               ",
"                    . u } [.[.].L.P g o . j 6.s.f.f.d.:.3.s.s.4.w.P N F P 6.0.P G r                 ",
"                  . . |.1X9X9X6X>X_.5.j % % q t.Z.A.f.;.;.:.e.s.w.q.0.I B n B N N                   ",
"                    .  X5XqXqXqX4X_.1.-.Z t Z p.T.F.x.s.>.>.w.w.e.3.s.7.B < 5 , ,                   ",
"                      ].oX1X6X5X>XP.&.d.v.k.k.S.).).F.S.j.3.3.3.3.3.s.:.7.L S y 4 t                 ",
"                        . ` oX%X|.! x z.Q.Q.W.W.W.W.).F.C.s.;.e.w.s.w.3.3.q.T y y u 9               ",
"                          . } [. .W V i.b.S.b.v.k.k.v.k.p.9.P 8.8.8.8.7.7.8.K i y i 9               ",
"                            ) _ _ ) ( K T R T T K T T T N m m Z B Z S Z B Z a a i i q               ",
"                            . . e ^ / 6 * * = = = ; ; ; : : > : : 3 : : : > 8 9 9 9 9               ",
"                            O 7 u ~ i 5       ; , < t y y t 8                                       ",
"                            9 e u 9 9           9 e i p i e 9                                       ",
"                                9 9             9 i p u u u                                         ",
"                                                q u i u 9                                           ",
"                                                t 9 9 9                                             ",
"                                                                                                    ",
"                                                                                                    ",
"                                                                                                    ",
"                                                                                                    ",
"                                                                                                    ",
"                                                                                                    ",
"                                                                                                    "
};
