/* XPM */
static char *ccb5cc49499848d095c820bb4f3aad1eXESlUGgED0KYQbEa[] = {
/* columns rows colors chars-per-pixel */
"50 50 222 2 ",
"   c None",
".  c #000000",
"X  c #03090B",
"o  c #00131B",
"O  c #0D1B1D",
"+  c #171816",
"@  c #2B221F",
"#  c #000226",
"$  c #00162C",
"%  c #001B2C",
"&  c #001525",
"*  c #00232C",
"=  c #00292F",
"-  c #09272B",
";  c #162A2C",
":  c #1A2C2E",
">  c #1B2729",
",  c #002431",
"<  c #002A31",
"1  c #0C2D32",
"2  c #1C2E31",
"3  c #1A3436",
"4  c #00343C",
"5  c #242423",
"6  c #282827",
"7  c #222C2D",
"8  c #2D2D2C",
"9  c #302E2D",
"0  c #3D2D28",
"q  c #31302E",
"w  c #3B322E",
"e  c #252F31",
"r  c #263435",
"t  c #2A3739",
"y  c #2A3637",
"u  c #343433",
"i  c #313939",
"p  c #393837",
"a  c #470300",
"s  c #461B00",
"d  c #571200",
"f  c #680100",
"g  c #750000",
"h  c #7E1400",
"j  c #542303",
"k  c #4C2711",
"l  c #682300",
"z  c #752C00",
"x  c #793700",
"c  c #6C3510",
"v  c #743A16",
"b  c #49332A",
"n  c #573628",
"m  c #483730",
"M  c #553E34",
"N  c #643E2F",
"B  c #693C28",
"V  c #743F26",
"C  c #713F28",
"Z  c #5E4034",
"A  c #574036",
"S  c #6D412E",
"D  c #75432B",
"F  c #7A442A",
"G  c #644234",
"H  c #6B4332",
"J  c #764A35",
"K  c #7D4D35",
"L  c #734632",
"P  c #253D41",
"I  c #3B4648",
"U  c #294145",
"Y  c #444443",
"T  c #4D4D4C",
"R  c #484847",
"E  c #574A45",
"W  c #5D5D5D",
"Q  c #575655",
"!  c #4A4F50",
"~  c #655A56",
"^  c #65534D",
"/  c #465E63",
"(  c #5E6769",
")  c #646463",
"_  c #6B6968",
"`  c #747474",
"'  c #7B7C7C",
"]  c #757B7D",
"[  c #6B7B7E",
"{  c #870A00",
"}  c #912D00",
"|  c #9A2500",
" . c #873C00",
".. c #913900",
"X. c #9D3D00",
"o. c #953600",
"O. c #893408",
"+. c #874208",
"@. c #9B4600",
"#. c #9A4701",
"$. c #9B4D1D",
"%. c #974C1E",
"&. c #934A1C",
"*. c #A34400",
"=. c #A94A00",
"-. c #BE4A00",
";. c #AE5000",
":. c #B45400",
">. c #A3521F",
",. c #A9551D",
"<. c #BA611E",
"1. c #8D4A25",
"2. c #844727",
"3. c #944C23",
"4. c #994F24",
"5. c #914F2D",
"6. c #8F512D",
"7. c #9E5021",
"8. c #9B542D",
"9. c #814E33",
"0. c #8A553A",
"q. c #875237",
"w. c #995A3A",
"e. c #A25221",
"r. c #AB5924",
"t. c #A8592A",
"y. c #A45D36",
"u. c #B25E2A",
"i. c #B5612E",
"p. c #BD662F",
"a. c #AB633B",
"s. c #BC6C3D",
"d. c #B76636",
"f. c #C35C00",
"g. c #C75B00",
"h. c #CB6101",
"j. c #D26400",
"k. c #C4651E",
"l. c #D76F16",
"z. c #CA6C2A",
"x. c #D97327",
"c. c #C46C35",
"v. c #C36F3D",
"b. c #C86E38",
"n. c #C5713F",
"m. c #CD7139",
"M. c #D7783D",
"N. c #E47F3E",
"B. c #865947",
"V. c #8D6251",
"C. c #A76E59",
"Z. c #AC7059",
"A. c #AA674A",
"S. c #AC7967",
"D. c #92756C",
"F. c #C47242",
"G. c #CB7442",
"H. c #D67941",
"J. c #DC7C42",
"K. c #D27741",
"L. c #C16F40",
"P. c #E17F44",
"I. c #98857E",
"U. c #BD8A76",
"Y. c #AC8072",
"T. c #D78256",
"R. c #E48144",
"E. c #E0895C",
"W. c #C6876D",
"Q. c #E49C7C",
"!. c #798182",
"~. c #848484",
"^. c #8A8C8C",
"/. c #9B8E8B",
"(. c #8C9294",
"). c #959696",
"_. c #9B9A9A",
"`. c #969A9B",
"'. c #B48E81",
"]. c #BA9589",
"[. c #A89F9C",
"{. c #B3A29D",
"}. c #ACACAC",
"|. c #A6A7A8",
" X c #BBA8A3",
".X c #ADB2B3",
"XX c #B3B4B4",
"oX c #BABDBD",
"OX c #CB9580",
"+X c #DA9D84",
"@X c #C19C90",
"#X c #E39F81",
"$X c #C9A69B",
"%X c #DEA28A",
"&X c #E7A68B",
"*X c #D7B7AD",
"=X c #C4B9B6",
"-X c #D0ABA1",
";X c #E7BCAE",
":X c #EACABF",
">X c #BEC3C4",
",X c #C3C3C3",
"<X c #CACACA",
"1X c #CAC6C5",
"2X c #DBCAC5",
"3X c #D2D2D2",
"4X c #DCDCDC",
"5X c #D6D2D1",
"6X c #E5DAD7",
"7X c #F4DDD6",
"8X c #EAE1DE",
"9X c #F5E2DC",
"0X c #F9E0D8",
"qX c #DDE0E1",
"wX c #E2E2E2",
"eX c #EAECEC",
"rX c #E8E7E7",
"tX c #F7ECE9",
"yX c #F3F4F4",
"uX c #FEFEFE",
"iX c #F8F6F6",
"pX c #F4F1F0",
/* pixels */
"                                                                                                    ",
"                                                                                                    ",
"                                                                                                    ",
"                                                                                                    ",
"                                                                                                    ",
"                                                                                                    ",
"                                                                                                    ",
"                                                                                                    ",
"                                                                                                    ",
"                                2 <                                                                 ",
"                            u 8 q 2 :                                                               ",
"                            r u b l j k                                                             ",
"      8 1 % % = <           3 8 l g g j <                                                           ",
"    e q M G G Z m b         o q V.S.S.B.0 @                                                         ",
"    * q 0.A.s.t.2.B w       . u [.5X2X'.z d w                                                       ",
"    $ 7 w.G.M.p.%.D b =     . u >XiXpX$X} f w =                                                     ",
"      e q.a.d.8.V n 2 * %   . 1 >XuXuX$X} g p <                                                     ",
"          Z Z m 6 = * * * & . < oXuXiX$X} f w ,                                                     ",
"          $ 1 M J J J K 9.K l J  X8X6XOX..l w <                                                     ",
"          $ A w.L.F.s.n.n.F.z.A.U.@X].Z.#.v w ,                                                     ",
"          * K s.J.J.H.K.M.M.J.J.<.X.} @.7.L w <                                                     ",
"      e n D 8.u.p.c.p.i.w.y.G.H.k.X.} @.4.L e ,                     $ $ $ $ , # . . . . . . . . 6 u ",
"    < 8 S 3.e.e.7.e.e.2.b M a.K.m.t.%.>.4.F u <                   : : 7 : ; : ; O . . . . + 5 6 8 u ",
"    . . a z ..*.;.;.;.#.x +.i.x.g.*...@.@.+.c k                   J 0.B.w.6.O.5.I.|.XXXX}._.' ) Y 5 ",
"u 6 . . . . f *.g.j.g.g.f.f.j.j.:.| { } @.X...x n <           # w w.m.K.G.z.g.z.*XeXiXyXrX3X}.~.T . ",
"5 Y _ ' !.[ I.OX#X#X#X#X#X#X#X#X+XW.Y.S.C.Z.Z.V.Z *           m w.A.J.N.M.T.E.&X7XuXuXuXyX4X}.~.T . ",
". W XX4XeXqX4X6X7X7X7X7X7X7X7X9XrX7X5X=X{. X X/.~ .       * L w.F.K.J.x.l.Q.:XtXuXuXuXpX3XXX' W     ",
". ) <XuXuXuXuXuXuXuXuXuXuXuXuXuXuXuXpX3X.XXXoX_.( .       * 0.F.J.R.H.l.j.%X0XuXuXuXrX<X_.` + .     ",
"  ) }.3X4X3XwXuXuXuXuXuXuXuXiXeXeXpX4X.X!.(.`.!.! X o   % * 0.G.R.R.H.z.h.W.*X6XrXrX3X|.` R .       ",
"    W W Q p ).wXuXuXuXuXuXuXqX,X,X<X.X] t t I U r ; ; : * * K v.R.R.H.c.r.8.y.S. X1XXX' 6           ",
"      . . . ) oXwXwX4X4X4X3XXX).(.`.~.^ a a a k n N N N M n 9.y.n.m.m.d.6.z g { D._.~.Y .           ",
"              ~.^.^.` ` ` ` ) / / / Q J x +.O.O.1.1.1.3.1.1.2.L J 8.u.8.D b j n ~ _ W               ",
"              . . 6 ! Q Q T m j s s c 3.r.r.r.e.e.7.e.>.,.e.1.b 9 V &.V w * < ; o . .               ",
"              . + _.<X3X3X=X'.=.*.t.i.d.b.b.c.i.e.$.$.e.e.e.3.2.V V C n                             ",
"              . Q =XiXuXuXpX:Xm.j.H.H.H.H.H.H.v.r.%.$.7.7.7.e.e.3.D 9 <                             ",
"              . R |.3XeXyXrX:X+XT.G.z.M.J.R.R.K.c.u.t.7.$.e.e.,.4.D : ,                             ",
"              + p T _ ).oX<X1X=X].A.:.z.J.P.J.J.J.m.i.>.$.>.e.,.4.F 8 <                             ",
"              p 8 . . R ^.|.}.}./.B.#.d.G.F.n.n.G.s.y.1.1.3.1.4.2.S q <                             ",
"              8 q q u T ) ` ] ] _ Z S B.V.B.q.q.q.9.J G N N N H G M 8 7                             ",
"              6 u R T Y 8 . . + O > t I I i = * * 1 r i y 2 e t i p 8 8                             ",
"              8 u Y R p X       X ; r U P 4   & , < 3 y 3 < < r t i u q                             ",
"              q u p u u           8 i p u       q u p q q     q u p q q                             ",
"                8 8 6             u q 6 6       q q 8 8         8 q q                               ",
"                                                                                                    ",
"                                                                                                    ",
"                                                                                                    ",
"                                                                                                    ",
"                                                                                                    ",
"                                                                                                    ",
"                                                                                                    "
};
