/* XPM */
static char *result[] = {
/* columns rows colors chars-per-pixel */
"50 50 216 2 ",
"   c #010000",
".  c #0C0D0B",
"X  c #00060E",
"o  c #000B10",
"O  c #061519",
"+  c #1D1C1D",
"@  c #1A1716",
"#  c #1F0907",
"$  c #220100",
"%  c #370000",
"&  c #2B1E1A",
"*  c #29110B",
"=  c #34241E",
"-  c #000C2A",
";  c #00002A",
":  c #00152C",
">  c #011D2D",
",  c #051B29",
"<  c #191D21",
"1  c #3B1820",
"2  c #01262E",
"3  c #09262B",
"4  c #16232A",
"5  c #1D2C2F",
"6  c #192327",
"7  c #0E2C32",
"8  c #062730",
"9  c #132B31",
"0  c #1A2D30",
"q  c #123135",
"w  c #2B2625",
"e  c #2A2927",
"r  c #242C2D",
"t  c #2D2D2D",
"y  c #232527",
"u  c #312F2E",
"i  c #3C2E2B",
"p  c #2D302F",
"a  c #33302F",
"s  c #3B322E",
"d  c #212E30",
"f  c #243234",
"g  c #293739",
"h  c #343433",
"j  c #3B3431",
"k  c #343C3C",
"l  c #393939",
"z  c #383937",
"x  c #5E0E00",
"c  c #561B0A",
"v  c #640000",
"b  c #7E0000",
"n  c #720000",
"m  c #5B2B13",
"M  c #5A2505",
"N  c #6F3200",
"B  c #783507",
"V  c #6E2F0E",
"C  c #442921",
"Z  c #522D23",
"A  c #43332E",
"S  c #4D342C",
"D  c #553224",
"F  c #5A392D",
"G  c #58372A",
"H  c #443431",
"J  c #4B3934",
"K  c #523B32",
"L  c #5A3E32",
"P  c #6B3B25",
"I  c #623C2C",
"U  c #6A3E29",
"Y  c #57403A",
"T  c #6C412D",
"R  c #74422B",
"E  c #7D462B",
"W  c #7E4426",
"Q  c #654335",
"!  c #674739",
"~  c #7A4E3D",
"^  c #724732",
"/  c #3A4343",
"(  c #344E52",
")  c #444645",
"_  c #4A4B4A",
"`  c #454949",
"'  c #465456",
"]  c #5A5958",
"[  c #645550",
"{  c #745548",
"}  c #485D62",
"|  c #545F61",
" . c #5A6162",
".. c #6C6C6C",
"X. c #646A6C",
"o. c #737373",
"O. c #757A7B",
"+. c gray49",
"@. c #736F6D",
"#. c #810000",
"$. c #910400",
"%. c #832D00",
"&. c #962700",
"*. c #953B01",
"=. c #853D11",
"-. c #903714",
";. c #9D3620",
":. c #9A4505",
">. c #834218",
",. c #94491D",
"<. c #9C4D1D",
"1. c #9C4311",
"2. c #9F501D",
"3. c #AB4C00",
"4. c #A04003",
"5. c #B54C00",
"6. c #A2521F",
"7. c #A75319",
"8. c #824525",
"9. c #8C4924",
"0. c #8B4B2A",
"q. c #864828",
"w. c #924C24",
"e. c #9B4E21",
"r. c #9D4523",
"t. c #9D5122",
"y. c #9A5128",
"u. c #885336",
"i. c #9C5D3B",
"p. c #975835",
"a. c #A35322",
"s. c #A95828",
"d. c #B25E2B",
"f. c #A45E37",
"g. c #A5623B",
"h. c #AC633A",
"j. c #BC6C3E",
"k. c #B76637",
"l. c #BB642C",
"z. c #C56213",
"x. c #C9681F",
"c. c #D06A1C",
"v. c #C05920",
"b. c #CC6424",
"n. c #C76527",
"m. c #D46A24",
"M. c #C36B36",
"N. c #C36E3C",
"B. c #C86F39",
"V. c #CD723B",
"C. c #CD7037",
"Z. c #D2763E",
"A. c #D6783E",
"S. c #D87738",
"D. c #8D5B47",
"F. c #9C5E44",
"G. c #936453",
"H. c #A6644B",
"J. c #BC6E46",
"K. c #AD705B",
"L. c #9A7062",
"P. c #A87A6C",
"I. c #C57143",
"U. c #CC7541",
"Y. c #C2714A",
"T. c #D37741",
"R. c #D67941",
"E. c #DB7C43",
"W. c #D27B4D",
"Q. c #E07D42",
"!. c #AD8577",
"~. c #B88777",
"^. c #B88A7B",
"/. c #DE804A",
"(. c #E38143",
"). c #E28348",
"_. c #DC987B",
"`. c #757E80",
"'. c #7B8385",
"]. c #838282",
"[. c #8B8B8B",
"{. c #939292",
"}. c #989A9A",
"|. c #9C918D",
" X c #B79C94",
".X c #AB978F",
"XX c #9DA3A5",
"oX c #A3A4A4",
"OX c #ABABAC",
"+X c #A7A7A7",
"@X c #BAADAA",
"#X c #AFB4B5",
"$X c #B2B3B3",
"%X c #B3B7B8",
"&X c #BABBBB",
"*X c #C29482",
"=X c #CBACA2",
"-X c #D4B5AB",
";X c #CCBAB4",
":X c #E9B5A2",
">X c #BDC0C2",
",X c #C4C5C5",
"<X c #CACACA",
"1X c #D7C6C1",
"2X c #DCDDDD",
"3X c #D5D3D3",
"4X c #EED6CF",
"5X c #E3E3E3",
"6X c #ECEDED",
"7X c #F4EAE6",
"8X c #FAF1EE",
"9X c #F4F3F3",
"0X c #FCF6F4",
"qX c #F6F9FA",
"wX c #FDFEFE",
"eX c None",
/* pixels */
"eXeXeXeXeXeXeXeXeXeXeXeXeXeXeXeXeXeXeXeXeXeXeXeXeXeXeXeXeXeXeXeXeXeXeXeXeXeXeXeXeXeXeXeXeXeXeXeXeXeX",
"eXeXeXeXeXeXeXeXeXeXeXeXeXeXeXeXeXeXeXeXeXeXeXeXeXeXeXeXeXeXeXeXeXeXeXeXeXeXeXeXeXeXeXeXeXeXeXeXeXeX",
"eXeXeXeXeXeXeXeXeXeXeXeXeXeXeXeXeXeXeXeXeXeXeXeXeXeXeXeXeXeXeXeXeXeXeXeXeXeXeXeXeXeXeXeXeXeXeXeXeXeX",
"eXeXeXeXeXeXeXeXeXeXeXeXeXeXeXeXeXeXeXeXeXeXeXeXeXeXeXeXeXeXeXeXeXeXeXeXeXeXeXeXeXeXeXeXeXeXeXeXeXeX",
"eXeXeXeXeXeXeXeXeXeXeXeXeXeXeXeXeXeXeXeXeXeXeXeXeXeXeXeXeXeXeXeXeXeXeXeXeXeXeXeXeXeXeXeXeXeXeXeXeXeX",
"eXeXeXeXeXeXeXeXeXeXeXeXeXeXeXeXeXeXeXeXeXeXeXeXeXeXeXeXeXeXeXeXeXeXeXeXeXeXeXeXeXeXeXeXeXeXeXeXeXeX",
"eXeXeXeXeXeXeXeXeXeXeXeXeXeXeXeXeXeXeXeXeXeXeXeXeXeXeXeXeXeX9 f a eXeXeXeXeXeXeXeXeXeXeXeXeXeXeXeXeX",
"eXeXeXeXeXeXeXeXeXeXeXeXeXeXeXeXeXeXeXeXeXeXeXeXeXeXeXeXeXA H z p eXeXeXeXeXeXeXeXeXeXeXeXeXeXeXeXeX",
"eXeXeXeXeXeXeXeXeXeXeXeXeXeXeXeXeXeXeXeXeXeXeXeXeXeXeXeX& v n M p eXeXeXeXeX2 > : , r eXeXeXeXeXeXeX",
"eXeXeXeXeXeXeXeXeXeXeXeXeXeXeXeXeXeXeXeXeXeXeXeXeXeXeX6 ! F.H.{ r eXeXeXeXs A J J J z p eXeXeXeXeXeX",
"eXeXeXeXeXeXeXeXeXeXeXeXeXeXeXeXeXeXeXeXeXeXeXeXeXeXC x L.-X1X|.w eXeXeXs I 8.f.k.F.K 2 eXeXeXeXeXeX",
"eXeXeXeXeXeXeXeXeXeXeXeXeXeXeXeXeXeXeXeXeXeXeXeXeX5 Z b ~.7XqX$Xh eXeXeXa R t.M.T.j.L : eXeXeXeXeXeX",
"eXeXeXeXeXy   eXeXeXeXeXeXeXeXeXeXeXeXeXeXeXeXeXeX0 Z #.^.8XwX%Xf   : > 2 A P p.g.p.K eXeXeXeXeXeXeX",
"eXeXeXeXt h l g eXeXeXeXeXeXeXeXeXeXeXeXeXeXeXeXeX0 Z b ^.7XqX#Xw $ j a u u u l H s eXeXeXeXeXeXeXeX",
"eXeXeXeX. _ L.'. .eXeXeXeXeXeXeXeXeXeXeXeXeXeXeXeX0 Z %.K.-X1X.Xw.t.H.f.f.f.p.^ 7 ; eXeXeXeXeXeXeXeX",
"eXeXeXeX  ] XX#X].h h l a t eXeXeXeXeXeXeXeXeXeXeX9 L 9.a.F.H.N.A.A.A.T.T.R.T.h.H - eXeXeXeXeXeXeXeX",
"eXeXeXeX  ] +X,X,X&X>X&X XF.N eXeXeXeXeXeXeXeXeXeX2 K 0.1.&.&.x.(.I.h.k.B.C.B.h.W G eXeXeXeXeXeXeXeX",
"eXeXeXeXX ] }.,X5XwXwXwX1XW.:.A > eXeXeXeXeXeXeXeX9 K 0.6.t.s.V.T.p.A R t.s.a.a.t.E A 7 eXeXeXeXeXeX",
"eXeXeXeXeX_ o.OX2XqX9X4X:X).z.f.Q eXeXeXeXeXeXeXC m B :.:.&.:.z.c.7.N *.3.5.3.:.%.c *   eXeXeXeXeXeX",
"eXeXeXeXeXeXe ..#X<X=XP.Y.E.A.Z.f.H - eXeXeXeX9 D =.1.1.-.-.;.v.m.b.b.b.b.m.b.r.1 O + + e h eXeXeXeX",
"eXeXeXeXeXeXeXy O.{.G.$.5.E.).E.U.F.Q eXeXeXeX6 [ P.!.!.^. X=X-X:X:X:X:X:X:X:X=XoXXXOX{.' . eXeXeXeX",
"eXeXeXeXeXeXeXeX' ] ~ <.l.E.E.E.R.U.g.K eXeXeX+ ..oX;X$X;X5X0X0X0X0X8X8X8X8X8X9XqXwXqX3Xo.  eXeXeXeX",
"eXeXeXeXeXeXeXeXo * B a.l.B.Z.R.Q.(.N.! : eXeX. ] }.OXXX%X5XwXqXqXwXwXwXwXwXwXwX6X6X6X>X..eXeXeXeXeX",
"eXeXeXeXeXeXeXeX, i 8.a.a.s.M.R.(.(.j.L : 5 4 3 k ' | ( O.&X3X<X3X9XwXwXwXwXwX2X}.!.[.'.eXeXeXeXeXeX",
"eXeXeXeXeXeXeXeXeXj R w.w.<.d.V.V.J.f.T S L F F D c % % Y ].}.}.oX,X5X5X2X6X5X$Xu   . eXeXeXeXeXeXeX",
"eXeXeXeXeXeXeXeXeXeXA I q.<.s.d.p.^ R q.w.w.w.9.>.W >.=.W [ } ( | ..o.o.o.[.{.+.eXeXeXeXeXeXeXeXeXeX",
"eXeXeXeXeXeXeXeXeXeXeXd U w.e.9.P i P e.6.a.6.6.6.s.d.d.s.=.m m m [ ..o...) . + eXeXeXeXeXeXeXeXeXeX",
"eXeXeXeXeXeXeXeXeXeXeXeXS I I F P W w.e.6.a.<.,.a.M.V.V.I.M.M.5.Y.;X5X6X5XOXl   eXeXeXeXeXeXeXeXeXeX",
"eXeXeXeXeXeXeXeXeXeXeXeXeX0 9 0 T t.6.t.t.e.t.a.l.Z.E.E.T.T.T.S._.4XwXwX9X&X_   eXeXeXeXeXeXeXeXeXeX",
"eXeXeXeXeXeXeXeXeXeXeXeXeXeX2 0 R <.6.6.2.<.d.M.Z.E.E./.Z.z.H._.-X3X2X,XoXO.z   eXeXeXeXeXeXeXeXeXeX",
"eXeXeXeXeXeXeXeXeXeXeXeXeXeXeXt R t.a.e.,.,.s.N.T.U.U.E.V.3.D.|.%X%XoX@.+ X u h eXeXeXeXeXeXeXeXeXeX",
"eXeXeXeXeXeXeXeXeXeXeXeXeXeXeXp E t.,.R I I ^ u.u.u.f.Z.A.y.Y ..+.O.@.~ B m a q eXeXeXeXeXeXeXeXeXeX",
"eXeXeXeXeXeXeXeXeXeXeXeXeXeXeXt R w.q.s 8 r 5 r y , Q J.I.u.< < y < w 8.y.E h 2 eXeXeXeXeXeXeXeXeXeX",
"eXeXeXeXeXeXeXeXeXeXeXeXeXeXeXp L ^ Q h q f f 7 8 > J D.F.! 4   eX  & Q ~ { a 3 eXeXeXeXeXeXeXeXeXeX",
"eXeXeXeXeXeXeXeXeXeXeXeXeXeXeXh z k h h h z z h t t l ` ( / t eXeXeXh ) _ ` h e eXeXeXeXeXeXeXeXeXeX",
"eXeXeXeXeXeXeXeXeXeXeXeXeXeXeXh k g f eXh z h a eXeXf g / k u eXeXeXeXk / / h e eXeXeXeXeXeXeXeXeXeX",
"eXeXeXeXeXeXeXeXeXeXeXeXeXeXeXa h h u eXeXt t eXeXeXeXt h h a eXeXeXeXt h h h t eXeXeXeXeXeXeXeXeXeX",
"eXeXeXeXeXeXeXeXeXeXeXeXeXeXeXeXt t eXeXeXeXeXeXeXeXeXeXe u eXeXeXeXeXeXeXt t eXeXeXeXeXeXeXeXeXeXeX",
"eXeXeXeXeXeXeXeXeXeXeXeXeXeXeXeXeXeXeXeXeXeXeXeXeXeXeXeXeXeXeXeXeXeXeXeXeXeXeXeXeXeXeXeXeXeXeXeXeXeX",
"eXeXeXeXeXeXeXeXeXeXeXeXeXeXeXeXeXeXeXeXeXeXeXeXeXeXeXeXeXeXeXeXeXeXeXeXeXeXeXeXeXeXeXeXeXeXeXeXeXeX",
"eXeXeXeXeXeXeXeXeXeXeXeXeXeXeXeXeXeXeXeXeXeXeXeXeXeXeXeXeXeXeXeXeXeXeXeXeXeXeXeXeXeXeXeXeXeXeXeXeXeX",
"eXeXeXeXeXeXeXeXeXeXeXeXeXeXeXeXeXeXeXeXeXeXeXeXeXeXeXeXeXeXeXeXeXeXeXeXeXeXeXeXeXeXeXeXeXeXeXeXeXeX",
"eXeXeXeXeXeXeXeXeXeXeXeXeXeXeXeXeXeXeXeXeXeXeXeXeXeXeXeXeXeXeXeXeXeXeXeXeXeXeXeXeXeXeXeXeXeXeXeXeXeX",
"eXeXeXeXeXeXeXeXeXeXeXeXeXeXeXeXeXeXeXeXeXeXeXeXeXeXeXeXeXeXeXeXeXeXeXeXeXeXeXeXeXeXeXeXeXeXeXeXeXeX",
"eXeXeXeXeXeXeXeXeXeXeXeXeXeXeXeXeXeXeXeXeXeXeXeXeXeXeXeXeXeXeXeXeXeXeXeXeXeXeXeXeXeXeXeXeXeXeXeXeXeX",
"eXeXeXeXeXeXeXeXeXeXeXeXeXeXeXeXeXeXeXeXeXeXeXeXeXeXeXeXeXeXeXeXeXeXeXeXeXeXeXeXeXeXeXeXeXeXeXeXeXeX",
"eXeXeXeXeXeXeXeXeXeXeXeXeXeXeXeXeXeXeXeXeXeXeXeXeXeXeXeXeXeXeXeXeXeXeXeXeXeXeXeXeXeXeXeXeXeXeXeXeXeX",
"eXeXeXeXeXeXeXeXeXeXeXeXeXeXeXeXeXeXeXeXeXeXeXeXeXeXeXeXeXeXeXeXeXeXeXeXeXeXeXeXeXeXeXeXeXeXeXeXeXeX",
"eXeXeXeXeXeXeXeXeXeXeXeXeXeXeXeXeXeXeXeXeXeXeXeXeXeXeXeXeXeXeXeXeXeXeXeXeXeXeXeXeXeXeXeXeXeXeXeXeXeX",
"eXeXeXeXeXeXeXeXeXeXeXeXeXeXeXeXeXeXeXeXeXeXeXeXeXeXeXeXeXeXeXeXeXeXeXeXeXeXeXeXeXeXeXeXeXeXeXeXeXeX"
};
