/* XPM */
static char *_65b34077ad0425f9da6a12aef916760vKxBihy7u4YambWs[] = {
/* columns rows colors chars-per-pixel */
"50 50 222 2 ",
"   c None",
".  c black",
"X  c #00080B",
"o  c #00161A",
"O  c #1A1A18",
"+  c #0F060D",
"@  c #220000",
"#  c #350000",
"$  c #3F1400",
"%  c #29231F",
"&  c #00152B",
"*  c #001C2C",
"=  c #001923",
"-  c #00032B",
";  c #00232D",
":  c #012A2F",
">  c #0C2B2F",
",  c #122B2E",
"<  c #182B2E",
"1  c #1A2425",
"2  c #002530",
"3  c #012B31",
"4  c #0A2D32",
"5  c #0F3439",
"6  c #242D2E",
"7  c #2D2D2C",
"8  c #252524",
"9  c #322E2C",
"0  c #362923",
"q  c #33312E",
"w  c #3A312E",
"e  c #242F30",
"r  c #2B3232",
"t  c #263637",
"y  c #333332",
"u  c #3C3633",
"i  c #353A39",
"p  c #393A39",
"a  c #450200",
"s  c #4A1704",
"d  c #6C0000",
"f  c #760000",
"g  c #4B2A1A",
"h  c #5D3017",
"j  c #772D00",
"k  c #783607",
"l  c #6C3918",
"z  c #472E24",
"x  c #44332D",
"c  c #4A342D",
"v  c #53372C",
"b  c #5C3B2D",
"n  c #573629",
"m  c #423631",
"M  c #4A3730",
"N  c #4B3A33",
"B  c #453B36",
"V  c #533B31",
"C  c #5B3C30",
"Z  c #6C3B25",
"A  c #673D2A",
"S  c #603F32",
"D  c #7C411F",
"F  c #5F4032",
"G  c #6E412C",
"H  c #7C452B",
"J  c #7A4429",
"K  c #634132",
"L  c #6A4635",
"P  c #764934",
"I  c #754C3A",
"U  c #7F5039",
"Y  c #003B43",
"T  c #384547",
"R  c #4C4C4B",
"E  c #464847",
"W  c #46575B",
"Q  c #5B5C5C",
"!  c #525D5F",
"~  c #504F4E",
"^  c #6E5248",
"/  c #635B59",
"(  c #744F42",
")  c #7F6258",
"_  c #5A6567",
"`  c #5A6E73",
"'  c #6D6E6D",
"]  c #636B6C",
"[  c #757373",
"{  c #7C7C7C",
"}  c #73706F",
"|  c #8D0700",
" . c #8E1300",
".. c #932B00",
"X. c #833400",
"o. c #873E00",
"O. c #963A00",
"+. c #983A00",
"@. c #8E2F00",
"#. c #A53600",
"$. c #954300",
"%. c #9D4A03",
"&. c #87451D",
"*. c #9B4C14",
"=. c #9C4E1D",
"-. c #90491F",
";. c #9E511F",
":. c #8F4303",
">. c #A44C01",
",. c #AC4B00",
"<. c #B44D00",
"1. c #AA5204",
"2. c #BA5508",
"3. c #A4531F",
"4. c #A8541E",
"5. c #B05711",
"6. c #834524",
"7. c #8D4A26",
"8. c #85492A",
"9. c #894A2A",
"0. c #884722",
"q. c #934D24",
"w. c #994E22",
"e. c #9E5021",
"r. c #9C552C",
"t. c #8B5539",
"y. c #865236",
"u. c #9B5D3C",
"i. c #945838",
"p. c #824C34",
"a. c #A35322",
"s. c #AC5D2B",
"d. c #AA5825",
"f. c #B25D28",
"g. c #A55D36",
"h. c #B7632E",
"j. c #AD643B",
"k. c #A5603A",
"l. c #B2663B",
"z. c #B6693D",
"x. c #BD6D3E",
"c. c #BA6532",
"v. c #C65700",
"b. c #C9630E",
"n. c #CC6B24",
"m. c #C46B35",
"M. c #C46E3B",
"N. c #CA6D33",
"B. c #CB713A",
"V. c #D3763E",
"C. c #D37437",
"Z. c #D1702E",
"A. c #8E5A43",
"S. c #A25F42",
"D. c #94634F",
"F. c #A76445",
"G. c #A76B53",
"H. c #BB734F",
"J. c #8E7770",
"K. c #B47D67",
"L. c #A97762",
"P. c #CD7541",
"I. c #C67242",
"U. c #D17741",
"Y. c #D57942",
"T. c #DB7C43",
"R. c #CA7D57",
"E. c #E07E43",
"W. c #BA8775",
"Q. c #AF8273",
"!. c #E28248",
"~. c #CC8464",
"^. c #DE8D66",
"/. c #D68A66",
"(. c #E38F66",
"). c #7D8182",
"_. c #888A8A",
"`. c #988D8A",
"'. c #929292",
"]. c #9B9C9C",
"[. c #92999B",
"{. c #8E9596",
"}. c #A6918B",
"|. c #B79489",
" X c #B39B94",
".X c #AB8E86",
"XX c #BAA098",
"oX c #9B9FA0",
"OX c #9EA4A6",
"+X c #A2A3A3",
"@X c #ABABAB",
"#X c #A6ACAE",
"$X c #B3B3B3",
"%X c #BCBCBC",
"&X c #AEB6B8",
"*X c #C19789",
"=X c #C7A297",
"-X c #DCA692",
";X c #CDBAB4",
":X c #D6BBB3",
">X c #C8B0A9",
",X c #DAC1BB",
"<X c #BEC1C2",
"1X c #CBCCCC",
"2X c #C5C6C6",
"3X c #D9CDC9",
"4X c #D4D4D4",
"5X c #DDDBDB",
"6X c #CCD1D2",
"7X c #E8D2CA",
"8X c #F1D0C5",
"9X c #F3D3C9",
"0X c #E4D8D4",
"qX c #E9CEC5",
"wX c #E4E4E4",
"eX c #ECECEC",
"rX c #F3EFEE",
"tX c #F2F3F4",
"yX c #F6F9FA",
"uX c #FEFEFD",
"iX c #F6F6F7",
"pX c #EEF1F2",
/* pixels */
"                                                                                                    ",
"                                                                                                    ",
"                                                                                                    ",
"                                                                                                    ",
"                                                                                                    ",
"                                                                                                    ",
"                                                                                                    ",
"          9 6 ; & * :             & * : 3 3 :                                                       ",
"          7 u u B B x w           B N m w m m u                                                     ",
"          : L S.j.g.8.Z v       t.g.s.X.d j H A c                                                   ",
"          ; P H.V.m.a.6.n 3 * 9 u.P.C.1.@.O.w.6.v :                                                 ",
"          ; G j.M.l.q.Z m 3 2 e 8.h.~.=X=XW.g.o.C 3                                                 ",
"              P P L x 8 : * * ; . # }.5XrX:Xg.f n 3                                                 ",
"              * : y V F C K K K a @ `.wXiX:Xg.| z :                                                 ",
"              - 3 U j.z.z.z.z.z.s.a.K.>X;X|.g.X.n :                                   . .           ",
"              & M k.P.T.Y.Y.Y.Y.!.T.B.d.*.*.=.9.V :                                   y y           ",
"            c n H g.m.B.m.m.l.j.I.!.Z.,. .+.=.8.N 2                                 ] } [ Q         ",
"          : v 6.w.a.a.a.a.w.A M i.P.C.s.*.*.a.8.N 2                               O } ].+X} .       ",
"        ; o g k $.>.>.1.1.>.l l a.Z.Z.5.+.%.*.-.Z z z                           . + '.2X1X@X] R     ",
"      y . . . . a ..2.v.v.v.<.<.v.b.v.#.| ..+.O.O.j h r                           . +XwXtX4X+X{ R . ",
"    8 7 R Q Q W / L.^.(.^.^.^.^.^.^.~.K.G.F.S.S.F.S.I 6 ;                       . . #XtXuXwX$X_.R . ",
"    . 7 '.2X4X6X1X3X8X8X8X8X8X8X9X9X7X7X3X;X X X X.X} 8 .                 & & & . . #XyXuX0X.X) E o ",
"    . O @XrXuXuXuXuXuXuXuXuXuXuXuXuXuXuXtX5X%X$X;X#X{ 8 .               < < < < . . +XtXiX:X=.d x > ",
"      O ].4XtXwXwXyXuXuXuXuXuXuXuXyXpXyXeX1XOX[.OX{.] 1 .             P t.u.i.t.:.&. X3X7X|.+.f z 4 ",
"        ' { _.} '.4XuXuXuXuXuXuXtX4X2X4X2XOX_ T ! W T : ; : : : 2 * r t.M.U.P.I.M.I.H.W.Q.G.=.k x > ",
"          . . . . @XwXiXeXeXeXeX6X@X].+X].[ s @ # s g v V V b V v 4 r i.B.T.T.E.E.E.n.#. .$.e.H x 3 ",
"                  _.+X@X].'.'.'._.` _ ` ` ^ k j j k &.8.8.8.9.7.8.x 4 G s.N.V.E.!.E.N.>.O.>.a.8.M 4 ",
"                    . O 7 y y y w 0 0 1 g J 3.d.e.e.e.e.;.;.3.3.w.A w A 0.s.N.Y.T.Y.m.d.=.=.w.J x > ",
"                    . _ +X%X%X$X}.r.@.$.;.s.c.m.m.c.f.3.3.3.e.3.e.7.Z Z Z 9.s.m.B.m.h.d.w.7.H A x   ",
"                    . ].wXuXuXiXqX/.v.Z.Y.Y.V.V.T.C.h.;.=.=.e.e.w.e.w.H c b 7.d.d.a.a.a.w.H u 6     ",
"                  # s ].4XtXuXyX7X-X!.R.C.V.T.U.M.l.r.0.-.e.e.e.e.4.a.6.w e Z 0.0.&.7.q.6.b 3       ",
"                w k O.D.J.].2X4X1X;X=XK.5.n.Y.x.y.V c n 6.e.3.e.e.a.a.8.M e M b b S S S v c         ",
"              : m p.r.X.@ = ).@X&X&X+XJ.O.b.T.x.P > 3 r K q.e.e.e.e.w.J c : > > > , , , 4           ",
"              , y ( A.A @ X Q { _._.{ / J c.T.Y.x.u.( T B K 6.=.;.7.G b                             ",
"              7 y E ~ E p 7 7 y y y 6 ; v k.U.!.T.I.D.T Y e A w.w.H q :                             ",
"              7 y T T T i 8 . . . . . - u y.j.M.x.F.A.E 5 3 c P 8.S , :                             ",
"              q y p p y                   C K L L F N p r r u N N B r 6                             ",
"              7 7 7 7 7                     ; & * ; ; 7 9 q r t t i q 9                             ",
"                                                            r r i p y 7                             ",
"                                                              7 r r r 9                             ",
"                                                                7 q                                 ",
"                                                                                                    ",
"                                                                                                    ",
"                                                                                                    ",
"                                                                                                    ",
"                                                                                                    ",
"                                                                                                    ",
"                                                                                                    ",
"                                                                                                    ",
"                                                                                                    "
};
