/* XPM */
static char *result[] = {
/* columns rows colors chars-per-pixel */
"50 50 222 2 ",
"   c #000000",
".  c #03090B",
"X  c #00131B",
"o  c #0D1B1D",
"O  c #171816",
"+  c #2B221F",
"@  c #000226",
"#  c #00162C",
"$  c #001B2C",
"%  c #001525",
"&  c #00232C",
"*  c #00292F",
"=  c #09272B",
"-  c #162A2C",
";  c #1A2C2E",
":  c #1B2729",
">  c #002431",
",  c #002A31",
"<  c #0C2D32",
"1  c #1C2E31",
"2  c #1A3436",
"3  c #00343C",
"4  c #242423",
"5  c #282827",
"6  c #222C2D",
"7  c #2D2D2C",
"8  c #302E2D",
"9  c #3D2D28",
"0  c #31302E",
"q  c #3B322E",
"w  c #252F31",
"e  c #263435",
"r  c #2A3739",
"t  c #2A3637",
"y  c #343433",
"u  c #313939",
"i  c #393837",
"p  c #470300",
"a  c #461B00",
"s  c #571200",
"d  c #680100",
"f  c #750000",
"g  c #7E1400",
"h  c #542303",
"j  c #4C2711",
"k  c #682300",
"l  c #752C00",
"z  c #793700",
"x  c #6C3510",
"c  c #743A16",
"v  c #49332A",
"b  c #573628",
"n  c #483730",
"m  c #553E34",
"M  c #643E2F",
"N  c #693C28",
"B  c #743F26",
"V  c #713F28",
"C  c #5E4034",
"Z  c #574036",
"A  c #6D412E",
"S  c #75432B",
"D  c #7A442A",
"F  c #644234",
"G  c #6B4332",
"H  c #764A35",
"J  c #7D4D35",
"K  c #734632",
"L  c #253D41",
"P  c #3B4648",
"I  c #294145",
"U  c #444443",
"Y  c #4D4D4C",
"T  c #484847",
"R  c #574A45",
"E  c #5D5D5D",
"W  c #575655",
"Q  c #4A4F50",
"!  c #655A56",
"~  c #65534D",
"^  c #465E63",
"/  c #5E6769",
"(  c #646463",
")  c #6B6968",
"_  c #747474",
"`  c #7B7C7C",
"'  c #757B7D",
"]  c #6B7B7E",
"[  c #870A00",
"{  c #912D00",
"}  c #9A2500",
"|  c #873C00",
" . c #913900",
".. c #9D3D00",
"X. c #953600",
"o. c #893408",
"O. c #874208",
"+. c #9B4600",
"@. c #9A4701",
"#. c #9B4D1D",
"$. c #974C1E",
"%. c #934A1C",
"&. c #A34400",
"*. c #A94A00",
"=. c #BE4A00",
"-. c #AE5000",
";. c #B45400",
":. c #A3521F",
">. c #A9551D",
",. c #BA611E",
"<. c #8D4A25",
"1. c #844727",
"2. c #944C23",
"3. c #994F24",
"4. c #914F2D",
"5. c #8F512D",
"6. c #9E5021",
"7. c #9B542D",
"8. c #814E33",
"9. c #8A553A",
"0. c #875237",
"q. c #995A3A",
"w. c #A25221",
"e. c #AB5924",
"r. c #A8592A",
"t. c #A45D36",
"y. c #B25E2A",
"u. c #B5612E",
"i. c #BD662F",
"p. c #AB633B",
"a. c #BC6C3D",
"s. c #B76636",
"d. c #C35C00",
"f. c #C75B00",
"g. c #CB6101",
"h. c #D26400",
"j. c #C4651E",
"k. c #D76F16",
"l. c #CA6C2A",
"z. c #D97327",
"x. c #C46C35",
"c. c #C36F3D",
"v. c #C86E38",
"b. c #C5713F",
"n. c #CD7139",
"m. c #D7783D",
"M. c #E47F3E",
"N. c #865947",
"B. c #8D6251",
"V. c #A76E59",
"C. c #AC7059",
"Z. c #AA674A",
"A. c #AC7967",
"S. c #92756C",
"D. c #C47242",
"F. c #CB7442",
"G. c #D67941",
"H. c #DC7C42",
"J. c #D27741",
"K. c #C16F40",
"L. c #E17F44",
"P. c #98857E",
"I. c #BD8A76",
"U. c #AC8072",
"Y. c #D78256",
"T. c #E48144",
"R. c #E0895C",
"E. c #C6876D",
"W. c #E49C7C",
"Q. c #798182",
"!. c #848484",
"~. c #8A8C8C",
"^. c #9B8E8B",
"/. c #8C9294",
"(. c #959696",
"). c #9B9A9A",
"_. c #969A9B",
"`. c #B48E81",
"'. c #BA9589",
"]. c #A89F9C",
"[. c #B3A29D",
"{. c #ACACAC",
"}. c #A6A7A8",
"|. c #BBA8A3",
" X c #ADB2B3",
".X c #B3B4B4",
"XX c #BABDBD",
"oX c #CB9580",
"OX c #DA9D84",
"+X c #C19C90",
"@X c #E39F81",
"#X c #C9A69B",
"$X c #DEA28A",
"%X c #E7A68B",
"&X c #D7B7AD",
"*X c #C4B9B6",
"=X c #D0ABA1",
"-X c #E7BCAE",
";X c #EACABF",
":X c #BEC3C4",
">X c #C3C3C3",
",X c #CACACA",
"<X c #CAC6C5",
"1X c #DBCAC5",
"2X c #D2D2D2",
"3X c #DCDCDC",
"4X c #D6D2D1",
"5X c #E5DAD7",
"6X c #F4DDD6",
"7X c #EAE1DE",
"8X c #F5E2DC",
"9X c #F9E0D8",
"0X c #DDE0E1",
"qX c #E2E2E2",
"wX c #EAECEC",
"eX c #E8E7E7",
"rX c #F7ECE9",
"tX c #F3F4F4",
"yX c #FEFEFE",
"uX c #F8F6F6",
"iX c #F4F1F0",
"pX c None",
/* pixels */
"pXpXpXpXpXpXpXpXpXpXpXpXpXpXpXpXpXpXpXpXpXpXpXpXpXpXpXpXpXpXpXpXpXpXpXpXpXpXpXpXpXpXpXpXpXpXpXpXpXpX",
"pXpXpXpXpXpXpXpXpXpXpXpXpXpXpXpXpXpXpXpXpXpXpXpXpXpXpXpXpXpXpXpXpXpXpXpXpXpXpXpXpXpXpXpXpXpXpXpXpXpX",
"pXpXpXpXpXpXpXpXpXpXpXpXpXpXpXpXpXpXpXpXpXpXpXpXpXpXpXpXpXpXpXpXpXpXpXpXpXpXpXpXpXpXpXpXpXpXpXpXpXpX",
"pXpXpXpXpXpXpXpXpXpXpXpXpXpXpXpXpXpXpXpXpXpXpXpXpXpXpXpXpXpXpXpXpXpXpXpXpXpXpXpXpXpXpXpXpXpXpXpXpXpX",
"pXpXpXpXpXpXpXpXpXpXpXpXpXpXpXpXpXpXpXpXpXpXpXpXpXpXpXpXpXpXpXpXpXpXpXpXpXpXpXpXpXpXpXpXpXpXpXpXpXpX",
"pXpXpXpXpXpXpXpXpXpXpXpXpXpXpXpXpXpXpXpXpXpXpXpXpXpXpXpXpXpXpXpXpXpXpXpXpXpXpXpXpXpXpXpXpXpXpXpXpXpX",
"pXpXpXpXpXpXpXpXpXpXpXpXpXpXpXpXpXpXpXpXpXpXpXpXpXpXpXpXpXpXpXpXpXpXpXpXpXpXpXpXpXpXpXpXpXpXpXpXpXpX",
"pXpXpXpXpXpXpXpXpXpXpXpXpXpXpXpXpXpXpXpXpXpXpXpXpXpXpXpXpXpXpXpXpXpXpXpXpXpXpXpXpXpXpXpXpXpXpXpXpXpX",
"pXpXpXpXpXpXpXpXpXpXpXpXpXpXpXpXpXpXpXpXpXpXpXpXpXpXpXpXpXpXpXpXpXpXpXpXpXpXpXpXpXpXpXpXpXpXpXpXpXpX",
"pXpXpXpXpXpXpXpXpXpXpXpXpXpXpXpXpXpXpXpXpXpXpXpXpXpXpXpXpXpXpXpX, 1 pXpXpXpXpXpXpXpXpXpXpXpXpXpXpXpX",
"pXpXpXpXpXpXpXpXpXpXpXpXpXpXpXpXpXpXpXpXpXpXpXpXpXpXpXpXpXpXpX; 6 0 0 0 pXpXpXpXpXpXpXpXpXpXpXpXpXpX",
"pXpXpXpXpXpXpXpXpXpXpXpXpXpXpXpXpXpXpXpXpXpXpXpXpXpXpXpXpXpXj h h b y w pXpXpXpXpXpXpXpXpXpXpXpXpXpX",
"pXpXpXpXpXpXpXpXpXpXpXpXpXpXpXpXpXpXpXpXpXpXpXpXpXpXpXpXpX, a f [ k 7 < pXpXpXpXpX* & $ & = 8 pXpXpX",
"pXpXpXpXpXpXpXpXpXpXpXpXpXpXpXpXpXpXpXpXpXpXpXpXpXpXpXpX4 v N.A.A.B.0 % pXpXpXpXv n F F F m y 6 pXpX",
"pXpXpXpXpXpXpXpXpXpXpXpXpXpXpXpXpXpXpXpXpXpXpXpXpXpXpX8 s l `.1X4X].y   pXpXpXv N 1.t.a.Z.9.0 & pXpX",
"pXpXpXpXpXpXpXpXpXpXpXpXpXpXpXpXpXpXpXpXpXpXpXpXpXpX* q d { #XiXuXXXi   pXpX* q D 2.u.m.F.q.6 # pXpX",
"pXpXpXpXpXpXpXpXpXpXpXpXpXpXpXpXpXpXpXpXpXpXpXpXpXpX, q f { =XyXyX:X<   pX$ & 6 b D 7.s.p.0.6 pXpXpX",
"pXpXpXpXpXpXpXpXpXpXpXpXpXpXpXpXpXpXpXpXpXpXpXpXpXpX, q d { #XuXyXXX,   % , & = & 6 v m F pXpXpXpXpX",
"pXpXpXpXpXpXpXpXpXpXpXpXpXpXpXpXpXpXpXpXpXpXpXpXpXpX, q k X.oX5X7X|.H k J 8.J 8.J J m < $ pXpXpXpXpX",
"pXpXpXpXpXpXpXpXpXpXpXpXpXpXpXpXpXpXpXpXpXpXpXpXpXpX* q c @.C.`.+XE.Z.i.c.b.K.Z.b.Z.t.Z # pXpXpXpXpX",
"pXpXpXpXpXpXpXpXpXpXpXpXpXpXpXpXpXpXpXpXpXpXpXpXpXpX, q K 3.&.{ ..j.H.H.J.J.J.H.H.H.a.H & pXpXpXpXpX",
"y 5                 @ > # # # # pXpXpXpXpXpXpXpXpXpX> 6 K 3.@.{ ..j.H.F.t.q.u.i.x.i.u.4.D b w pXpXpX",
"7 w 5 4 O         o - ; - - 1 : ; pXpXpXpXpXpXpXpXpX& 8 S 3.w.#.r.x.H.p.m 9 1.w.:.6.w.w.2.A 7 , pXpX",
"4 Z ( !.).}..X.X}.P.4.| 4.0.Z.9.H pXpXpXpXpXpXpXpXpXb x O.+.+. .+.g.z.,.O.z +.-.-.-.&. .l p     pXpX",
"  Q !.{.2XeXuXuXeX&Xl.d.j.D.J.D.q.q @ pXpXpXpXpX, v z  .....X.[ } =.h.h.d.d.d.f.h.f.*.d         5 i ",
"  Y !.{.3XtXyXyXyX9X%XR.L.H.M.H.D.9.n pXpXpXpXpX& F B.C.C.V.A.U.I.oX$X@X@X@X@X@X@X@XoX!.] Q.` ) i 4 ",
"pXpXE ` .X2XwXyXyXyXrX;X@Xk.z.H.J.b.q.K & pXpXpX  ! ^.|.|.[.*X4X7X8X8X8X6X6X6X6X6X6X6X0X0XwX3X X(   ",
"pXpX  O _ ).,XwXyXyXyX8XOXh.z.G.H.H.D.9.& pXpXpX  ( ).XX.X X2XiXyXyXyXyXyXyXyXyXyXyXyXyXyXyXyX<X(   ",
"pXpXpX  T _ }.2XeX7X3X&XE.g.l.H.T.T.F.9.> # pXX . T Q././.~. X3XiXwXwXuXyXyXyXyXyXyXyX0X2X3X2X X( pX",
"pXpXpXpXpX5 ` .X<X|.C.p.r.e.x.G.T.H.b.8.& > ; - - e P P t t '  X,X:X:X0XyXyXyXyXyXyXqX(.i W ! E pXpX",
"pXpXpXpXpX  U !.).S.[ f l 5.s.n.n.c.p.J b b M M m b h p p p ~ !._./._..X2X3X5X3XeXqX*X/       pXpXpX",
"pXpXpXpXpXpXpXE ) ! b h v A 7.u.7.H G 1.<.<.2.<.<.%.1.o.z O.H W ^ ^ ^ ( _ _ _ _ !./.!.pXpXpXpXpXpXpX",
"pXpXpXpXpXpXpX    X < , * q D %.B 8 b <.:.:.w.w.:.w.w.e.e.e.2.x a a a m Y W W Q 5     pXpXpXpXpXpXpX",
"pXpXpXpXpXpXpXpXpXpXpXpXpXpXb N V B D $.:.:.w.#.%.w.i.x.v.x.i.u.e.&.*.`.*X2X2X,X).O   pXpXpXpXpXpXpX",
"pXpXpXpXpXpXpXpXpXpXpXpXpXpX* q S 2.w.w.6.w.3.$.$.r.x.G.G.G.G.m.m.g.m.;XiXyXyXuX>XY   pXpXpXpXpXpXpX",
"pXpXpXpXpXpXpXpXpXpXpXpXpXpX> - S 3.>.w.w.#.:.e.u.v.J.H.T.T.m.n.F.E.OX-XrXtXwX2X}.T   pXpXpXpXpXpXpX",
"pXpXpXpXpXpXpXpXpXpXpXpXpXpX, 7 K 3.>.w.:.#.#.u.n.H.H.H.L.m.l.;.Z.'.XX<X,XXX(.) Q i O pXpXpXpXpXpXpX",
"pXpXpXpXpXpXpXpXpXpXpXpXpXpX* 0 A 1.2.2.2.<.<.t.a.F.b.b.F.F.s.@.N.^.}.{.}.~.T     8 i pXpXpXpXpXpXpX",
"pXpXpXpXpXpXpXpXpXpXpXpXpXpX6 8 m M G A M F F H 8.0.0.0.N.B.N.N Z ( ` ` _ ) Y 0 0 y 8 pXpXpXpXpXpXpX",
"pXpXpXpXpXpXpXpXpXpXpXpXpXpX8 7 u u r w ; t u r < & & & I T P r : o O     7 U Y U y 5 pXpXpXpXpXpXpX",
"pXpXpXpXpXpXpXpXpXpXpXpXpXpX0 y u r 2 , , 2 t 2 , & # pX3 L I r - . pXpXpX. i T U y 7 pXpXpXpXpXpXpX",
"pXpXpXpXpXpXpXpXpXpXpXpXpXpX7 y i i 8 pXpX0 0 i i 8 pXpXpX0 u i 7 pXpXpXpXpXy i i y 0 pXpXpXpXpXpXpX",
"pXpXpXpXpXpXpXpXpXpXpXpXpXpXpX7 7 7 pXpXpXpX7 7 7 0 pXpXpX5 5 0 0 pXpXpXpXpXpX5 7 7 pXpXpXpXpXpXpXpX",
"pXpXpXpXpXpXpXpXpXpXpXpXpXpXpXpXpXpXpXpXpXpXpXpXpXpXpXpXpXpXpXpXpXpXpXpXpXpXpXpXpXpXpXpXpXpXpXpXpXpX",
"pXpXpXpXpXpXpXpXpXpXpXpXpXpXpXpXpXpXpXpXpXpXpXpXpXpXpXpXpXpXpXpXpXpXpXpXpXpXpXpXpXpXpXpXpXpXpXpXpXpX",
"pXpXpXpXpXpXpXpXpXpXpXpXpXpXpXpXpXpXpXpXpXpXpXpXpXpXpXpXpXpXpXpXpXpXpXpXpXpXpXpXpXpXpXpXpXpXpXpXpXpX",
"pXpXpXpXpXpXpXpXpXpXpXpXpXpXpXpXpXpXpXpXpXpXpXpXpXpXpXpXpXpXpXpXpXpXpXpXpXpXpXpXpXpXpXpXpXpXpXpXpXpX",
"pXpXpXpXpXpXpXpXpXpXpXpXpXpXpXpXpXpXpXpXpXpXpXpXpXpXpXpXpXpXpXpXpXpXpXpXpXpXpXpXpXpXpXpXpXpXpXpXpXpX",
"pXpXpXpXpXpXpXpXpXpXpXpXpXpXpXpXpXpXpXpXpXpXpXpXpXpXpXpXpXpXpXpXpXpXpXpXpXpXpXpXpXpXpXpXpXpXpXpXpXpX",
"pXpXpXpXpXpXpXpXpXpXpXpXpXpXpXpXpXpXpXpXpXpXpXpXpXpXpXpXpXpXpXpXpXpXpXpXpXpXpXpXpXpXpXpXpXpXpXpXpXpX"
};
