/* XPM */
static char *result[] = {
/* columns rows colors chars-per-pixel */
"50 50 221 2 ",
"   c black",
".  c #0D0F0C",
"X  c #000519",
"o  c #181815",
"O  c #310D06",
"+  c #21211F",
"@  c #00062A",
"#  c #001D2D",
"$  c #001726",
"%  c #00242D",
"&  c #00292F",
"*  c #0C2B2E",
"=  c #13292D",
"-  c #1E2C2F",
";  c #1F2221",
":  c #002530",
">  c #002A31",
",  c #0F2B30",
"<  c #1C2F32",
"1  c #262524",
"2  c #252D2D",
"3  c #2C2E2D",
"4  c #2E2825",
"5  c #312E2C",
"6  c #392D29",
"7  c #33302E",
"8  c #3A312E",
"9  c #2D3131",
"0  c #2B3A3D",
"q  c #243436",
"w  c #333331",
"e  c #3A3432",
"r  c #333939",
"t  c #3B3F3E",
"y  c #393835",
"u  c #5F0000",
"i  c #4A1600",
"p  c #7A0000",
"a  c #641800",
"s  c #771E00",
"d  c #6B0000",
"f  c #51270C",
"g  c #642800",
"h  c #6B2900",
"j  c #7C3800",
"k  c #6A371B",
"l  c #743912",
"z  c #4B352D",
"x  c #45332D",
"c  c #54362A",
"v  c #5B3A2C",
"b  c #573629",
"n  c #433631",
"m  c #493831",
"M  c #533C33",
"N  c #5A3D31",
"B  c #442E27",
"V  c #6D3B23",
"C  c #643C2B",
"Z  c #6B3E2B",
"A  c #623827",
"S  c #763D20",
"D  c #76401E",
"F  c #47413E",
"G  c #564139",
"H  c #6C412D",
"J  c #7C4225",
"K  c #73422B",
"L  c #7A452C",
"P  c #744027",
"I  c #644334",
"U  c #694636",
"Y  c #744A35",
"T  c #774A35",
"R  c #003942",
"E  c #2D3E41",
"W  c #124249",
"Q  c #394647",
"!  c #284247",
"~  c #414242",
"^  c #444A4A",
"/  c #4B4B4A",
"(  c #574A45",
")  c #4A5457",
"_  c #545555",
"`  c #5B5C5B",
"'  c #505859",
"]  c #6B5953",
"[  c #7A635C",
"{  c #6A6B6B",
"}  c #7D7C7C",
"|  c #747879",
" . c #6E6E6E",
".. c #8A0000",
"X. c #8F1F00",
"o. c #862500",
"O. c #863B00",
"+. c #963300",
"@. c #943E00",
"#. c #9E3900",
"$. c #A93F00",
"%. c #9D4A04",
"&. c #994100",
"*. c #8B4516",
"=. c #944A1E",
"-. c #9C4D1B",
";. c #9D501E",
":. c #86400D",
">. c #A34700",
",. c #B64C00",
"<. c #B95300",
"1. c #A4521E",
"2. c #AE5819",
"3. c #AE5508",
"4. c #BF6317",
"5. c #844625",
"6. c #8D4A24",
"7. c #854A2B",
"8. c #854829",
"9. c #944C21",
"0. c #994E22",
"q. c #9E5021",
"w. c #9A5229",
"e. c #845136",
"r. c #8B5134",
"t. c #8D5539",
"y. c #83523A",
"u. c #935736",
"i. c #95593A",
"p. c #9A5B3A",
"a. c #955837",
"s. c #834E33",
"d. c #A25322",
"f. c #AC5C2B",
"g. c #A5582B",
"h. c #B35E2A",
"j. c #A25E3B",
"k. c #A45B37",
"l. c #B9622C",
"z. c #BA622A",
"x. c #A9623A",
"c. c #BA6634",
"v. c #B9693A",
"b. c #C75E00",
"n. c #D26600",
"m. c #C5651C",
"M. c #C86926",
"N. c #D3712C",
"B. c #D97326",
"V. c #C56E3B",
"C. c #C16A35",
"Z. c #C7703C",
"A. c #CC723C",
"S. c #D2753C",
"D. c #D9793E",
"F. c #D9783B",
"G. c #D06F2C",
"H. c #8C5F4A",
"J. c #996751",
"K. c #B96C41",
"L. c #AA6A50",
"P. c #9A786D",
"I. c #A57767",
"U. c #B57A65",
"Y. c #A57F72",
"T. c #CC7543",
"R. c #C47245",
"E. c #D27740",
"W. c #D57943",
"Q. c #DB7C43",
"!. c #C47B58",
"~. c #D27D51",
"^. c #E07D40",
"/. c #AB877B",
"(. c #B48A7D",
"). c #E28042",
"_. c #CF8A6D",
"`. c #747D80",
"'. c #798385",
"]. c #858484",
"[. c #898C8D",
"{. c #929495",
"}. c #9D9A99",
"|. c #8E9090",
" X c #BB978B",
".X c #999EA0",
"XX c #9BA2A4",
"oX c #A3A3A3",
"OX c #ACACAB",
"+X c #A8A8A7",
"@X c #B5AAA8",
"#X c #AEAFB0",
"$X c #AFB3B4",
"%X c #BBBBBB",
"&X c #BBB6B5",
"*X c #DF9C81",
"=X c #C99683",
"-X c #CAABA2",
";X c #D4B6AC",
":X c #CFB8B0",
">X c #EBB9A7",
",X c #E7B9A9",
"<X c #E3C4BB",
"1X c #C2C3C3",
"2X c #CECECE",
"3X c #D9C7C3",
"4X c #CED4D5",
"5X c #D2D1D1",
"6X c #D9D7D7",
"7X c #E5D7D4",
"8X c #F1DBD3",
"9X c #E3E4E4",
"0X c #E8EAEA",
"qX c #F9EFEB",
"wX c #F2EBE9",
"eX c #F4F4F4",
"rX c #FCF5F3",
"tX c #FEFEFE",
"yX c #F7F9FA",
"uX c #FBF1EE",
"iX c None",
/* pixels */
"iXiXiXiXiXiXiXiXiXiXiXiXiXiXiXiXiXiXiXiXiXiXiXiXiXiXiXiXiXiXiXiXiXiXiXiXiXiXiXiXiXiXiXiXiXiXiXiXiXiX",
"iXiXiXiXiXiXiXiXiXiXiXiXiXiXiXiXiXiXiXiXiXiXiXiXiXiXiXiXiXiXiXiXiXiXiXiXiXiXiXiXiXiXiXiXiXiXiXiXiXiX",
"iXiXiXiXiXiXiXiXiXiXiXiXiXiXiXiXiXiXiXiXiXiXiXiXiXiXiXiXiXiXiXiXiXiXiXiXiXiXiXiXiXiXiXiXiXiXiXiXiXiX",
"iXiXiXiXiXiXiXiXiXiXiXiXiXiXiXiXiXiXiXiXiXiXiXiXiXiXiXiXiXiXiXiXiXiXiXiXiXiXiXiXiXiXiXiXiXiXiXiXiXiX",
"iXiXiXiXiXiXiXiXiXiXiXiXiXiXiXiXiXiXiXiXiXiXiXiXiXiXiXiXiXiXiXiXiXiXiXiXiXiXiXiXiXiXiXiXiXiXiXiXiXiX",
"iXiXiXiXiXiXiXiXiXiXiXiXiXiXiXiXiXiXiXiXiXiXiXiXiXiXiXiXiXiXiXiXiXiXiXiXiXiXiXiXiXiXiXiXiXiXiXiXiXiX",
"iXiXiXiXiXiXiXiXiXiXiXiXiXiXiXiXiXiXiXiXiXiXiXiXiXiXiXiXiXiXiXiXiXiXiXiXiXiXiXiXiXiXiXiXiXiXiXiXiXiX",
"iXiXiXiXiXiXiXiXiXiXiXiXiXiXiXiXiXiXiXiXiXiXiXiXiXiXiXiXiXiXiXiXiXiXiXiXiXiXiXiXiXiXiXiXiXiXiXiXiXiX",
"iXiXiXiXiXiXiXiXiXiXiXiXiXiXiXiXiXiXiXiXiXiXiXiXiXiXiXiXiXiXiXiXiXiXiXiXiXiXiXiXiXiXiXiXiXiXiXiXiXiX",
"iXiXiXiXiXiXiXiXiXiXiXiXiXiXiXiXiXiXiXiXiXiXiXiXiXiXiX& > iX% # iXiXiXiXiXiXiX& # iX% 2 iXiXiXiXiXiX",
"iXiXiXiXiXiXiXiXiXiXiXiXiXiXiXiXiXiXiXiXiXiXiXiXiXiX- < - < = & & iXiXiXiXiX- - * % = 9 7 iXiXiXiXiX",
"iXiXiXiXiXiXiXiXiXiXiXiXiXiXiXiXiXiXiXiXiXiXiXiXiXiXv H k g l r.e.Y iXiXiXiXb Y r.t.T G - iXiXiXiXiX",
"iXiXiXiXiXiXiXiXiXiXiXiXiXiXiXiXiXiXiXiXiXiXiXiX> z L 9.o...#.M.Z.p.7 # & c J q.c.A.K.Y % iXiXiXiXiX",
"iXiXiXiXiXiXiXiXiXiXiXiXiXiXiXiXiXiXiXiXiXiXiXiX> N *.g.L./.(.~.Z.i.w : > c J d.V.S.v.U # iXiXiXiXiX",
"iXiXiXiXiXiXiXiX  iXiXiXiXiXiXiXiXiXiXiXiXiXiXiX& b s k.-X7X<X/.j i % # : = B C r.p.t.U iXiXiXiXiXiX",
"iXiXiXiXiXiXiXw w w iXiXiXiXiXiXiXiXiXiXiXiXiXiX& b p x.<XtX0X|.    7 7 7 8 7 7 9 9 3 iXiXiXiXiXiXiX",
"iXiXiXiXiXiX~  .} { iXiXiXiXiXiXiXiXiXiXiXiXiXiX> c s k.-X7X3X/.O.*.p.p.p.i.p.t.U & @ iXiXiXiXiXiXiX",
"iXiXiXiXiX  _ {.+X[.~   iXiXiXiXiXiXiXiXiXiXiXiX& M *.d.L.I.U.K.A.T.S.W.T.S.W.Z.p.r @ iXiXiXiXiXiXiX",
"iXiXiXiX^ _ {.1X5XOX_   iXiXiXiXiXiXiXiXiXiXiXiX& M 7.-.+...>.G.Q.W.Z.A.S.S.S.A.x.H 8 iXiXiXiXiXiXiX",
"iXiXiX1  .{.1X0XwX1X'   iXiXiXiXiXiXiXiXiXiXiXiX& m 7.d.%.#.2.S.W.x.Y 8.g.z.z.g.d.9.J c & iXiXiXiXiX",
"iXiX  2 P.XX4XyXtX5X`   iXiXiXiXiXiXiXiXiXiXiXiX3 C 8.q.-.-.h.S.T.i.8 v =.1.d.-.;.;.6.v % iXiXiXiXiX",
"iXiX  3 ] P.:XyXtX4X)   iXiXiXiXiXiXiXiXiXiX9 f h O.@.&.+.X.$.b.n.<.&.>.,.<.<.,.+.d O       w iXiXiX",
"iXiX% 3 g X. XwXtX4X'   iXiXiXiXiXiXiXiXiX& 2 Z *.>.%.%.@.@.3.m.N.N.G.N.N.N.B.G.;.O     . 1 7 w iXiX",
"iXiX> 3 a ..U.<X8X;XJ.a f iXiXiXiXiXiXiXiXX 2 [ /.(././. X-X;X,X>X>X>X>X>X>X>X,X:X+XOX$XoX} 3   iXiX",
"iXiX> 3 A &.K._._._.).f.N @ iXiXiXiXiXiXiX  + } oX:X#X&X6XwXrXrXrXqXqXqXqXqXqXqXuXeXyXtX0X@X1   iXiX",
"iXiX& 9 H 6.2.<.n.B.).~.p.M m iXiXiXiXiXiX  + | XX$X+X$X6XyXtXtXtXtXtXtXtXtXtXtXtXyXyXtX9XoXo iXiXiX",
"iXiX> 3 H 6.2.M.B.F.Q.W.T.j.r.3 # > & > & $ % )  .| { '.$X6X9X6X9XyXtXtXtXtXtXtX0X&XOX%XoX].iXiXiXiX",
"iXiX> 3 Z *.f.V.W.Q.W.Q.^.T.a.3 % 8 8 8 8 8 8 5 4 +   w '.OX&XOX%X9XtXtXtXtXtXyX%Xt       iXiXiXiXiX",
"iXiX% 9 H 9.h.V.Q.Q.Q.D.S.c.s.< e K L L K L K k g a u g ] `.'.'.[.oX%X%X%X1X2X1X}.  iX  iXiXiXiXiXiX",
"iXiX& 9 H 9.h.A.Q.Q.Q.A.l.0.A - v 6.0.0.0.0.0.0.=.=.-.=.Y ~ W ! ! 0 ~ F t / ` ` iXiXiXiXiXiXiXiXiXiX",
"iXiXiX3 v J d.c.A.S.A.c.9.S v A 5.q.1.1.1.1.1.f.f.l.c.h.;.j h s D P.].[.|.| 9     iXiXiXiXiXiXiXiXiX",
"iXiXiXiX6 z T g.h.l.l.w.H c K 6.0.0.1.d.-.-.1.l.A.S.A.A.Z.V.m.,.!.:X0XeXqX5X[.    3 iXiXiXiXiXiXiXiX",
"iXiXiXiXiX: x J =.-.=.J 8 8 J d.1.d.q.d.0.=.9.f.V.W.W.Q.W.D.S.B._.8XtXtXtX9X}.O   7 3 iXiXiXiXiXiXiX",
"iXiXiXiXiXiX8 v K K H v < n 8.1.1.0.q.1.-.6.V K T x.R.Q.G.M.!.=X;X7X0X6X1XoXP.j g e , iXiXiXiXiXiXiX",
"iXiXiXiXiXiXiX7 7 w 7 2 * z 5.q.d.d.0.d.0.P 8 % % H v.W.m.>.P.@X%X1X%X{.' i *.0.5.e : iXiXiXiXiXiXiX",
"iXiXiXiXiXiXiXiX> : : & > z Z 5.9.d.-.6.L M E F Y j.A.Q.l.O.[ [.XX.X|.{     l r.Y y : iXiXiXiXiXiXiX",
"iXiXiXiXiXiXiXiXiXiXiXiXiXiX8 z 7.q.0.V n E / H.K.Q.).Q.x.H 0 _ ' ` _ / 9 e ( ] ( y 2 iXiXiXiXiXiXiX",
"iXiXiXiXiXiXiXiXiXiXiXiXiXiX: * H 6.8.c > R ~ J.R.E.E.V.p.e X           1 r Q Q E w 4 iXiXiXiXiXiXiX",
"iXiXiXiXiXiXiXiXiXiXiXiXiXiX* 2 M N I n q q E ( y.a.i.e.Y iXiXiXiXiXiXiXiXiXr t r iXiXiXiXiXiXiXiXiX",
"iXiXiXiXiXiXiXiXiXiXiXiXiXiX5 5 r r 0 w 3 3 3 2 & % % & iXiXiXiXiXiXiXiXiXiX5 3 iXiXiXiXiXiXiXiXiXiX",
"iXiXiXiXiXiXiXiXiXiXiXiXiXiX7 w r 0 q 9 iXiXiXiXiXiX$ iXiXiXiXiXiXiXiXiXiXiXiXiXiXiXiXiXiXiXiXiXiXiX",
"iXiXiXiXiXiXiXiXiXiXiXiXiXiX7 9 y y 3 iXiXiXiXiXiXiXiXiXiXiXiXiXiXiXiXiXiXiXiXiXiXiXiXiXiXiXiXiXiXiX",
"iXiXiXiXiXiXiXiXiXiXiXiXiXiXiX3 3 3 iXiXiXiXiXiXiXiXiXiXiXiXiXiXiXiXiXiXiXiXiXiXiXiXiXiXiXiXiXiXiXiX",
"iXiXiXiXiXiXiXiXiXiXiXiXiXiXiXiXiXiXiXiXiXiXiXiXiXiXiXiXiXiXiXiXiXiXiXiXiXiXiXiXiXiXiXiXiXiXiXiXiXiX",
"iXiXiXiXiXiXiXiXiXiXiXiXiXiXiXiXiXiXiXiXiXiXiXiXiXiXiXiXiXiXiXiXiXiXiXiXiXiXiXiXiXiXiXiXiXiXiXiXiXiX",
"iXiXiXiXiXiXiXiXiXiXiXiXiXiXiXiXiXiXiXiXiXiXiXiXiXiXiXiXiXiXiXiXiXiXiXiXiXiXiXiXiXiXiXiXiXiXiXiXiXiX",
"iXiXiXiXiXiXiXiXiXiXiXiXiXiXiXiXiXiXiXiXiXiXiXiXiXiXiXiXiXiXiXiXiXiXiXiXiXiXiXiXiXiXiXiXiXiXiXiXiXiX",
"iXiXiXiXiXiXiXiXiXiXiXiXiXiXiXiXiXiXiXiXiXiXiXiXiXiXiXiXiXiXiXiXiXiXiXiXiXiXiXiXiXiXiXiXiXiXiXiXiXiX",
"iXiXiXiXiXiXiXiXiXiXiXiXiXiXiXiXiXiXiXiXiXiXiXiXiXiXiXiXiXiXiXiXiXiXiXiXiXiXiXiXiXiXiXiXiXiXiXiXiXiX",
"iXiXiXiXiXiXiXiXiXiXiXiXiXiXiXiXiXiXiXiXiXiXiXiXiXiXiXiXiXiXiXiXiXiXiXiXiXiXiXiXiXiXiXiXiXiXiXiXiXiX"
};
