/* XPM */
static char *_a2986def6fb4f9ced55204a562a2779hLxwsfgSJPDIrB3j[] = {
/* columns rows colors chars-per-pixel */
"50 50 221 2 ",
"   c None",
".  c #000000",
"X  c #0D0000",
"o  c #000B1A",
"O  c #00191E",
"+  c #1D1C19",
"@  c #160807",
"#  c #250000",
"$  c #26221F",
"%  c #34261F",
"&  c #000826",
"*  c #00152B",
"=  c #001C2D",
"-  c #001825",
";  c #00242D",
":  c #012A2F",
">  c #0C2A2E",
",  c #142A2E",
"<  c #1E2D2F",
"1  c #002430",
"2  c #002A30",
"3  c #002E39",
"4  c #152E31",
"5  c #193235",
"6  c #222C2D",
"7  c #2D2E2D",
"8  c #282624",
"9  c #332E2C",
"0  c #352C28",
"q  c #32302E",
"w  c #3A322F",
"e  c #2B3434",
"r  c #253536",
"t  c #333333",
"y  c #3C3532",
"u  c #3A3B3A",
"i  c #393938",
"p  c #272F30",
"a  c #500000",
"s  c #550F00",
"d  c #680900",
"f  c #781100",
"g  c #5D2F0F",
"h  c #662D00",
"j  c #692400",
"k  c #6B3308",
"l  c #773400",
"z  c #712F0B",
"x  c #462F26",
"c  c #4B352D",
"v  c #42312C",
"b  c #53372B",
"n  c #54392F",
"m  c #5C3A2C",
"M  c #593526",
"N  c #4E3931",
"B  c #473731",
"V  c #523B32",
"C  c #5E3F30",
"Z  c #6D3D25",
"A  c #643D2D",
"S  c #653A27",
"D  c #703E25",
"F  c #40403F",
"G  c #584238",
"H  c #6D412E",
"J  c #7E4324",
"K  c #74432C",
"L  c #7A442A",
"P  c #634232",
"I  c #6B4B3D",
"U  c #7D4D35",
"Y  c #764832",
"T  c #333F41",
"R  c #124047",
"E  c #2D4549",
"W  c #334346",
"Q  c #3B4446",
"!  c #434342",
"~  c #4B4D4C",
"^  c #555554",
"/  c #5C5D5D",
"(  c #585858",
")  c #4C5A5C",
"_  c #67534C",
"`  c #785548",
"'  c #645F5E",
"]  c #654A40",
"[  c #546569",
"{  c #6C6D6C",
"}  c #676666",
"|  c #697476",
" . c #7C7C7C",
".. c #727778",
"X. c #8D1400",
"o. c #8E2300",
"O. c #962B00",
"+. c #8B3C00",
"@. c #933D00",
"#. c #9A3800",
"$. c #A73A00",
"%. c #9A4400",
"&. c #9D4904",
"*. c #954A1C",
"=. c #9B4D1D",
"-. c #994B17",
";. c #9F501E",
":. c #884514",
">. c #A14A01",
",. c #A54904",
"<. c #A65001",
"1. c #BC5200",
"2. c #BA5C02",
"3. c #A3521E",
"4. c #B45C1D",
"5. c #BF6117",
"6. c #834624",
"7. c #8D4A24",
"8. c #84492B",
"9. c #8A4B2B",
"0. c #844728",
"q. c #944C23",
"w. c #994E22",
"e. c #9E5021",
"r. c #98522C",
"t. c #834E34",
"y. c #8C5539",
"u. c #875237",
"i. c #995935",
"p. c #965A3A",
"a. c #9B5B38",
"s. c #945736",
"d. c #A35322",
"f. c #AD5B2A",
"g. c #AA5824",
"h. c #B25E2B",
"j. c #B25E22",
"k. c #A45D35",
"l. c #B6612D",
"z. c #AB633A",
"x. c #A8613B",
"c. c #B1663B",
"v. c #BA6A3B",
"b. c #B46537",
"n. c #C25E00",
"m. c #C96201",
"M. c #D36700",
"N. c #C96B2B",
"B. c #D4722C",
"V. c #D8732A",
"C. c #C26A34",
"Z. c #C86D34",
"A. c #CC733D",
"S. c #C6703D",
"D. c #D1753D",
"F. c #D7783E",
"G. c #876659",
"H. c #AD6642",
"J. c #B96D43",
"K. c #AD7057",
"L. c #98766C",
"P. c #827A78",
"I. c #B07A66",
"U. c #CC7541",
"Y. c #C47143",
"T. c #D17740",
"R. c #D67941",
"E. c #DB7C43",
"W. c #E07E43",
"Q. c #B48A7B",
"!. c #B18272",
"~. c #CC805A",
"^. c #E58245",
"/. c #DF926E",
"(. c #798183",
"). c #838483",
"_. c #858A8B",
"`. c #8C8D8D",
"'. c #949696",
"]. c #9C9C9C",
"[. c #948B88",
"{. c #B99185",
"}. c #A89A97",
"|. c #BCA59D",
" X c #999FA0",
".X c #A4A4A4",
"XX c #ACACAC",
"oX c #A3AAAB",
"OX c #B6ADAB",
"+X c #ADB1B2",
"@X c #B4B5B5",
"#X c #BCBBBB",
"$X c #B9B6B5",
"%X c #AAAEB0",
"&X c #D29B85",
"*X c #C3A59C",
"=X c #DAAD9D",
"-X c #EBA88D",
";X c #DBB5A9",
":X c #CFB1A8",
">X c #EBB9A7",
",X c #EABCAB",
"<X c #C3C3C3",
"1X c #C9CACA",
"2X c #CAC8C7",
"3X c #D7C9C6",
"4X c #DCDCDD",
"5X c #D8D4D3",
"6X c #CBD0D2",
"7X c #E4D8D5",
"8X c #E1CEC9",
"9X c #FCE6DF",
"0X c #E6E7E8",
"qX c #F9EEEB",
"wX c #F7EFED",
"eX c #FAF1EF",
"rX c #EDF1F1",
"tX c #F4F4F4",
"yX c #FCF4F2",
"uX c #FEFEFE",
"iX c #F7F9F9",
/* pixels */
"                                                                                                    ",
"                                                                                                    ",
"                                                                                                    ",
"                                                                                                    ",
"                                                                                                    ",
"                                                                                                    ",
"                                                                                                    ",
"                                                                                                    ",
"                                                                                                    ",
"        :     ;                 =     2                                                             ",
"    q 9 6 ; ; 4 <           ; : > 4 , < <                                                           ",
"    > e I y.y.U A b         U s.9.h h Z A n                                                         ",
"    = e p.S.A.l.q.Z v ; = P H.A.2.X.X.+.9.H w                                                       ",
"      6 y.Y.U.l.q.Z y 2 ; G z.U.~.!.I.H.-.6.y ;                                                     ",
"        U s.a.L M 0 ; = = 8 j y.*X7X3X&X@.j y 2                                                     ",
"          7 t q 9 t 9 t 9 7 . t @XyX0X*XO.d y 2                                                     ",
"          * e U p.a.a.a.a.s.+.y.|.7X8X&X@.j w 2                                                     ",
"          * I c.T.T.T.A.F.T.A.A.K.I.K.a.=.D w 2                         2 o . . . . . . . 8 q       ",
"        0 v t.v.F.F.D.A.S.Y.E.E.m.O.X.#.r.Y 9 2                       M Z G.[.'._.{ { { } ( 7 8     ",
"      6 A 7.w.g.f.h.h.r.Y u.J.R.N.,.@.-.w.K < 1                     * l <.&X7XrX6X.X.XXX.X .7 .     ",
"    ; 7 H q.=.;.;.3.3.6.x G b.F.Z.d.-.=.w.L c 6                   > N >.m.-XqXiX0X<X@X<XoX .6 .     ",
"  8 . . X a f ,.1.1.1.<.#.%.m.M.n.O.o.#.#.+.l h x               7 t.H.Z.V./.;X3X3X<X@X.X .}         ",
"q 7 + . . . k j.V.B.B.B.B.B.B.B.N.>.@.%.&.&.&.J b 2           * N x.R.W.F.A.4.H.}.#XoX{ @           ",
". ~ _.XX%XoXXX;X>X>X>X>X>X>X,X,X=X:X|.{.!.Q.Q.L._ O         C Y x.U.W.W.W.N.$.o.L.}._.~ .           ",
". } <XtXuXtXtXqXqXqXqXqXqXqXyXyXyXyX0X2XOX$X$X}.' .       ; Y c.R.E.R.E.E.D.4.-.` / )               ",
". } <XtXuXtXiXuXuXuXuXuXuXuXuXiXuXuXwX1XoX%X+X'./ .     * ; y.U.^.W.R.R.D.S.h.q.l # .               ",
"    '.@X@XXX1XtXuXuXuXuXuXuXrX4X4X0X1X X| | ..[ W O = : = ; u.U.W.W.E.A.b.f.g.;.J % o               ",
"    . . . .  .5XuXuXuXuXuXtX5X@XXX@X].{ X . % 8 9 w w w > , U v.R.E.R.C.g.-.;.q.K w 2               ",
"      . . . / XX1X1X#X#X#X@X'.(.(._.P.` j d j h D K K L K D 8.s.x.v.C.h.d.*.7.K m w                 ",
"              / / ( ! ! ! ! W E E Q ] 9.=.=.7.*.q.w.w.w.w.w.0.V V 0.d.4.d.q.K w 6                   ",
"              . . ( ).`.`.P.G.l a . # z q.f.h.h.d.;.;.3.3.3.q.S v S D 7.q.J b 2                     ",
"              . ! @X0XiXrX7X=XC.@.% & * m k.A.C.d.-.=.d.d.w.w.q.6.Z b c m m                         ",
"              . ^ @XtXuXuXyX,XD.,.K w q P c.R.A.l.3.;.e.e.e.;.d.e.L w , 5 5                         ",
"                  '.@X4X0X4X|.a.>.z.b.z.c.T.^.E.A.v.f.3.=.3.3.3.d.q.6.P u 5 r                       ",
"                    +  .+X@X(.9 :.A.E.E.R.E.R.E.E.A.l.=.=.;.e.;.=.3.;.8.G 5 e 7                     ",
"                    . ! !._.[ ; K J.Y.J.v.c.z.c.c.z.r.L L 0.8.8.9.9.9.K V r u t 7                   ",
"                        Q [ Q 7 G _ ` _ P P P C P G n c c N N N c V V B y t i 7 q                   ",
"                        . . + 7 T E R 3 - = = ; ; ; 2 > > : : : : : : , 7 7 7 q                     ",
"                            8 t u T r     ; , < r e e p <                                           ",
"                            q 7 t 7 7       7 i u i i q                                             ",
"                                7 8       q t u u i t                                               ",
"                                          q 7 i i 7                                                 ",
"                                            q 7 7 7                                                 ",
"                                                                                                    ",
"                                                                                                    ",
"                                                                                                    ",
"                                                                                                    ",
"                                                                                                    ",
"                                                                                                    ",
"                                                                                                    "
};
