/* XPM */
static char *result[] = {
/* columns rows colors chars-per-pixel */
"50 50 221 2 ",
"   c black",
".  c #0D0F0C",
"X  c #000519",
"o  c #181815",
"O  c #310D06",
"+  c #21211F",
"@  c #00062A",
"#  c #001D2D",
"$  c #001726",
"%  c #00242D",
"&  c #00292F",
"*  c #0C2B2E",
"=  c #13292D",
"-  c #1E2C2F",
";  c #1F2221",
":  c #002530",
">  c #002A31",
",  c #0F2B30",
"<  c #1C2F32",
"1  c #262524",
"2  c #252D2D",
"3  c #2C2E2D",
"4  c #2E2825",
"5  c #312E2C",
"6  c #392D29",
"7  c #33302E",
"8  c #3A312E",
"9  c #2D3131",
"0  c #2B3A3D",
"q  c #243436",
"w  c #333331",
"e  c #3A3432",
"r  c #333939",
"t  c #3B3F3E",
"y  c #393835",
"u  c #5F0000",
"i  c #4A1600",
"p  c #7A0000",
"a  c #641800",
"s  c #771E00",
"d  c #6B0000",
"f  c #51270C",
"g  c #642800",
"h  c #6B2900",
"j  c #7C3800",
"k  c #6A371B",
"l  c #743912",
"z  c #4B352D",
"x  c #45332D",
"c  c #54362A",
"v  c #5B3A2C",
"b  c #573629",
"n  c #433631",
"m  c #493831",
"M  c #533C33",
"N  c #5A3D31",
"B  c #442E27",
"V  c #6D3B23",
"C  c #643C2B",
"Z  c #6B3E2B",
"A  c #623827",
"S  c #763D20",
"D  c #76401E",
"F  c #47413E",
"G  c #564139",
"H  c #6C412D",
"J  c #7C4225",
"K  c #73422B",
"L  c #7A452C",
"P  c #744027",
"I  c #644334",
"U  c #694636",
"Y  c #744A35",
"T  c #774A35",
"R  c #003942",
"E  c #2D3E41",
"W  c #124249",
"Q  c #394647",
"!  c #284247",
"~  c #414242",
"^  c #444A4A",
"/  c #4B4B4A",
"(  c #574A45",
")  c #4A5457",
"_  c #545555",
"`  c #5B5C5B",
"'  c #505859",
"]  c #6B5953",
"[  c #7A635C",
"{  c #6A6B6B",
"}  c #7D7C7C",
"|  c #747879",
" . c #6E6E6E",
".. c #8A0000",
"X. c #8F1F00",
"o. c #862500",
"O. c #863B00",
"+. c #963300",
"@. c #943E00",
"#. c #9E3900",
"$. c #A93F00",
"%. c #9D4A04",
"&. c #994100",
"*. c #8B4516",
"=. c #944A1E",
"-. c #9C4D1B",
";. c #9D501E",
":. c #86400D",
">. c #A34700",
",. c #B64C00",
"<. c #B95300",
"1. c #A4521E",
"2. c #AE5819",
"3. c #AE5508",
"4. c #BF6317",
"5. c #844625",
"6. c #8D4A24",
"7. c #854A2B",
"8. c #854829",
"9. c #944C21",
"0. c #994E22",
"q. c #9E5021",
"w. c #9A5229",
"e. c #845136",
"r. c #8B5134",
"t. c #8D5539",
"y. c #83523A",
"u. c #935736",
"i. c #95593A",
"p. c #9A5B3A",
"a. c #955837",
"s. c #834E33",
"d. c #A25322",
"f. c #AC5C2B",
"g. c #A5582B",
"h. c #B35E2A",
"j. c #A25E3B",
"k. c #A45B37",
"l. c #B9622C",
"z. c #BA622A",
"x. c #A9623A",
"c. c #BA6634",
"v. c #B9693A",
"b. c #C75E00",
"n. c #D26600",
"m. c #C5651C",
"M. c #C86926",
"N. c #D3712C",
"B. c #D97326",
"V. c #C56E3B",
"C. c #C16A35",
"Z. c #C7703C",
"A. c #CC723C",
"S. c #D2753C",
"D. c #D9793E",
"F. c #D9783B",
"G. c #D06F2C",
"H. c #8C5F4A",
"J. c #996751",
"K. c #B96C41",
"L. c #AA6A50",
"P. c #9A786D",
"I. c #A57767",
"U. c #B57A65",
"Y. c #A57F72",
"T. c #CC7543",
"R. c #C47245",
"E. c #D27740",
"W. c #D57943",
"Q. c #DB7C43",
"!. c #C47B58",
"~. c #D27D51",
"^. c #E07D40",
"/. c #AB877B",
"(. c #B48A7D",
"). c #E28042",
"_. c #CF8A6D",
"`. c #747D80",
"'. c #798385",
"]. c #858484",
"[. c #898C8D",
"{. c #929495",
"}. c #9D9A99",
"|. c #8E9090",
" X c #BB978B",
".X c #999EA0",
"XX c #9BA2A4",
"oX c #A3A3A3",
"OX c #ACACAB",
"+X c #A8A8A7",
"@X c #B5AAA8",
"#X c #AEAFB0",
"$X c #AFB3B4",
"%X c #BBBBBB",
"&X c #BBB6B5",
"*X c #DF9C81",
"=X c #C99683",
"-X c #CAABA2",
";X c #D4B6AC",
":X c #CFB8B0",
">X c #EBB9A7",
",X c #E7B9A9",
"<X c #E3C4BB",
"1X c #C2C3C3",
"2X c #CECECE",
"3X c #D9C7C3",
"4X c #CED4D5",
"5X c #D2D1D1",
"6X c #D9D7D7",
"7X c #E5D7D4",
"8X c #F1DBD3",
"9X c #E3E4E4",
"0X c #E8EAEA",
"qX c #F9EFEB",
"wX c #F2EBE9",
"eX c #F4F4F4",
"rX c #FCF5F3",
"tX c #FEFEFE",
"yX c #F7F9FA",
"uX c #FBF1EE",
"iX c None",
/* pixels */
"iXiXiXiXiXiXiXiXiXiXiXiXiXiXiXiXiXiXiXiXiXiXiXiXiXiXiXiXiXiXiXiXiXiXiXiXiXiXiXiXiXiXiXiXiXiXiXiXiXiX",
"iXiXiXiXiXiXiXiXiXiXiXiXiXiXiXiXiXiXiXiXiXiXiXiXiXiXiXiXiXiXiXiXiXiXiXiXiXiXiXiXiXiXiXiXiXiXiXiXiXiX",
"iXiXiXiXiXiXiXiXiXiXiXiXiXiXiXiXiXiXiXiXiXiXiXiXiXiXiXiXiXiXiXiXiXiXiXiXiXiXiXiXiXiXiXiXiXiXiXiXiXiX",
"iXiXiXiXiXiXiXiXiXiXiXiXiXiXiXiXiXiXiXiXiXiXiXiXiXiXiXiXiXiXiXiXiXiXiXiXiXiXiXiXiXiXiXiXiXiXiXiXiXiX",
"iXiXiXiXiXiXiXiXiXiXiXiXiXiXiXiXiXiXiXiXiXiXiXiXiXiXiXiXiXiXiXiXiXiXiXiXiXiXiXiXiXiXiXiXiXiXiXiXiXiX",
"iXiXiXiXiXiXiXiXiXiXiXiXiXiXiXiXiXiXiXiXiXiXiXiXiXiXiXiXiXiXiXiXiXiXiXiXiXiXiXiXiXiXiXiXiXiXiXiXiXiX",
"iXiXiXiXiXiXiXiXiXiXiXiXiXiXiXiXiXiXiXiXiXiXiXiXiXiXiXiXiXiXiXiXiXiXiXiXiXiXiXiXiXiXiXiXiXiXiXiXiXiX",
"iXiXiXiXiXiXiXiXiXiXiXiXiXiXiXiXiXiXiXiXiXiXiXiXiXiXiXiXiXiXiXiXiXiXiXiXiXiXiXiXiXiXiXiXiXiXiXiXiXiX",
"iXiXiXiXiXiXiXiXiXiXiXiXiXiXiXiXiXiXiXiXiXiXiXiXiXiXiXiXiXiXiXiXiXiXiXiXiXiXiXiXiXiXiXiXiXiXiXiXiXiX",
"iXiXiXiXiXiX- # iX% & iXiXiXiXiXiXiX# % iX> > iXiXiXiXiXiXiXiXiXiXiXiXiXiXiXiXiXiXiXiXiXiXiXiXiXiXiX",
"iXiXiXiXiX7 9 < % * - - iXiXiXiXiX% % = - - - - iXiXiXiXiXiXiXiXiXiXiXiXiXiXiXiXiXiXiXiXiXiXiXiXiXiX",
"iXiXiXiXiX- G T t.t.K b iXiXiXiXY e.r.l g V Z N iXiXiXiXiXiXiXiXiXiXiXiXiXiXiXiXiXiXiXiXiXiXiXiXiXiX",
"iXiXiXiXiX% Y K.T.c.q.J c > # 5 p.R.M.#...O.6.L c > iXiXiXiXiXiXiXiXiXiXiXiXiXiXiXiXiXiXiXiXiXiXiXiX",
"iXiXiXiXiX# U v.E.C.d.J M > : w a.Z.~._.U.L.g.*.N > iXiXiXiXiXiXiXiXiXiXiXiXiXiXiXiXiXiXiXiXiXiXiXiX",
"iXiXiXiXiXiXI u.p.r.Z B = % # % f j /.3X7X-Xk.s b > iXiXiXiXiXiXiXiXiXiXiXiXiXiXiX  iXiXiXiXiXiXiXiX",
"iXiXiXiXiXiXiX3 3 w 5 5 7 7 5 5     |.9XtX3Xx.p c > iXiXiXiXiXiXiXiXiXiXiXiXiXiXw w w iXiXiXiXiXiXiX",
"iXiXiXiXiXiXiX@ % I t.p.p.p.p.p.*.:./.3X7X-Xk.s c % iXiXiXiXiXiXiXiXiXiXiXiXiXiX{ }  .~ iXiXiXiXiXiX",
"iXiXiXiXiXiXiX@ e p.T.E.T.E.E.E.A.A.K.U.I.L.q.*.b > iXiXiXiXiXiXiXiXiXiXiXiX  ~ ].+X{./   iXiXiXiXiX",
"iXiXiXiXiXiXiX6 H x.A.F.F.A.V.V.W.).N.>...+.-.r.M > iXiXiXiXiXiXiXiXiXiXiXiX  _ $X5X1X}._ ^ iXiXiXiX",
"iXiXiXiXiX> b S 9.d.f.h.h.g.7.Y L.W.F.3.@.%.1.7.m : iXiXiXiXiXiXiXiXiXiXiXiX  _ 1X0X0X1X{. .1 iXiXiX",
"iXiXiXiXiX& G 6.q.;.;.1.1.=.b x u.A.S.h.-.-.q.8.C 3 iXiXiXiXiXiXiXiXiXiXiXiX  ` 2XtXyX5XoX} 2   iXiX",
"iXiXiXe       O d +.,.<.<.,.>.@.<.n.b.>.X.+.#.@.O.h b 2 iXiXiXiXiXiXiXiXiXiX  ' 4XtXeX:XY.] 3   iXiX",
"iXiXw 9 1 .     O ;.G.N.N.N.N.N.G.N.M.3.@.@.%.%.%.*.V 2 > iXiXiXiXiXiXiXiXiX  ' 4XtXwX=XX.g 2 > iXiX",
"iXiX  3 } oX$XOXOX-X,X>X>X>X>X>X,X,X,X;X-X X/./.(.Y.[ 2 X iXiXiXiXiXiXiXiXB a J.;X8X<XU...a 3 > iXiX",
"iXiX  + OX0XtXyXeXqXqXqXqXqXqXqXqXrXrXrXwX5X&X&X:XoX} +   iXiXiXiXiXiXiX@ v g.T._.*X_.K.O.A 3 > iXiX",
"iXiXiXo oX9XtXyXyXtXtXtXtXtXtXtXtXtXtXtXyX6X$XXX$XXX| ;   iXiXiXiXiXiXz v H.T.^.B.n.b.2.9.H 3 & iXiX",
"iXiXiXiX].oX%XOX%X9XtXtXtXtXtXtXyX9X6X9X6X$X'.{ |  .) % $ & > : : # 3 e.x.T.W.Q.F.B.m.2.6.H 3 > iXiX",
"iXiXiXiXiX      t %XeXtXtXtXtXtX9X%XOX&XOX'.e   + 4 5 8 8 e 8 8 w : 3 t.S.^.Q.E.D.^.V.f.6.Z 3 > iXiX",
"iXiXiXiXiXiX  iX  }.1X2X1X%X%X%XoX[.`.'.'.] g u a g k K K L L L Z e < s.c.S.Q.Q.^.Q.A.h.9.Z 3 % iXiX",
"iXiXiXiXiXiXiXiXiXiX` ` / n ~ ~ Q ! ! W ~ U 9.-.=.=.0.q.q.9.q.q.9.v - A 0.h.A.Q.^.Q.A.h.9.K 9 > iXiX",
"iXiXiXiXiXiXiXiXiX    9 | |.[.'.P.D s h j ;.l.l.l.z.d.1.1.d.1.1.q.8.C A l w.c.A.A.A.c.g.J b 3 iXiXiX",
"iXiXiXiXiXiXiXiX3     [.5XeXeX9X:X!.,.4.Z.Z.A.A.S.Z.l.1.-.1.q.q.0.9.9.Z v H d.h.h.h.k.L z 8 iXiXiXiX",
"iXiXiXiXiXiXiX3 e   O {.7XtXtXtX8X_.B.D.Q.Q.Q.W.W.A.f.9.=.;.d.q.d.1.1.5.7 8 J =.-.9.J x % iXiXiXiXiX",
"iXiXiXiXiXiXiX, e g j P.+X1X6X9X6X:X=X!.M.N.Q.R.p.T H V 5.q.1.0.0.1.1.7.n < b H K K b 8 iXiXiXiXiXiX",
"iXiXiXiXiXiXiX& e 7.0.*.i ) {.%X1X%X@XP.>.m.W.v.U % % 8 P 0.d.0.0.d.d.5.z * 3 7 w w 5 iXiXiXiXiXiXiX",
"iXiXiXiXiXiXiX& e T t.l     { {.}..X|.[ O.l.Q.A.k.T F E M L 9.0.d.9.5.Z z & > : > > iXiXiXiXiXiXiXiX",
"iXiXiXiXiXiXiX2 w ( ] ( e 7 ^ _ ` ` ) 0 C v.Q.).D.R.H.^ E e V -.-.8.z 7 iXiXiXiXiXiXiXiXiXiXiXiXiXiX",
"iXiXiXiXiXiXiX4 9 t Q Q r 1           X y p.v.W.A.R.H.^ R > c 8.8.H , : iXiXiXiXiXiXiXiXiXiXiXiXiXiX",
"iXiXiXiXiXiXiXiXiXr t r iXiXiXiXiXiXiXiXiXY y.i.u.t.U t q q n I I M 2 * iXiXiXiXiXiXiXiXiXiXiXiXiXiX",
"iXiXiXiXiXiXiXiXiXiX3 5 iXiXiXiXiXiXiXiXiXiX% : % & - 3 9 3 w 0 r r 9 5 iXiXiXiXiXiXiXiXiXiXiXiXiXiX",
"iXiXiXiXiXiXiXiXiXiXiXiXiXiXiXiXiXiXiXiXiXiXiX$ iXiXiXiXiXiX9 q 0 r w 3 iXiXiXiXiXiXiXiXiXiXiXiXiXiX",
"iXiXiXiXiXiXiXiXiXiXiXiXiXiXiXiXiXiXiXiXiXiXiXiXiXiXiXiXiXiXiX7 w w w 7 iXiXiXiXiXiXiXiXiXiXiXiXiXiX",
"iXiXiXiXiXiXiXiXiXiXiXiXiXiXiXiXiXiXiXiXiXiXiXiXiXiXiXiXiXiXiXiX3 w 7 iXiXiXiXiXiXiXiXiXiXiXiXiXiXiX",
"iXiXiXiXiXiXiXiXiXiXiXiXiXiXiXiXiXiXiXiXiXiXiXiXiXiXiXiXiXiXiXiXiXiXiXiXiXiXiXiXiXiXiXiXiXiXiXiXiXiX",
"iXiXiXiXiXiXiXiXiXiXiXiXiXiXiXiXiXiXiXiXiXiXiXiXiXiXiXiXiXiXiXiXiXiXiXiXiXiXiXiXiXiXiXiXiXiXiXiXiXiX",
"iXiXiXiXiXiXiXiXiXiXiXiXiXiXiXiXiXiXiXiXiXiXiXiXiXiXiXiXiXiXiXiXiXiXiXiXiXiXiXiXiXiXiXiXiXiXiXiXiXiX",
"iXiXiXiXiXiXiXiXiXiXiXiXiXiXiXiXiXiXiXiXiXiXiXiXiXiXiXiXiXiXiXiXiXiXiXiXiXiXiXiXiXiXiXiXiXiXiXiXiXiX",
"iXiXiXiXiXiXiXiXiXiXiXiXiXiXiXiXiXiXiXiXiXiXiXiXiXiXiXiXiXiXiXiXiXiXiXiXiXiXiXiXiXiXiXiXiXiXiXiXiXiX",
"iXiXiXiXiXiXiXiXiXiXiXiXiXiXiXiXiXiXiXiXiXiXiXiXiXiXiXiXiXiXiXiXiXiXiXiXiXiXiXiXiXiXiXiXiXiXiXiXiXiX",
"iXiXiXiXiXiXiXiXiXiXiXiXiXiXiXiXiXiXiXiXiXiXiXiXiXiXiXiXiXiXiXiXiXiXiXiXiXiXiXiXiXiXiXiXiXiXiXiXiXiX"
};
