/* XPM */
static char *_f8f8cac2a134909af8a6c320139f7bbgCPRzW90ZaZFUCwb[] = {
/* columns rows colors chars-per-pixel */
"50 50 219 2 ",
"   c None",
".  c black",
"X  c #0C0906",
"o  c #150000",
"O  c #191916",
"+  c #000915",
"@  c #380000",
"#  c #241D1A",
"$  c #3B1A00",
"%  c #21211F",
"&  c #000022",
"*  c #000B2A",
"=  c #001C2D",
"-  c #001724",
";  c #00242D",
":  c #002A2F",
">  c #0B2A2E",
",  c #132A2E",
"<  c #1E2C2E",
"1  c #1F2221",
"2  c #012B30",
"3  c #002430",
"4  c #192E31",
"5  c #1C3235",
"6  c #173439",
"7  c #00373F",
"8  c #252D2E",
"9  c #2D2E2D",
"0  c #292624",
"q  c #332C2A",
"w  c #392D29",
"e  c #31302E",
"r  c #3A322E",
"t  c #2A3334",
"y  c #2E3A3B",
"u  c #263537",
"i  c #343433",
"p  c #383836",
"a  c #343A3A",
"s  c #3C3C3A",
"d  c #3C3431",
"f  c #6A0500",
"g  c #7A0000",
"h  c #641B00",
"j  c #7D1F00",
"k  c #5A2703",
"l  c #51280D",
"z  c #662C02",
"x  c #763400",
"c  c #6A361B",
"v  c #6E3409",
"b  c #492F24",
"n  c #4D362E",
"m  c #4A3227",
"M  c #54362A",
"N  c #55392E",
"B  c #5B3B2E",
"V  c #593526",
"C  c #4C3931",
"Z  c #453832",
"A  c #513A32",
"S  c #5C3E31",
"D  c #673C27",
"F  c #743F26",
"G  c #40403F",
"H  c #574239",
"J  c #69402D",
"K  c #7B4224",
"L  c #74422B",
"P  c #7B462D",
"I  c #7B462B",
"U  c #644233",
"Y  c #6E4734",
"T  c #764A34",
"R  c #784A35",
"E  c #003641",
"W  c #373F41",
"Q  c #1F4349",
"!  c #334447",
"~  c #35494D",
"^  c #444443",
"/  c #4C4C4C",
"(  c #485356",
")  c #545453",
"_  c #5D5D5C",
"`  c #5F5551",
"'  c #544945",
"]  c #6A5147",
"[  c #605F5F",
"{  c #73594E",
"}  c #79625A",
"|  c #676767",
" . c #6B7578",
".. c #757676",
"X. c #7E7C7B",
"o. c #737C7E",
"O. c #636F71",
"+. c #8C0000",
"@. c #8F1F00",
"#. c #960D00",
"$. c #852700",
"%. c #863A00",
"&. c #963300",
"*. c #943E00",
"=. c #9E3900",
"-. c #A93F00",
";. c #9A4100",
":. c #9D4A04",
">. c #974200",
",. c #8A4617",
"<. c #964B1C",
"1. c #9D4E1B",
"2. c #9E501E",
"3. c #A54500",
"4. c #B34C00",
"5. c #BB5200",
"6. c #B45500",
"7. c #A2521E",
"8. c #A8541F",
"9. c #AE5508",
"0. c #854523",
"q. c #8A4926",
"w. c #824729",
"e. c #864A2C",
"r. c #8C4925",
"t. c #944C22",
"y. c #9A4F21",
"u. c #9E5022",
"i. c #8B5133",
"p. c #885438",
"a. c #945736",
"s. c #9A5C3A",
"d. c #985937",
"f. c #A25324",
"g. c #AC5924",
"h. c #A75829",
"j. c #B25E2A",
"k. c #A55D38",
"l. c #AD643B",
"z. c #A86139",
"x. c #BE6834",
"c. c #B3663A",
"v. c #B5693D",
"b. c #B96838",
"n. c #B6612D",
"m. c #C55F05",
"M. c #CF6600",
"N. c #CA6B27",
"B. c #D4722C",
"V. c #DA752D",
"C. c #C56B35",
"Z. c #C56E39",
"A. c #C5703D",
"S. c #CC733D",
"D. c #D2753C",
"F. c #D7783C",
"G. c #D06F2C",
"H. c #8F5A45",
"J. c #B36D4C",
"K. c #826D66",
"L. c #A87765",
"P. c #B47C67",
"I. c #A57F72",
"U. c #CD7541",
"Y. c #C37247",
"T. c #D17640",
"R. c #D57942",
"E. c #DB7C43",
"W. c #CC7D55",
"Q. c #84807F",
"!. c #AB877B",
"~. c #B58879",
"^. c #DA885F",
"/. c #E18046",
"(. c #E08148",
"). c #E28959",
"_. c #CF896A",
"`. c #767E80",
"'. c #7B8081",
"]. c #848484",
"[. c #878B8C",
"{. c #8E8F90",
"}. c #959594",
"|. c #9B9C9C",
" X c #95999B",
".X c #9C908D",
"XX c #B79990",
"oX c #9FA3A4",
"OX c #A3A3A3",
"+X c #ABABAB",
"@X c #A7A9A9",
"#X c #BAAAA6",
"$X c #AEAFB0",
"%X c #AFB3B4",
"&X c #B4B5B5",
"*X c #BCBCBC",
"=X c #BEB6B4",
"-X c #C9ACA3",
";X c #CFB7AF",
":X c #EBB9A7",
">X c #EABAA9",
",X c #E3B8A9",
"<X c #DDC1B8",
"1X c #C1C1C1",
"2X c #CCCBCB",
"3X c #D9C7C3",
"4X c #DADCDC",
"5X c #D4D4D4",
"6X c #E7D9D5",
"7X c #F0D2C8",
"8X c #E3E4E4",
"9X c #E9EBEB",
"0X c #F9EFEB",
"qX c #F2EDEB",
"wX c #F4F4F4",
"eX c #FDF4F2",
"rX c #FEFEFE",
"tX c #F7F9FA",
"yX c #FBF1EE",
/* pixels */
"                                                                                                    ",
"                                                                                                    ",
"                                                                                                    ",
"                                                                                                    ",
"                                                                                                    ",
"                                                                                                    ",
"                                                                                                    ",
"                                                                                                    ",
"                                                                                                    ",
"            < =   ; :               = ;   2 2                                                       ",
"          e 9 > ; > < <           : ; , < < 5 <                                                     ",
"          < H p.p.p.T V         T p.a.c k c D B                                                     ",
"          ; T J.S.C.u.K N 2 = q s.Y.N.=.g $.t.T n 2                                                 ",
"          = Y v.U.C.u.K A 2 3 i a.Z.W._.P.J.h.,.S 2                                                 ",
"            U a.d.i.D b , 3 = 3 l x !.3X6X-Xk.j M 2                                                 ",
"              9 9 i q i q q i q . . {.8XrX3Xk.g V 2                                                 ",
"              * 3 U a.s.s.s.s.s.,.%.!.3X5X-Xk.$.A 3                                                 ",
"              * d s.Y.R.U.T.D.T.D.S.J.P.L.J.u.%.A 2                                                 ",
"              w J z.S.F.D.D.A.A.R./.B.3.+.&.2.e.A 3                                                 ",
"          2 N K t.h.h.j.j.h.e.T z.R.F.9.*.:.u.e.C 3                           * . . . . .           ",
"          2 S q.2.2.2.2.7.<.V r a.U.D.j.1.1.1.q.D q                         n H ` [ | O._           ",
"      i . . . @ f &.4.m.5.4.3.>.6.M.m.3.@.&.=.*.%.z V 8                   m %.J.-X5X4X6X*X[..       ",
"    i 9 0 X . . $ 1.N.V.B.B.G.B.V.V.N.4.*.*.:.:.:.,.D t 2               = F 4.^.7XtXrXrXqX+X. .     ",
"    . 9 X.OX$X@X+X-X,X:X:X:X:X:X>X>X,X;X-XXX!.!.~.I.} 8 +             B T l.M.).,X6XwXtX9X1X../     ",
"    . 0 +X8XrXtXwXyXyX0X0X0X0XyXeXeXeXwXqX5X=X$X=X@XK.8 .           = P b.R.F.R.W.~.#X2X2X1X@X[./ . ",
"      O OX8XrXtXtXrXrXrXrXrXrXrXrXtXrXrXtX5X%X@X%XOX..O .         n Y J.R./.(.D.4.#.p..X%X*X*X X) . ",
"        ].OX*X+X&X8XrXtXrXrXrXrXtX8X4X8X4X%X'.O.o...( ; - 2 3 * A s.Y.R.E././.F.m.=.q.} '.&X<X X) . ",
"          . . . ! *XwXtXrXrXrXrX8X*X$X*X%XK.d . # 0 q w r d t 3 S l.D.R.F.R.R.T.x.f.v @ ( oX&X X/ . ",
"            . . . |.<X2X1X*X*X*XoX[.o.[.].} x f h z c L L L P F R d.l.v.x.C.C.x.z.e.k . y '.}.X.^ O ",
"                  _ _ _ / G G ^ ! ! ! ! ' R y.1.<.<.<.y.y.y.y.y.t.D C L y.g.g.f.e.A <     / / ^ p 9 ",
"                    . p ..[.[.].K.I h o . k 0.f.j.j.g.2.1.f.f.f.y.F m V F ,.0.0.D ,         . . 9 i ",
"                  . . }.4XwXwX9X<X_.3.k & & q i.Z.Z.j.<.<.1.f.7.y.t.q.F M n M M n                   ",
"                    .  X8XrXrXrX6X_.m.,.C t C a.T.E.x.h.u.2.y.y.f.7.7.q.N 4 5 4 ,                   ",
"                      ].OX5X8X8X<XL.>.g.c.l.l.A.E.E.D.C.n.7.2.7.7.7.7.y.q.L A 5 5 t                 ",
"                        . _ OX*X X~ z b.E.E.F.R.R.R.E.R.x.h.<.y.y.y.f.2.7.t.U y u 9 9               ",
"                          . ..{.o.7 b H.Y.J.Z.v.l.l.v.c.s.q.K w.q.w.q.q.r.I S a a p 9               ",
"                            / _ / 8 Z ] { ] Y S U S U B B n n n C A C A N C d p p p e               ",
"                              . X 0 a ! Q E = - = ; ; ; : 2 > : 2 3 2 2 : > 8 9 9 9 9               ",
"                                % 9 s ! y 6     > 5 u t y y 8                                       ",
"                                  q 9 q 9       q i p s p 9 9                                       ",
"                                    9 9         9 p s p i i                                         ",
"                                                9 p p e 9                                           ",
"                                                9 9 9 9                                             ",
"                                                                                                    ",
"                                                                                                    ",
"                                                                                                    ",
"                                                                                                    ",
"                                                                                                    ",
"                                                                                                    ",
"                                                                                                    "
};
