/* XPM */
static char *result[] = {
/* columns rows colors chars-per-pixel */
"50 50 216 2 ",
"   c black",
".  c #0D0806",
"X  c #150000",
"o  c #1A1A18",
"O  c #000612",
"+  c #3A0000",
"@  c #311B0B",
"#  c #21211F",
"$  c #000022",
"%  c #00082B",
"&  c #00132A",
"*  c #001D2D",
"=  c #001720",
"-  c #00242D",
";  c #002A2F",
":  c #0B2A2E",
">  c #132A2D",
",  c #1E2C2F",
"<  c #1E2221",
"1  c #002430",
"2  c #012B30",
"3  c #192E31",
"4  c #1D3235",
"5  c #00343A",
"6  c #242523",
"7  c #252D2E",
"8  c #2D2E2D",
"9  c #2F2622",
"0  c #332C2A",
"q  c #392D29",
"w  c #32302E",
"e  c #3A312E",
"r  c #2B3435",
"t  c #293739",
"y  c #343433",
"u  c #383836",
"i  c #3B3C3A",
"p  c #383633",
"a  c #460700",
"s  c #6A0500",
"d  c #7A0000",
"f  c #641B00",
"g  c #7D1F00",
"h  c #5B2705",
"j  c #51280D",
"k  c #662C02",
"l  c #7F2C00",
"z  c #683106",
"x  c #753400",
"c  c #6A361B",
"v  c #713812",
"b  c #452E27",
"n  c #4D362D",
"m  c #44332C",
"M  c #55372A",
"N  c #553A2E",
"B  c #5B3B2D",
"V  c #593526",
"C  c #4C3830",
"Z  c #423632",
"A  c #513A32",
"S  c #5C3E31",
"D  c #633A29",
"F  c #693B26",
"G  c #743E24",
"H  c #40403F",
"J  c #5B443B",
"K  c #6A402D",
"L  c #7B4224",
"P  c #74422B",
"I  c #7B452C",
"U  c #7E492C",
"Y  c #644334",
"T  c #6C4533",
"R  c #764935",
"E  c #03444D",
"W  c #334447",
"Q  c #3C4D51",
"!  c #424241",
"~  c #4B4C4B",
"^  c #44494A",
"/  c #534A46",
"(  c #50504E",
")  c #545555",
"_  c #5E5E5D",
"`  c #465356",
"'  c #7C625A",
"]  c #6A6C6B",
"[  c #6C7476",
"{  c #747575",
"}  c #7D7B7B",
"|  c #737C7E",
" . c #636F71",
".. c #8C0000",
"X. c #8F1F00",
"o. c #852700",
"O. c #843900",
"+. c #963300",
"@. c #943E00",
"#. c #9E3900",
"$. c #A93F00",
"%. c #9A4000",
"&. c #9D4A04",
"*. c #954504",
"=. c #8A4618",
"-. c #964B1C",
";. c #9D4E1B",
":. c #9E501E",
">. c #A54500",
",. c #B34D00",
"<. c #BC5200",
"1. c #B45500",
"2. c #A3521E",
"3. c #A85319",
"4. c #AE5508",
"5. c #854523",
"6. c #8A4926",
"7. c #824729",
"8. c #854A2C",
"9. c #8C4925",
"0. c #944C22",
"q. c #9A4F21",
"w. c #9D5022",
"e. c #94522E",
"r. c #8B5133",
"t. c #885438",
"y. c #935736",
"u. c #9A5B39",
"i. c #975937",
"p. c #834B33",
"a. c #A25324",
"s. c #A95927",
"d. c #B25E2A",
"f. c #A45B36",
"g. c #A25F3C",
"h. c #B8622E",
"j. c #AF653B",
"k. c #A86139",
"l. c #BA6634",
"z. c #BE6834",
"x. c #B2663B",
"c. c #B5693D",
"v. c #BB6C3E",
"b. c #CA5F00",
"n. c #CF6000",
"m. c #D66B00",
"M. c #C86A28",
"N. c #D4722C",
"B. c #DA752D",
"V. c #C56C36",
"C. c #C06D3D",
"Z. c #CA6E37",
"A. c #C5703D",
"S. c #CD733D",
"D. c #D3753C",
"F. c #D9793E",
"G. c #D06F2C",
"H. c #E27C38",
"J. c #AE6A4B",
"K. c #826D66",
"L. c #A77764",
"P. c #B47C67",
"I. c #A57F72",
"U. c #C27144",
"Y. c #CC7541",
"T. c #C4754C",
"R. c #D27740",
"E. c #D57942",
"W. c #DB7C43",
"Q. c #D47E52",
"!. c #84807F",
"~. c #AB877B",
"^. c #B48A7D",
"/. c #DD8351",
"(. c #E18045",
"). c #CE8A6D",
"_. c #767E80",
"`. c #748083",
"'. c #848383",
"]. c #8B8C8C",
"[. c #838889",
"{. c #8E8F90",
"}. c #979797",
"|. c #999897",
" X c #AF958D",
".X c #9FA3A4",
"XX c #A3A3A3",
"oX c #ABACAC",
"OX c #A7A9A9",
"+X c #AEAFB0",
"@X c #AFB3B4",
"#X c #BCBBBB",
"$X c #B9B5B4",
"%X c #B7AEAC",
"&X c #CAABA2",
"*X c #D1B8AF",
"=X c #EBB9A7",
"-X c #E7B9A9",
";X c #E8BFB1",
":X c #DDC1B8",
">X c #C7C7C7",
",X c #D9C7C3",
"<X c #D6D6D7",
"1X c #C8CFD1",
"2X c #F1D3C9",
"3X c #E5D7D4",
"4X c #E3E4E4",
"5X c #E8E8E8",
"6X c #F9EFEB",
"7X c #F2EDEB",
"8X c #F4F4F4",
"9X c #FDF4F2",
"0X c #FEFEFE",
"qX c #F7F9FA",
"wX c #FBF1EE",
"eX c None",
/* pixels */
"eXeXeXeXeXeXeXeXeXeXeXeXeXeXeXeXeXeXeXeXeXeXeXeXeXeXeXeXeXeXeXeXeXeXeXeXeXeXeXeXeXeXeXeXeXeXeXeXeXeX",
"eXeXeXeXeXeXeXeXeXeXeXeXeXeXeXeXeXeXeXeXeXeXeXeXeXeXeXeXeXeXeXeXeXeXeXeXeXeXeXeXeXeXeXeXeXeXeXeXeXeX",
"eXeXeXeXeXeXeXeXeXeXeXeXeXeXeXeXeXeXeXeXeXeXeXeXeXeXeXeXeXeXeXeXeXeXeXeXeXeXeXeXeXeXeXeXeXeXeXeXeXeX",
"eXeXeXeXeXeXeXeXeXeXeXeXeXeXeXeXeXeXeXeXeXeXeXeXeXeXeXeXeXeXeXeXeXeXeXeXeXeXeXeXeXeXeXeXeXeXeXeXeXeX",
"eXeXeXeXeXeXeXeXeXeXeXeXeXeXeXeXeXeXeXeXeXeXeXeXeXeXeXeXeXeXeXeXeXeXeXeXeXeXeXeXeXeXeXeXeXeXeXeXeXeX",
"eXeXeXeXeXeXeXeXeXeXeXeXeXeXeXeXeXeXeXeXeXeXeXeXeXeXeXeXeXeXeXeXeXeXeXeXeXeXeXeXeXeXeXeXeXeXeXeXeXeX",
"eXeXeXeXeXeXeXeXeXeXeXeXeXeXeXeXeXeXeXeXeXeXeXeXeXeXeXeXeXeXeXeXeXeXeXeXeXeXeXeXeXeXeXeXeXeXeXeXeXeX",
"eXeXeXeXeXeXeXeXeXeXeXeXeXeXeXeXeXeXeXeXeXeXeXeXeXeXeXeXeXeXeXeXeXeXeXeXeXeXeXeXeXeXeXeXeXeXeXeXeXeX",
"eXeXeXeXeXeXeXeXeXeXeXeXeXeXeXeXeXeXeXeXeXeXeXeXeXeXeXeXeXeXeXeXeXeXeXeXeXeXeXeXeXeXeXeXeXeXeXeXeXeX",
"eXeXeXeXeXeXeXeXeXeXeXeXeXeXeXeXeXeXeXeXeXeXeXeXeXeXeX2 2 eX- * eXeXeXeXeXeXeX2 * eX- , eXeXeXeXeXeX",
"eXeXeXeXeXeXeXeXeXeXeXeXeXeXeXeXeXeXeXeXeXeXeXeXeXeX, , 7 7 > 2 - eXeXeXeXeX, 7 : ; > 8 w eXeXeXeXeX",
"eXeXeXeXeXeXeXeXeXeXeXeXeXeXeXeXeXeXeXeXeXeXeXeXeXeXB K c h v r.t.R eXeXeXeXV T t.y.R J , eXeXeXeXeX",
"eXeXeXeXeXeXeXeXeXeXeXeXeXeXeXeXeXeXeXeXeXeXeXeX1 A I 9.o.d #.M.U.u.w * ; N L w.l.S.J.R - eXeXeXeXeX",
"eXeXeXeXeXeXeXeXeXeXeXeXeXeXeXeXeXeXeXeXeXeXeXeX2 S =.a.J.~.).Q.V.y.y - 2 N L w.V.Y.v.T * eXeXeXeXeX",
"eXeXeXeXeXeXeXeXeXeXeXeXeXeXeXeXeXeXeXeXeXeXeXeX2 M o.f.&X3X,X~.x h 1 * 1 > b F r.u.y.Y eXeXeXeXeXeX",
"eXeXeXeXeXeXeXeXeXeXeXeXeXeXeXeXeXeXeXeXeXeXeXeX- V d k.,X0X4X{.    w 0 y 0 w 0 r w 8 eXeXeXeXeXeXeX",
"eXeXeXeXeXeXeXeXeXeXeXeXeXeXeXeXeXeXeXeXeXeXeXeX; M g u.&X3X,XI.O.=.u.u.u.u.u.t.Y 2 % eXeXeXeXeXeXeX",
"eXeXeXw 6               eXeXeXeXeXeXeXeXeXeXeXeX; N =.a.J.L.P.J.S.R.D.E.Y.Y.F.U.g.y & eXeXeXeXeXeXeX",
"eXeX# 0 ) ] [ ] { {..X`.eXeXeXeXeXeXeXeXeXeXeXeX; A 8.;.+...,.G.W.E.C.S.S.D.F.S.f.Y q eXeXeXeXeXeXeX",
"eXeX  8 } XX+XXXoX<X5X1X`.  eXeXeXeXeXeXeXeXeXeX- C 8.2.>.#.3.D.E.k.R p.s.h.d.s.s.0.L M ; eXeXeXeXeX",
"eXeX  6 } OX#XoX#X5X0X5X|.. eXeXeXeXeXeXeXeXeXeX8 B 6.w.;.;.d.D.Y.y.e V -.2.:.;.2.;.6.N ; eXeXeXeXeX",
"eXeXeXeX] [.|. X X*X2X;X).*.z & eXeXeXeXeXeX7 V x O.@.%.+.o.$.b.m.1.%.>.,.<.<.,.+.s +       y eXeXeX",
"eXeXeXeXeXt J p.f.U.Q./.W.U.y.> % eXeXeXeX2 7 F =.>.>.&.@.@.,.M.B.N.G.N.N.N.B.G.;.@     . 7 w y eXeX",
"eXeXeXeXeX  a o.#.b.n.m.H.E.U.y.T eXeXeXeXO 7 ' I.^.~.~. X&X*X-X=X=X=X=X=X=X=X-X&XoXoX+XXX} 8   eXeX",
"eXeXeXeXeX- B =.3.M.D.F.E.E.W.Y.u.S & eXeXeX# } XX*X%X$X<X7X9X9X9X6X6X6X6X6X6X6XwX8XqX0X4XoX6   eXeX",
"eXeXeXeXeX2 n G e.l.D.E.E.E.W.D.x.Y * eXeX  < { .X@XOX@X<XqX0X0X0X0X0X0X0X0X0X0X0XqXqX0X4XXXo eXeXeX",
"eXeXeXeXeXeXm b P j.E.(.W.E.D.h.y.C - 1 ; = - `  .|  .`.@X<X4X<X4XqX0X0X0X0X0X0X4X#XoX#XXX'.eXeXeXeX",
"eXeXeXeXeXeXeX& Z k.D.F.W.D.h.q.G m 7 y e e e 0 9 #   e '.oX$XoX#X4X0X0X0X0X0XqX#XH       eXeXeXeXeX",
"eXeXeXeXeXeXeX* p y.z.Z.V.l.e.F F P P L P P P c h f s x ' '.[.} [.XX#X#X$X>X1X#X}.      eXeXeXeXeXeX",
"eXeXeXeXeXeXeX1 Z p.a.s.s.w.P 0 D 9.w.q.q.q.w.0.-.-.;.q.R / W W W W ! ! H ~ _ _ _ eXeXeXeXeXeXeXeXeX",
"eXeXeXeXeXeXeXeX0 F 5.9.=.L B M L w.2.2.2.2.2.a.h.d.a.6.j   X f 7.K.'.].].{ p   eXeXeXeXeXeXeXeXeXeX",
"eXeXeXeXeXeXeXeXeXM V A m M P 6.q.w.:.a.:.-.-.d.Z.v.r.q $ $ z >.).:X4X8XqX<X}.    eXeXeXeXeXeXeXeXeX",
"eXeXeXeXeXeXeXeXeX> > 4 , M 6.a.2.a.q.:.2.q.a.z.E.R.u.C 8 C =.<.).3X0X0X0X4X}.  eXeXeXeXeXeXeXeXeXeX",
"eXeXeXeXeXeXeXeXr 4 t A K 9.q.2.2.2.2.:.s.d.Z.R.W.W.U.j.j.c.s.%.L.:X4X5X<XXX'.eXeXeXeXeXeXeXeXeXeXeX",
"eXeXeXeXeXeXeX8 w t u Y 9.2.2.w.a.q.q.-.a.V.D.W.E.F.E.E.W.W.l.x Q }.#XXX_   eXeXeXeXeXeXeXeXeXeXeXeX",
"eXeXeXeXeXeXeX8 u t t J U 9.6.7.7.7.7.L 6.u.x.x.j.x.c.v.C.v.u.A E [ ].{   eXeXeXeXeXeXeXeXeXeXeXeXeX",
"eXeXeXeXeXeXeX0 y u p p C A C A C A n n n B S S S S Y Y T Y J / ` ) ) ( eXeXeXeXeXeXeXeXeXeXeXeXeXeX",
"eXeXeXeXeXeXeXr w 0 8 7 : 2 ; ; 2 ; 2 : 2 2 - - - * * * & & 5 ^ ~ y     eXeXeXeXeXeXeXeXeXeXeXeXeXeX",
"eXeXeXeXeXeXeXeXeXeXeXeXeXeXeXeXeXeXeX7 r t t r , > - eXeXeX4 i Z u 6 o eXeXeXeXeXeXeXeXeXeXeXeXeXeX",
"eXeXeXeXeXeXeXeXeXeXeXeXeXeXeXeXeXeXeX8 y u i u u 8 eXeXeXeXeX8 r y 0 w eXeXeXeXeXeXeXeXeXeXeXeXeXeX",
"eXeXeXeXeXeXeXeXeXeXeXeXeXeXeXeXeXeXeXeXy y p i u 8 eXeXeXeXeXeX9 8 eXeXeXeXeXeXeXeXeXeXeXeXeXeXeXeX",
"eXeXeXeXeXeXeXeXeXeXeXeXeXeXeXeXeXeXeXeXeX0 y p p 8 eXeXeXeXeXeXeXeXeXeXeXeXeXeXeXeXeXeXeXeXeXeXeXeX",
"eXeXeXeXeXeXeXeXeXeXeXeXeXeXeXeXeXeXeXeXeXeX8 8 8 r eXeXeXeXeXeXeXeXeXeXeXeXeXeXeXeXeXeXeXeXeXeXeXeX",
"eXeXeXeXeXeXeXeXeXeXeXeXeXeXeXeXeXeXeXeXeXeXeXeXeXeXeXeXeXeXeXeXeXeXeXeXeXeXeXeXeXeXeXeXeXeXeXeXeXeX",
"eXeXeXeXeXeXeXeXeXeXeXeXeXeXeXeXeXeXeXeXeXeXeXeXeXeXeXeXeXeXeXeXeXeXeXeXeXeXeXeXeXeXeXeXeXeXeXeXeXeX",
"eXeXeXeXeXeXeXeXeXeXeXeXeXeXeXeXeXeXeXeXeXeXeXeXeXeXeXeXeXeXeXeXeXeXeXeXeXeXeXeXeXeXeXeXeXeXeXeXeXeX",
"eXeXeXeXeXeXeXeXeXeXeXeXeXeXeXeXeXeXeXeXeXeXeXeXeXeXeXeXeXeXeXeXeXeXeXeXeXeXeXeXeXeXeXeXeXeXeXeXeXeX",
"eXeXeXeXeXeXeXeXeXeXeXeXeXeXeXeXeXeXeXeXeXeXeXeXeXeXeXeXeXeXeXeXeXeXeXeXeXeXeXeXeXeXeXeXeXeXeXeXeXeX",
"eXeXeXeXeXeXeXeXeXeXeXeXeXeXeXeXeXeXeXeXeXeXeXeXeXeXeXeXeXeXeXeXeXeXeXeXeXeXeXeXeXeXeXeXeXeXeXeXeXeX",
"eXeXeXeXeXeXeXeXeXeXeXeXeXeXeXeXeXeXeXeXeXeXeXeXeXeXeXeXeXeXeXeXeXeXeXeXeXeXeXeXeXeXeXeXeXeXeXeXeXeX"
};
