/* XPM */
static char *result[] = {
/* columns rows colors chars-per-pixel */
"50 50 213 2 ",
"   c #000000",
".  c #080205",
"X  c #04181C",
"o  c #1D1B18",
"O  c #00001B",
"+  c #20201F",
"@  c #2C231F",
"#  c #34231C",
"$  c #00152B",
"%  c #001B2C",
"&  c #00262E",
"*  c #00292F",
"=  c #0C2A2E",
"-  c #002027",
";  c #122B2E",
":  c #1A2C2E",
">  c #002630",
",  c #002A31",
"<  c #172D31",
"1  c #0C3238",
"2  c #242D2E",
"3  c #2D2D2D",
"4  c #272524",
"5  c #332F2D",
"6  c #332B27",
"7  c #2F302F",
"8  c #33302E",
"9  c #3A322F",
"0  c #233335",
"q  c #2A3334",
"w  c #2D3A3C",
"e  c #323433",
"r  c #3D3633",
"t  c #343939",
"y  c #383D3E",
"u  c #202E30",
"i  c #5F0600",
"p  c #421C02",
"a  c #550A00",
"s  c #680500",
"d  c #681F00",
"f  c #770C00",
"g  c #59301C",
"h  c #582B0E",
"j  c #692A00",
"k  c #762A00",
"l  c #6B3306",
"z  c #763303",
"x  c #472F26",
"c  c #41322D",
"v  c #4C352C",
"b  c #53362B",
"n  c #5C3B2D",
"m  c #5B3626",
"M  c #443A36",
"N  c #523C34",
"B  c #5B3E30",
"V  c #633C2B",
"C  c #6C3E28",
"Z  c #723E23",
"A  c #703F28",
"S  c #3D403F",
"D  c #47413F",
"F  c #58433B",
"G  c #6F402B",
"H  c #73422C",
"J  c #7B452B",
"K  c #7A4429",
"L  c #654335",
"P  c #694839",
"I  c #764A33",
"U  c #794A33",
"Y  c #7A503C",
"T  c #1D4248",
"R  c #2A4448",
"E  c #394447",
"W  c #4E4E4D",
"Q  c #434647",
"!  c #545555",
"~  c #5C5D5C",
"^  c #5D4F4A",
"/  c #61514B",
"(  c #73574C",
")  c #6F564D",
"_  c #73635E",
"`  c #5D686A",
"'  c #656565",
"]  c #6B6B6A",
"[  c #697375",
"{  c #787A7A",
"}  c #8C0F00",
"|  c #882800",
" . c #922C00",
".. c #9B2A00",
"X. c #8A3900",
"o. c #943E00",
"O. c #9B3D00",
"+. c #963200",
"@. c #A53E00",
"#. c #9A4400",
"$. c #994904",
"%. c #954A1B",
"&. c #9C4D1C",
"*. c #8E4719",
"=. c #A14A01",
"-. c #A74B04",
";. c #BC5200",
":. c #B45700",
">. c #A2521E",
",. c #AA551D",
"<. c #B44C00",
"1. c #BF6117",
"2. c #844523",
"3. c #8A4A28",
"4. c #944C22",
"5. c #994E22",
"6. c #9E5021",
"7. c #9A522A",
"8. c #844E32",
"9. c #8A5237",
"0. c #8D5639",
"q. c #83513A",
"w. c #955A3A",
"e. c #9B5C3A",
"r. c #945737",
"t. c #A45422",
"y. c #A95827",
"u. c #B15D28",
"i. c #A25E3B",
"p. c #AB5F31",
"a. c #B8622E",
"s. c #A9633A",
"d. c #BB6B3C",
"f. c #B56638",
"g. c #C15F00",
"h. c #CA650A",
"j. c #D4722C",
"k. c #D9742D",
"l. c #C26A34",
"z. c #C66E39",
"x. c #C6713E",
"c. c #CB723D",
"v. c #CC7036",
"b. c #D3753C",
"n. c #D7783E",
"m. c #D07132",
"M. c #CE6D28",
"N. c #9D6149",
"B. c #AF6A45",
"V. c #B67250",
"C. c #997468",
"Z. c #8C7C78",
"A. c #B17A65",
"S. c #C47042",
"D. c #CC7441",
"F. c #D17741",
"G. c #D57941",
"H. c #DB7C43",
"J. c #E17E42",
"K. c #B48879",
"L. c #A98377",
"P. c #D98559",
"I. c #E58245",
"U. c #C68B74",
"Y. c #798385",
"T. c #828181",
"R. c #8C8C8B",
"E. c #888988",
"W. c #939393",
"Q. c #999B9B",
"!. c #A18C86",
"~. c #B7948A",
"^. c #A69894",
"/. c #B59990",
"(. c #979FA0",
"). c #9CA0A1",
"_. c #ACACAD",
"`. c #A4A9AA",
"'. c #B5AEAC",
"]. c #ADB1B2",
"[. c #B3B3B2",
"{. c #BBBBBB",
"}. c #B9B6B4",
"|. c #AAAEB0",
" X c #C19D92",
".X c #C9A69C",
"XX c #D0A697",
"oX c #CCACA2",
"OX c #C5A9A1",
"+X c #DAB6A9",
"@X c #CFB1A8",
"#X c #EBB9A7",
"$X c #EABBAA",
"%X c #D6C1BB",
"&X c #EAC3B6",
"*X c #BCC2C4",
"=X c #CACBCB",
"-X c #C5C6C6",
";X c #D8CBC7",
":X c #D8D9D9",
">X c #E5DAD8",
",X c #DEE1E2",
"<X c #E3E3E3",
"1X c #E9E8E7",
"2X c #F9EEEB",
"3X c #F7EFED",
"4X c #F8F1EE",
"5X c #EDF1F1",
"6X c #F4F4F4",
"7X c #FCF5F3",
"8X c #FEFEFE",
"9X c #FBF9F8",
"0X c None",
/* pixels */
"0X0X0X0X0X0X0X0X0X0X0X0X0X0X0X0X0X0X0X0X0X0X0X0X0X0X0X0X0X0X0X0X0X0X0X0X0X0X0X0X0X0X0X0X0X0X0X0X0X0X",
"0X0X0X0X0X0X0X0X0X0X0X0X0X0X0X0X0X0X0X0X0X0X0X0X0X0X0X0X0X0X0X0X0X0X0X0X0X0X0X0X0X0X0X0X0X0X0X0X0X0X",
"0X0X0X0X0X0X0X0X0X0X0X0X0X0X0X0X0X0X0X0X0X0X0X0X0X0X0X0X0X0X0X0X0X0X0X0X0X0X0X0X0X0X0X0X0X0X0X0X0X0X",
"0X0X0X0X0X0X0X0X0X0X0X0X0X0X0X0X0X0X0X0X0X0X0X0X0X0X0X0X0X0X0X0X0X0X0X0X0X0X0X0X0X0X0X0X0X0X0X0X0X0X",
"0X0X0X0X0X0X0X0X0X0X0X0X0X0X0X0X0X0X0X0X0X0X0X0X0X0X0X0X0X0X0X0X0X0X0X0X0X0X0X0X0X0X0X0X0X0X0X0X0X0X",
"0X0X0X0X0X0X0X0X0X0X0X0X0X0X0X0X0X0X0X0X0X0X0X0X0X0X0X0X0X0X0X0X0X0X0X0X0X0X0X0X0X0X0X0X0X0X0X0X0X0X",
"0X0X0X0X0X0X0X0X0X0X0X0X0X0X0X0X0X0X0X0X0X0X0X0X0X0X0X0X0X0X0X0X0X0X0X0X0X0X0X0X0X0X0X0X0X0X0X0X0X0X",
"0X0X0X0X0X0X0X0X0X0X0X0X0X0X0X0X0X0X0X0X0X0X0X0X0X0X0X0X0X0X0X0X, : 7 0X0X0X0X0X0X0X0X0X0X0X0X0X0X0X",
"0X0X0X0X0X0X0X0X0X0X0X0X0X0X0X0X0X0X0X0X0X0X0X0X0X0X0X0X0X0X0X9 c r e 3 0X0X0X0X0X0X0X0X0X0X0X0X0X0X",
"0X0X0X0X0X0X0X0X0X0X0X0X0X0X0X0X0X0X0X0X0X0X0X0X0X0X0X0X0X0Xp s s h e 0 0X0X0X0X0X0X& 0X0X* 0X0X0X0X",
"0X0X0X0X0X0X0X0X0X0X0X0X0X0X0X0X0X0X0X0X0X0X0X0X0X0X0X0X0X* g | +.z e , 0X0X0X0X0X: ; & * 2 3 8 0X0X",
"0X0X0X0X0X0X0X0X0X0X0X0X0X0X0X0X0X0X0X0X0X0X0X0X0X0X0X0Xp g C./. XZ.e   0X0X0X0Xn V q.0.9.P e = 0X0X",
"0X0X0X0X0X0X0X0X0X0X0X0X0X0X0X0X0X0X0X0X0X0X0X0X0X0X0X9 s | /.>X<X[.e   0X0X0Xc C 4.p.c.x.w.q % 0X0X",
"0X0X0X0X0X0X0X0X0X0X0X0X0X0X0X0X0X0X0X0X0X0X0X0X0X0X& r s +.XX9X8X*Xe   0X0X> r A 4.u.b.x.0.2 0X0X0X",
"0X0X0X0X0X0X0X0X0X0X0X0X0X0X0X0X0X0X0X0X0X0X0X0X0X0X, r s  .oX8X8X*X,   O % % > 5 m 8.r.w.U 0X0X0X0X",
"0X0X0X0X0X0X0X0X0X0X0X0X0X0X0X0X0X0X0X0X0X0X0X0X0X0X> 9 s  ..X2X9X}.r   3 5 8 8 8 8 8 8 3 0X0X0X0X0X",
"0X0X0X0X0X0X0X0X0X0X0X0X0X0X0X0X0X0X0X0X0X0X0X0X0X0X, 9 j o.K.+X;XOX0.#.e.i.e.e.e.w.U w $ 0X0X0X0X0X",
"0X0X0X0X0X0X0X0X0X0X0X0X0X0X0X0X0X0X0X0X0X0X0X0X0X0X& r Z &.i.A.A.S.D.D.D.F.F.D.F.F.f.L % 0X0X0X0X0X",
"0X0X0X0X0X0X0X0X0X0X0X0X0X0X0X0X0X0X0X0X0X0X0X0X0X0X> 8 U 7.#.} ..g.J.J.D.z.c.b.n.b.d.8.c 9 0X0X0X0X",
"0X0X0X0X0X0X0X0X0X0X0X0X0X0X0X0X0X0X0X0X0X0X0X0X0X0X> u H 5.&.o.=.M.H.B.q.I 7.u.u.p.y.5.2.V 3 0X0X0X",
"0X0X0X0X0X0X0X0X0X0X0X0X0X0X0X0X0X0X0X0X0X0X0X0X0X0X3 v J 5.&.%.y.x.G.f.B x 2.>.>.>.>.&.4.A 2 & 0X0X",
"0X0X0X  0X0X0X0X0X0X0X$ $ $ $ $ 0X0X0X0X0X0X0X0X0Xx j z o.O.+. .+.;.h.g.=.o.<.<.;.;.=.f a .     4 0X",
"0X0X+ + 4 0X0X0X0X0X: < : ; : : : 0X0X0X0X0X0X0X, b K $.$.$.#.o.=.h.j.k.j.M.j.j.k.k.u.l       o 3 e ",
"0X0X] { ] 0X0X0X0XI 9.e.w.w.w.0.U 0X0X0X0X0X0X0XX / C.K.K.L.~..X@X+X$X#X#X#X#X#X#X#X+X'.`.|._.R.W   ",
"  W W._.R.4     r w.d.G.x.D.F.D.e.B $ 0X0X0X0X0X  ~ Q.}.}.'.=X<X7X7X4X4X2X2X2X2X2X3X3X6X6X9X6X-X'   ",
"  ! Q.{.[.W.] W V s.n.I.H.H.I.H.d.P % 0X0X0X0X0X  ~ W.|._.`.-X3X8X8X8X8X8X8X8X8X8X8X8X9X6X8X6X-X'   ",
"  W R.].=X:X=X!.X.:.H.J.I.H.I.H.f.F % & , > > - % E ` { [ [ ).=X<X,X:X5X8X8X8X8X8X8X6X=X_.}._.Q.0X0X",
"  W R.}.<X8X6XOXO.<.b.H.G.F.H.n.s.B & 2 9 9 5 r 9 6 6 @   . ] ).}.].'.:X6X8X8X9X8X8X:X{         0X0X",
"  ~ [.<X8X8X9X@X@.@.a.l.l.l.v.l.r.v = V J J J J H Z j j s i / { Y.Y.Y.Q.}.{.{.{.=X-X_.~ 0X    0X0X0X",
"  ' =X8X8X8X4X.Xo...t.y.t.t.y.t.2.8 r 2.5.5.5.5.5.4.4.%.%.%.2.F T T R E E D E Q ! ' ' 0X0X0X0X0X0X0X",
"  ' {.<X6X1X;X^.X.| 2.2.2.2.2.2.Z n A 4.>.t.t.>.&.t.u.a.a.a.t.*.k d z ( Z.E.R.T.!     0X0X0X0X0X0X0X",
"0X0XT.W.Q.Q.E._ m g n n n n b b A 3.4.5.t.&.t.5.&.u.l.n.b.v.x.l.l.g.g.XX:X5X9X<X_.w   X e 0X0X0X0X0X",
"0X0X0X        . 1 < ; = ; = , < H 5.t.6.&.6.5.&.4.7.d.b.H.H.H.b.b.M.I.&X7X8X8X6X}./   6 3 0X0X0X0X0X",
"0X0X0X0X0X0X0X0X0X0X0X0X0X, > 0 H t.,.t.6.t.t.4.Z C I r.d.G.b.M.V.U.XX;X<X<X=X[.!.9.j v : 0X0X0X0X0X",
"0X0X0X0X0X0X0X0X0X0X0X0X0X0X* e H 4.t.6.6.t.6.2.b * % c e.b.m.<.N.^.{.*X{.`.[ # z 6.4.n * 0X0X0X0X0X",
"0X0X0X0X0X0X0X0X0X0X0X0X0X0X0X5 V J 3.6.6.%.2.L y S P r.d.H.v.$.( T.Q.).Q.{ q   a 0.q.F : 0X0X0X0X0X",
"0X0X0X0X0X0X0X0X0X0X0X0X0X0X0X0X5 c H 4.>.K v w R ( B.G.H.J.x.8.8 Q ~ ~ ! W t 5 Q / ^ D 2 0X0X0X0X0X",
"0X0X0X0X0X0X0X0X0X0X0X0X0X0X0X0X0X* N 2.3.C : 1 R ( B.c.G.D.s.P $           o e Q E E e 6 0X0X0X0X0X",
"0X0X0X0X0X0X0X0X0X0X0X0X0X0X0X0X0X: c F L N q 0 w F Y 0.w.0.U 0X0X0X0X0X0X0X0X0Xt y t 0X0X0X0X0X0X0X",
"0X0X0X0X0X0X0X0X0X0X0X0X0X0X0X0X0X8 e w t e q 5 3 2 ; * & & * 0X0X0X0X0X0X0X0X0X3 3 3 0X0X0X0X0X0X0X",
"0X0X0X0X0X0X0X0X0X0X0X0X0X0X0X0X0X8 t w q q 3 0X0X0X0X0X$ $ 0X0X0X0X0X0X0X0X0X0X0X0X0X0X0X0X0X0X0X0X",
"0X0X0X0X0X0X0X0X0X0X0X0X0X0X0X0X0X3 t t 3 3 0X0X0X0X0X0X0X0X0X0X0X0X0X0X0X0X0X0X0X0X0X0X0X0X0X0X0X0X",
"0X0X0X0X0X0X0X0X0X0X0X0X0X0X0X0X0X7 5 3 3 0X0X0X0X0X0X0X0X0X0X0X0X0X0X0X0X0X0X0X0X0X0X0X0X0X0X0X0X0X",
"0X0X0X0X0X0X0X0X0X0X0X0X0X0X0X0X0X0X0X0X0X0X0X0X0X0X0X0X0X0X0X0X0X0X0X0X0X0X0X0X0X0X0X0X0X0X0X0X0X0X",
"0X0X0X0X0X0X0X0X0X0X0X0X0X0X0X0X0X0X0X0X0X0X0X0X0X0X0X0X0X0X0X0X0X0X0X0X0X0X0X0X0X0X0X0X0X0X0X0X0X0X",
"0X0X0X0X0X0X0X0X0X0X0X0X0X0X0X0X0X0X0X0X0X0X0X0X0X0X0X0X0X0X0X0X0X0X0X0X0X0X0X0X0X0X0X0X0X0X0X0X0X0X",
"0X0X0X0X0X0X0X0X0X0X0X0X0X0X0X0X0X0X0X0X0X0X0X0X0X0X0X0X0X0X0X0X0X0X0X0X0X0X0X0X0X0X0X0X0X0X0X0X0X0X",
"0X0X0X0X0X0X0X0X0X0X0X0X0X0X0X0X0X0X0X0X0X0X0X0X0X0X0X0X0X0X0X0X0X0X0X0X0X0X0X0X0X0X0X0X0X0X0X0X0X0X",
"0X0X0X0X0X0X0X0X0X0X0X0X0X0X0X0X0X0X0X0X0X0X0X0X0X0X0X0X0X0X0X0X0X0X0X0X0X0X0X0X0X0X0X0X0X0X0X0X0X0X",
"0X0X0X0X0X0X0X0X0X0X0X0X0X0X0X0X0X0X0X0X0X0X0X0X0X0X0X0X0X0X0X0X0X0X0X0X0X0X0X0X0X0X0X0X0X0X0X0X0X0X"
};
