/* XPM */
static char *result[] = {
/* columns rows colors chars-per-pixel */
"50 50 219 2 ",
"   c black",
".  c #0C0906",
"X  c #150000",
"o  c #191916",
"O  c #000915",
"+  c #380000",
"@  c #241D1A",
"#  c #3B1A00",
"$  c #21211F",
"%  c #000022",
"&  c #000B2A",
"*  c #001C2D",
"=  c #001724",
"-  c #00242D",
";  c #002A2F",
":  c #0B2A2E",
">  c #132A2E",
",  c #1E2C2E",
"<  c #1F2221",
"1  c #012B30",
"2  c #002430",
"3  c #192E31",
"4  c #1C3235",
"5  c #173439",
"6  c #00373F",
"7  c #252D2E",
"8  c #2D2E2D",
"9  c #292624",
"0  c #332C2A",
"q  c #392D29",
"w  c #31302E",
"e  c #3A322E",
"r  c #2A3334",
"t  c #2E3A3B",
"y  c #263537",
"u  c #343433",
"i  c #383836",
"p  c #343A3A",
"a  c #3C3C3A",
"s  c #3C3431",
"d  c #6A0500",
"f  c #7A0000",
"g  c #641B00",
"h  c #7D1F00",
"j  c #5A2703",
"k  c #51280D",
"l  c #662C02",
"z  c #763400",
"x  c #6A361B",
"c  c #6E3409",
"v  c #492F24",
"b  c #4D362E",
"n  c #4A3227",
"m  c #54362A",
"M  c #55392E",
"N  c #5B3B2E",
"B  c #593526",
"V  c #4C3931",
"C  c #453832",
"Z  c #513A32",
"A  c #5C3E31",
"S  c #673C27",
"D  c #743F26",
"F  c #40403F",
"G  c #574239",
"H  c #69402D",
"J  c #7B4224",
"K  c #74422B",
"L  c #7B462D",
"P  c #7B462B",
"I  c #644233",
"U  c #6E4734",
"Y  c #764A34",
"T  c #784A35",
"R  c #003641",
"E  c #373F41",
"W  c #1F4349",
"Q  c #334447",
"!  c #35494D",
"~  c #444443",
"^  c #4C4C4C",
"/  c #485356",
"(  c #545453",
")  c #5D5D5C",
"_  c #5F5551",
"`  c #544945",
"'  c #6A5147",
"]  c #605F5F",
"[  c #73594E",
"{  c #79625A",
"}  c #676767",
"|  c #6B7578",
" . c #757676",
".. c #7E7C7B",
"X. c #737C7E",
"o. c #636F71",
"O. c #8C0000",
"+. c #8F1F00",
"@. c #960D00",
"#. c #852700",
"$. c #863A00",
"%. c #963300",
"&. c #943E00",
"*. c #9E3900",
"=. c #A93F00",
"-. c #9A4100",
";. c #9D4A04",
":. c #974200",
">. c #8A4617",
",. c #964B1C",
"<. c #9D4E1B",
"1. c #9E501E",
"2. c #A54500",
"3. c #B34C00",
"4. c #BB5200",
"5. c #B45500",
"6. c #A2521E",
"7. c #A8541F",
"8. c #AE5508",
"9. c #854523",
"0. c #8A4926",
"q. c #824729",
"w. c #864A2C",
"e. c #8C4925",
"r. c #944C22",
"t. c #9A4F21",
"y. c #9E5022",
"u. c #8B5133",
"i. c #885438",
"p. c #945736",
"a. c #9A5C3A",
"s. c #985937",
"d. c #A25324",
"f. c #AC5924",
"g. c #A75829",
"h. c #B25E2A",
"j. c #A55D38",
"k. c #AD643B",
"l. c #A86139",
"z. c #BE6834",
"x. c #B3663A",
"c. c #B5693D",
"v. c #B96838",
"b. c #B6612D",
"n. c #C55F05",
"m. c #CF6600",
"M. c #CA6B27",
"N. c #D4722C",
"B. c #DA752D",
"V. c #C56B35",
"C. c #C56E39",
"Z. c #C5703D",
"A. c #CC733D",
"S. c #D2753C",
"D. c #D7783C",
"F. c #D06F2C",
"G. c #8F5A45",
"H. c #B36D4C",
"J. c #826D66",
"K. c #A87765",
"L. c #B47C67",
"P. c #A57F72",
"I. c #CD7541",
"U. c #C37247",
"Y. c #D17640",
"T. c #D57942",
"R. c #DB7C43",
"E. c #CC7D55",
"W. c #84807F",
"Q. c #AB877B",
"!. c #B58879",
"~. c #DA885F",
"^. c #E18046",
"/. c #E08148",
"(. c #E28959",
"). c #CF896A",
"_. c #767E80",
"`. c #7B8081",
"'. c #848484",
"]. c #878B8C",
"[. c #8E8F90",
"{. c #959594",
"}. c #9B9C9C",
"|. c #95999B",
" X c #9C908D",
".X c #B79990",
"XX c #9FA3A4",
"oX c #A3A3A3",
"OX c #ABABAB",
"+X c #A7A9A9",
"@X c #BAAAA6",
"#X c #AEAFB0",
"$X c #AFB3B4",
"%X c #B4B5B5",
"&X c #BCBCBC",
"*X c #BEB6B4",
"=X c #C9ACA3",
"-X c #CFB7AF",
";X c #EBB9A7",
":X c #EABAA9",
">X c #E3B8A9",
",X c #DDC1B8",
"<X c #C1C1C1",
"1X c #CCCBCB",
"2X c #D9C7C3",
"3X c #DADCDC",
"4X c #D4D4D4",
"5X c #E7D9D5",
"6X c #F0D2C8",
"7X c #E3E4E4",
"8X c #E9EBEB",
"9X c #F9EFEB",
"0X c #F2EDEB",
"qX c #F4F4F4",
"wX c #FDF4F2",
"eX c #FEFEFE",
"rX c #F7F9FA",
"tX c #FBF1EE",
"yX c None",
/* pixels */
"yXyXyXyXyXyXyXyXyXyXyXyXyXyXyXyXyXyXyXyXyXyXyXyXyXyXyXyXyXyXyXyXyXyXyXyXyXyXyXyXyXyXyXyXyXyXyXyXyXyX",
"yXyXyXyXyXyXyXyXyXyXyXyXyXyXyXyXyXyXyXyXyXyXyXyXyXyXyXyXyXyXyXyXyXyXyXyXyXyXyXyXyXyXyXyXyXyXyXyXyXyX",
"yXyXyXyXyXyXyXyXyXyXyXyXyXyXyXyXyXyXyXyXyXyXyXyXyXyXyXyXyXyXyXyXyXyXyXyXyXyXyXyXyXyXyXyXyXyXyXyXyXyX",
"yXyXyXyXyXyXyXyXyXyXyXyXyXyXyXyXyXyXyXyXyXyXyXyXyXyXyXyXyXyXyXyXyXyXyXyXyXyXyXyXyXyXyXyXyXyXyXyXyXyX",
"yXyXyXyXyXyXyXyXyXyXyXyXyXyXyXyXyXyXyXyXyXyXyXyXyXyXyXyXyXyXyXyXyXyXyXyXyXyXyXyXyXyXyXyXyXyXyXyXyXyX",
"yXyXyXyXyXyXyXyXyXyXyXyXyXyXyXyXyXyXyXyXyXyXyXyXyXyXyXyXyXyXyXyXyXyXyXyXyXyXyXyXyXyXyXyXyXyXyXyXyXyX",
"yXyXyXyXyXyXyXyXyXyXyXyXyXyXyXyXyXyXyXyXyXyXyXyXyXyXyXyXyXyXyXyXyXyXyXyXyXyXyXyXyXyXyXyXyXyXyXyXyXyX",
"yXyXyXyXyXyXyXyXyXyXyXyXyXyXyXyXyXyXyXyXyXyXyXyXyXyXyXyXyXyXyXyXyXyXyXyXyXyXyXyXyXyXyXyXyXyXyXyXyXyX",
"yXyXyXyXyXyXyXyXyXyXyXyXyXyXyXyXyXyXyXyXyXyXyXyXyXyXyXyXyXyXyXyXyXyXyXyXyXyXyXyXyXyXyXyXyXyXyXyXyXyX",
"yXyXyXyXyXyXyXyXyXyXyXyXyXyXyXyXyXyXyXyXyXyXyXyXyXyXyX1 1 yX- * yXyXyXyXyXyXyX1 * yX- 7 yXyXyXyXyXyX",
"yXyXyXyXyXyXyXyXyXyXyXyXyXyXyXyXyXyXyXyXyXyXyXyXyXyX, , , 7 > ; - yXyXyXyXyX, 7 : ; > r w yXyXyXyXyX",
"yXyXyXyXyXyXyXyXyXyXyXyXyXyXyXyXyXyXyXyXyXyXyXyXyXyXN H x l x u.i.Y yXyXyXyXB U u.i.T G , yXyXyXyXyX",
"yXyXyXyXyXyXyXyXyXyXyXyXyXyXyXyXyXyXyXyXyXyXyXyX2 b L r.#.O.*.M.U.p.w * ; N J y.z.I.H.Y - yXyXyXyXyX",
"yXyXyXyXyXyXyXyXyXyXyXyXyXyXyXyXyXyXyXyXyXyXyXyX1 A >.d.H.P.!.E.C.p.u - 1 Z J y.V.Y.x.U * yXyXyXyXyX",
"yXyXyXyXyXyXyXyXyXyXyXyXyXyXyXyXyXyXyXyXyXyXyXyX; m #.j.=X5X,XQ.z j 2 * - > v S u.s.p.I yXyXyXyXyXyX",
"yXyXyXyXyXyXyXyXyXyXyXyXyXyXyXyXyXyXyXyXyXyXyXyX; B f l.2XeX7X{.    u 0 u 0 w w w r 8 yXyXyXyXyXyXyX",
"yXyXyXyXyXyXyXyXyXyXyXyXyXyXyXyXyXyXyXyXyXyXyXyX; m h a.=X4X2XP.$.>.a.a.a.a.a.i.U ; & yXyXyXyXyXyXyX",
"yXyXyXyXyXyXyXyXyXyXyXyXyXyXyXyXyXyXyXyXyXyXyXyX; M >.d.H.K.L.U.I.Y.S.Y.I.I.Y.Z.a.p & yXyXyXyXyXyXyX",
"yXyXyXyXyXyXyXyXyXyXyXyXyXyXyXyXyXyXyXyXyXyXyXyX; Z w.<.%.O.=.F.R.T.Z.A.S.S.D.A.l.H q yXyXyXyXyXyXyX",
"yXyXyXyXyX          & yXyXyXyXyXyXyXyXyXyXyXyXyX- V w.d.;.*.8.S.Y.l.Y w.g.h.h.h.d.r.J M ; yXyXyXyXyX",
"yXyXyXyXyX) } } ] ' G b yXyXyXyXyXyXyXyXyXyXyXyX8 N 0.y.<.,.h.S.Y.p.e B ,.7.6.<.6.<.0.Z ; yXyXyXyXyX",
"yXyXyX  [.&X3X3X4X=XH.$.v yXyXyXyXyXyXyXyXyX7 B l $.&.-.%.+.=.n.m.5.-.2.3.4.4.3.%.d +       u yXyXyX",
"yXyX    OX8XeXeXrX6X~.3.S = yXyXyXyXyXyXyX1 7 S >.2.2.;.&.&.5.M.B.N.F.N.N.N.B.F.1.#     . r r i yXyX",
"yXyX^  .<X8XeXwX5X:X~.m.x.T A yXyXyXyXyXyXO 7 { Q.!.Q.Q..X=X-X>X:X;X;X;X>X;X;X>X=XOX+X$XoXJ.8   yXyX",
"  ^ '.OX<X1X1X@X!.E.T.D.T.c.T * yXyXyXyXyX  $ ..oX-X#X*X4X9XwXwXwXwX9X9XtX9X9XtXtXqXrXeX8XOX$   yXyX",
"  ( }.&X<XOX XG.@.3.I.R.^.T.x.U V yXyXyXyX  <  .XX$X+X$X4XrXeXeXrXeXeXeXeXeXeXeXeXrXrXeX7XoXo yXyXyX",
"  ( }.<X$X].{ 9.2.n.D.^.R.R.T.U.s.V & 2 ; = - / o...o.`.$X3X7X3X7XrXeXeXeXeXeXeX7X%XOX&XoX'.yXyXyXyX",
"  ^ {.*X}./ + z d.z.Y.D.R.T.R.T.k.G ; 8 e e e 0 9 @   e J.OX%XOX&X7XrXeXeXeXeXqX%X~       yXyXyXyXyX",
"o ~ ..{.`.t   j w.l.V.V.V.z.x.l.s.P K P K K K x j g d z { W.].X.].oX&X-X&X<X1X,X}.      yXyXyXyXyXyX",
"8 i ~ ^ ^ yXyX, Z w.d.f.f.y.K C H r.t.t.t.t.y.r.,.,.<.y.[ ` Q Q Q Q ~ F Q ! ) ] ] yXyXyXyXyXyXyXyXyX",
"u 8     yXyXyXyX> B 9.9.9.J B v D t.7.6.6.6.1.f.h.h.g.9.k   X g P J.'.].[. .u   yXyXyXyXyXyXyXyXyXyX",
"yXyXyXyXyXyXyXyXyXm m Z n m K e.r.y.6.y.1.,.,.h.A.v.u.q % % l 2.).,X7XqXwX4X|.    yXyXyXyXyXyXyXyXyX",
"yXyXyXyXyXyXyXyXyX> 3 4 4 M 9.d.7.<.y.t.d.<.d.z.R.I.s.V 8 V >.4.).5XeXeXeX7X{.  yXyXyXyXyXyXyXyXyXyX",
"yXyXyXyXyXyXyXyX8 4 4 Z K 9.t.7.7.d.y.<.d.b.C.S.R.R.U.k.x.v.g.:.K.,X7X8X4XoX'.yXyXyXyXyXyXyXyXyXyXyX",
"yXyXyXyXyXyXyX8 u y t I e.6.1.y.y.y.y.,.d.z.S.R.R.T.D.T.^.D.z.l ! |.%XoX]   yXyXyXyXyXyXyXyXyXyXyXyX",
"yXyXyXyXyXyXyX8 i t p A w.e.0.q.q.q.q.J w.j.x.c.k.c.c.v.H.U.a.v R | [. .  yXyXyXyXyXyXyXyXyXyXyXyXyX",
"yXyXyXyXyXyXyXw u i i s V Z Z M Z b b b b N A A G S I I ' [ ' a r ^ ) ^ yXyXyXyXyXyXyXyXyXyXyXyXyXyX",
"yXyXyXyXyXyXyX8 8 8 8 7 1 1 1 - 1 ; 1 : 1 1 - - - - = * R W Q p 0 .   yXyXyXyXyXyXyXyXyXyXyXyXyXyXyX",
"yXyXyXyXyXyXyXyXyXyXyXyXyXyXyXyXyXyXyX7 r r t y , : yXyX5 t Q p 8 o yXyXyXyXyXyXyXyXyXyXyXyXyXyXyXyX",
"yXyXyXyXyXyXyXyXyXyXyXyXyXyXyXyXyXyXyX8 u i a i i 8 yXyXyX0 0 w 0 yXyXyXyXyXyXyXyXyXyXyXyXyXyXyXyXyX",
"yXyXyXyXyXyXyXyXyXyXyXyXyXyXyXyXyXyXyXyXu u i i i 8 yXyXyXyX8 8 yXyXyXyXyXyXyXyXyXyXyXyXyXyXyXyXyXyX",
"yXyXyXyXyXyXyXyXyXyXyXyXyXyXyXyXyXyXyXyXyX8 w i i 8 yXyXyXyXyXyXyXyXyXyXyXyXyXyXyXyXyXyXyXyXyXyXyXyX",
"yXyXyXyXyXyXyXyXyXyXyXyXyXyXyXyXyXyXyXyXyXyX8 8 8 8 yXyXyXyXyXyXyXyXyXyXyXyXyXyXyXyXyXyXyXyXyXyXyXyX",
"yXyXyXyXyXyXyXyXyXyXyXyXyXyXyXyXyXyXyXyXyXyXyXyXyXyXyXyXyXyXyXyXyXyXyXyXyXyXyXyXyXyXyXyXyXyXyXyXyXyX",
"yXyXyXyXyXyXyXyXyXyXyXyXyXyXyXyXyXyXyXyXyXyXyXyXyXyXyXyXyXyXyXyXyXyXyXyXyXyXyXyXyXyXyXyXyXyXyXyXyXyX",
"yXyXyXyXyXyXyXyXyXyXyXyXyXyXyXyXyXyXyXyXyXyXyXyXyXyXyXyXyXyXyXyXyXyXyXyXyXyXyXyXyXyXyXyXyXyXyXyXyXyX",
"yXyXyXyXyXyXyXyXyXyXyXyXyXyXyXyXyXyXyXyXyXyXyXyXyXyXyXyXyXyXyXyXyXyXyXyXyXyXyXyXyXyXyXyXyXyXyXyXyXyX",
"yXyXyXyXyXyXyXyXyXyXyXyXyXyXyXyXyXyXyXyXyXyXyXyXyXyXyXyXyXyXyXyXyXyXyXyXyXyXyXyXyXyXyXyXyXyXyXyXyXyX",
"yXyXyXyXyXyXyXyXyXyXyXyXyXyXyXyXyXyXyXyXyXyXyXyXyXyXyXyXyXyXyXyXyXyXyXyXyXyXyXyXyXyXyXyXyXyXyXyXyXyX",
"yXyXyXyXyXyXyXyXyXyXyXyXyXyXyXyXyXyXyXyXyXyXyXyXyXyXyXyXyXyXyXyXyXyXyXyXyXyXyXyXyXyXyXyXyXyXyXyXyXyX"
};
