/* XPM */
static char *_490073f7d560_player_transparent_resized[] = {
/* columns rows colors chars-per-pixel */
"50 50 143 2 ",
"   c None",
".  c #191517",
"X  c #1B1719",
"o  c #1E191B",
"O  c #221D1F",
"+  c #241F21",
"@  c #262122",
"#  c #2A2425",
"$  c #2B2728",
"%  c #2E2A2B",
"&  c #312728",
"*  c #322B2C",
"=  c #392E2D",
"-  c #36302F",
";  c #332E30",
":  c #363132",
">  c #3B3434",
",  c #3B3738",
"<  c #402F2E",
"1  c #422E30",
"2  c #443534",
"3  c #4A3434",
"4  c #473738",
"5  c #423C3C",
"6  c #4B3D3C",
"7  c #543F3D",
"8  c #4F413F",
"9  c #52443F",
"0  c #464143",
"q  c #4A4341",
"w  c #494648",
"e  c #4E4C4D",
"r  c #544644",
"t  c #5C4544",
"y  c #504947",
"u  c #5D4F46",
"i  c #524C4B",
"p  c #5C4D4B",
"a  c #5F5048",
"s  c #4F4F50",
"d  c #525153",
"f  c #5A5655",
"g  c #5E5A57",
"h  c #5E5A58",
"j  c #644745",
"k  c #654947",
"l  c #62554B",
"z  c #6D524E",
"x  c #655654",
"c  c #6C5652",
"v  c #645A52",
"b  c #695A57",
"n  c #605D5E",
"m  c #6C5D5A",
"M  c #725650",
"N  c #745C53",
"B  c #65605D",
"V  c #6C625E",
"C  c #716054",
"Z  c #7A635C",
"A  c #636162",
"S  c #6A6664",
"D  c #6D6965",
"F  c #696768",
"G  c #6C6A68",
"H  c #706864",
"J  c #726D69",
"K  c #76726E",
"L  c #777473",
"P  c #7A7675",
"I  c #7F7A75",
"U  c #82615C",
"Y  c #836F5F",
"T  c #856F60",
"R  c #8B6C64",
"E  c #97746B",
"W  c #967F6C",
"Q  c #98796F",
"!  c #807C77",
"~  c #9A7A73",
"^  c #86827C",
"/  c #9C8371",
"(  c #A68277",
")  c #A58F7C",
"_  c #AE897D",
"`  c #A4907E",
"'  c #858484",
"]  c #888686",
"[  c #8C8884",
"{  c #888788",
"}  c #8B8B8B",
"|  c #918D87",
" . c #908C8A",
".. c #97928B",
"X. c #98928C",
"o. c #949594",
"O. c #999893",
"+. c #979898",
"@. c #989998",
"#. c #B9978A",
"$. c #A09A94",
"%. c #A29F99",
"&. c #BBA187",
"*. c #A5A099",
"=. c #A8A49C",
"-. c #A9A9A8",
";. c #B2ADA5",
":. c #B4B2AC",
">. c #BBB6AD",
",. c #BEB8AE",
"<. c #B7B6B2",
"1. c #BDBBB4",
"2. c #C19C8C",
"3. c #CFA798",
"4. c #D1A494",
"5. c #D6B99C",
"6. c #CAAAA1",
"7. c #C1BCB1",
"8. c #D6BBB0",
"9. c #E6B6A4",
"0. c #EBBBA8",
"q. c #C6C1B6",
"w. c #C5C4BD",
"e. c #CAC5BB",
"r. c #DAC3B8",
"t. c #CDCAC3",
"y. c #D1CDC4",
"u. c #D3D0C6",
"i. c #DAD5CB",
"p. c #DED9CE",
"a. c #DFDBD1",
"s. c #E5D0C3",
"d. c #E1DBCF",
"f. c #E3DED2",
"g. c #E6E1D5",
"h. c #E8E2D6",
"j. c #EEE7DA",
"k. c #EEE8DB",
"l. c #F3ECDE",
"z. c #F6EFE1",
"x. c #FCF4E5",
"c. c #FFF7E8",
"v. c #FFF8E8",
/* pixels */
"                                                                                                    ",
"                                                                                                    ",
"                                                                                                    ",
"                                                                                                    ",
"                                                                                                    ",
"                                                                                                    ",
"                                                                                                    ",
"                                                                                                    ",
"                                                                                                    ",
"                                          @ > i f f i , #                                           ",
"                                      $ B *.t.g.j.j.h.y.*.f $                                       ",
"                                    5 =.l.v.c.x.x.x.x.x.v.h. .5                                     ",
"                                  , 7.x.x.x.x.x.x.x.x.x.x.x.k.%.0                                   ",
"                                # =.x.x.x.x.x.x.x.x.x.x.x.x.x.p.{ ;                                 ",
"                                g l.x.x.x.z.x.x.x.x.x.x.x.x.x.z.-.f                                 ",
"                                ..c.x.x.x.x.x.x.x.x.x.x.x.x.x.x.t.P #                               ",
"                              % ;.c.x.x.x.x.x.x.x.x.x.x.x.x.x.x.t.{ %                               ",
"                              % ,.8.6.l.x.x.x.x.x.x.x.x.x.x.x.x.t.{ %                               ",
"                  @ #         * ,.s.r.l.z.c.x.x.x.x.x.x.z.l.x.x.t.' *                               ",
"                @   D 0       % 7.l.%.J B ;.x.x.x.x.x.e.! B ! g.t.{ %                               ",
"                @     [ $     % 7.7.S f . 5 g.x.x.x.z.K L $ X $.u.' %                               ",
"                  +   1.h     % 7.7.$ O o , d.c.x.x.z.g + O O ..u.{ ;                               ",
"                    O   *.>   * 7.7.O o o > g.c.i.l.x.f X O . ..y.{ *                               ",
"                    @   :.K   $ >.d.i # # J e.e.>.e.i.| $ # > 7.w.{ %                               ",
"                      +   %.5 O ^ z.f.w.e.f.h i r 9 p p.e.e.i.h.:.F #                               ",
"                      # ; O.S @ > =.h.x.c.l.^ S H V P j.v.x.f.<.} ,                                 ",
"                        $ P ' > @ , } 1.y.a.f.f.f.f.f.a.u.1.-.{ 0                                   ",
"                          w G 5     : h ' } o.+.@.@.@.o.} ' A :                                     ",
"                          $ * 4 $     + * 5 2 q 0 6 6 4 ; $ #                                       ",
"                            # Z c i * >   t 7 E _ _ ( M *   #                                       ",
"                            6 3.~ r y =.  = j c 2.0.9.R *   # $                                     ",
"                            > R ~ 6 >   + p c t t Q 4.E =     #                                     ",
"                              * > 2 2 O O z #.Z 7 7 7 t 4     # = <                                 ",
"                                  * 4 +   < k k 2 3 3 < = #   6 2 2                                 ",
"                                    #     > p c m m b x 6 - U U =                                   ",
"                                          - f J J D D V 8 & 6 4 #                                   ",
"                                          a Y k O O r Y C *                                         ",
"                                        $ ` 5.C     a &./ =                                         ",
"                                  d d > 6 Z / l     v ) N 9 * e d                                   ",
"                                d d s = M M 6 * +   > 9 M z = w d d                                 ",
"                                        # # @ +       @ # # @                                       ",
"                                                                                                    ",
"                                                                                                    ",
"                                                                                                    ",
"                                                                                                    ",
"                                                                                                    ",
"                                                                                                    ",
"                                                                                                    ",
"                                                                                                    ",
"                                                                                                    "
};
