/* XPM */
static char *d2df7ff5b7904a81e8f9ef43ee4d17b5CsT9IVoghDxBfrxz[] = {
/* columns rows colors chars-per-pixel */
"30 30 167 2 ",
"   c None",
".  c #010000",
"X  c #080000",
"o  c #120103",
"O  c #1D0004",
"+  c #001808",
"@  c #071906",
"#  c #021F18",
"$  c #210006",
"%  c #250009",
"&  c #2C000A",
"*  c #2D0000",
"=  c #34000E",
"-  c #39000E",
";  c #390000",
":  c #350010",
">  c #3C0012",
",  c #331C1A",
"<  c #002B1B",
"1  c #203715",
"2  c #000029",
"3  c #3D1B25",
"4  c #062A26",
"5  c #09382C",
"6  c #143935",
"7  c #430003",
"8  c #4D0204",
"9  c #43000D",
"0  c #520000",
"q  c #430014",
"w  c #4C0016",
"e  c #4E0219",
"r  c #400E1D",
"t  c #5C0013",
"y  c #53011A",
"u  c #5B011C",
"i  c #5A0C1C",
"p  c #670000",
"a  c #62011F",
"s  c #6A001C",
"d  c #66081C",
"f  c #72071E",
"g  c #5E0823",
"h  c #650321",
"j  c #6C0323",
"k  c #640926",
"l  c #6A0927",
"z  c #730325",
"x  c #7A0126",
"c  c #750529",
"v  c #7A0429",
"b  c #730C2B",
"n  c #7C0B2D",
"m  c #6C152B",
"M  c #75182D",
"N  c #7F0F31",
"B  c #751C32",
"V  c #5F2F33",
"C  c #6D2237",
"Z  c #79263C",
"A  c #004400",
"S  c #005534",
"D  c #3C5E28",
"F  c #335020",
"G  c #00643F",
"H  c #426027",
"J  c #4D7230",
"K  c #792A40",
"L  c #732C42",
"P  c #004C43",
"I  c #194F41",
"U  c #115240",
"Y  c #2E5249",
"T  c #006A43",
"R  c #007146",
"E  c #0C6A54",
"W  c #1D6D53",
"Q  c #007459",
"!  c #177658",
"~  c #377741",
"^  c #725357",
"/  c #85062C",
"(  c #880429",
")  c #840E33",
"_  c #8D0D34",
"`  c #8B0330",
"'  c #950A37",
"]  c #851234",
"[  c #8C1337",
"{  c #96133B",
"}  c #98133D",
"|  c #A40038",
" . c #962139",
".. c #9D1A40",
"X. c #A70E41",
"o. c #A81644",
"O. c #812D44",
"+. c #952646",
"@. c #83334B",
"#. c #853844",
"$. c #A42348",
"%. c #B0214C",
"&. c #B42A52",
"*. c #BB305C",
"=. c #BC3A65",
"-. c #C10051",
";. c #C42F5B",
":. c #C72B59",
">. c #CE3463",
",. c #825A53",
"<. c #A84766",
"1. c #B24B6D",
"2. c #B24063",
"3. c #BA5474",
"4. c #AE767A",
"5. c #C84E74",
"6. c #DD4572",
"7. c #CC5479",
"8. c #D7557C",
"9. c #E84676",
"0. c #CC636F",
"q. c #5E863A",
"w. c #52813B",
"e. c #038558",
"r. c #168256",
"t. c #00925F",
"y. c #22845B",
"u. c #098862",
"i. c #258A62",
"p. c #269164",
"a. c #279867",
"s. c #00A46A",
"d. c #06AA6E",
"f. c #18A96C",
"g. c #04B673",
"h. c #18B772",
"j. c #2AA169",
"k. c #2CBF73",
"l. c #33BF72",
"z. c #458B48",
"x. c #45924E",
"c. c #699942",
"v. c #5EA051",
"b. c #76AC4E",
"n. c #75BE5E",
"m. c #73B154",
"M. c #55B666",
"N. c #78BD61",
"B. c #20C177",
"V. c #4AC976",
"C. c #5CCB74",
"Z. c #67CB6F",
"A. c #78D36E",
"S. c #73DB77",
"D. c #85C358",
"F. c #88D66A",
"G. c #92DD6C",
"H. c #94E06B",
"J. c #98E770",
"K. c #DA5A81",
"L. c #E35481",
"P. c #E45D86",
"I. c #F55787",
"U. c #EC6791",
"Y. c #F96593",
"T. c #FF77A6",
"R. c #E28697",
/* pixels */
"                                                            ",
"                            1 H                             ",
"                D w.        F F.J                           ",
"              . m.J.v.      q.G.B.R                         ",
"                b.H.V.e.  c.G.A.B.f..     H c.x.S           ",
"              J Z.V.d.a.U N.G.k.h.y.X G z.n.F.M.R           ",
"            . D.A.g.j.i.E y.Z.l.f.y.X T C.C.Q 2             ",
"              q.M.h.a.p.W i.d.h.p.W # 6 u.Q 6 5             ",
"                r.s.t.e.I G t.s.! P + 4 6 4 .               ",
"                A 4.R.^ @ *.0.,.Y #.v , 4 @                 ",
"                1.L.=.C M :.-.x V X.` M B                   ",
"              1.P. .p t c h 8 i ' _ u z c >                 ",
"            <.T.I.| d 8.U.Z l >.] x / h l ) .               ",
"            3.Y.>.b - 6.2.r } ..7 [ / q g k O               ",
"            r +.( * h x $ O 9 o +.>.u u a w q &             ",
"            *.:.Z Z _ i . K m L P.$.; z j e y %             ",
"          <.P.p 7.I.o.w @.Y.9.h $.] & w y q =               ",
"          m f ; ;.&.7 $ K.9.} - s e i v j > = X             ",
"          X O.@.8 t > e } _ 9 l y g } j > q q = o           ",
"            5.8.0 { / / } e q { v c ] = u h > q &           ",
"            +.%.s ) ) ( / e > y x v - y v u > q $           ",
"            . O j y % h y = y v j y h u n l = O             ",
"              = > > = a y h j h q z z > k b O               ",
"              = q w n n w h e % y h : > > & %               ",
"              $ % q n y = ] [ u > : q q > $                 ",
"                  o - q q _ ) e q q q q : .                 ",
"                  . : q q y q q > & q > O                   ",
"                    O $ O : q q O   $ O                     ",
"                          O O o                             ",
"                                                            "
};
