/* XPM */
static char *e453d718300b4becf09909c5c23f943eMV2sXRLwuDyHAaEW[] = {
/* columns rows colors chars-per-pixel */
"50 50 214 2 ",
"   c None",
".  c #000000",
"X  c #0A0000",
"o  c #1D0100",
"O  c #0F1515",
"+  c #2B0000",
"@  c #3C0300",
"#  c #221D19",
"$  c #1D201F",
"%  c #000A26",
"&  c #001C2C",
"*  c #00162B",
"=  c #00232D",
"-  c #012A2F",
";  c #0A2B2F",
":  c #0D2629",
">  c #1B292B",
",  c #002B34",
"<  c #0A2B30",
"1  c #073136",
"2  c #262D2E",
"3  c #2C2D2D",
"4  c #292624",
"5  c #312E2C",
"6  c #34302E",
"7  c #3B322E",
"8  c #2D3232",
"9  c #293A3D",
"0  c #333332",
"q  c #3B3633",
"w  c #363B3C",
"e  c #2B2F30",
"r  c #470500",
"t  c #5B0000",
"y  c #4B1900",
"u  c #670500",
"i  c #750000",
"p  c #721C00",
"a  c #502F1D",
"s  c #7A3804",
"d  c #663616",
"f  c #773D12",
"g  c #6B2A01",
"h  c #43332D",
"j  c #4B342C",
"k  c #4D3326",
"l  c #58382B",
"z  c #413834",
"x  c #4D3A33",
"c  c #473731",
"v  c #553C32",
"b  c #5A3E32",
"n  c #513F38",
"m  c #4D2F20",
"M  c #633926",
"N  c #633C2B",
"B  c #6A3D29",
"V  c #733F25",
"C  c #5C4136",
"Z  c #6D422D",
"A  c #7E4326",
"S  c #75432B",
"D  c #79442A",
"F  c #6B4635",
"G  c #644435",
"H  c #7A4A33",
"J  c #1C3D42",
"K  c #384445",
"L  c #474746",
"P  c #525353",
"I  c gray36",
"U  c #514D4C",
"Y  c #745245",
"T  c #664B41",
"R  c #60605F",
"E  c #565F61",
"W  c #5C696C",
"Q  c #4E6064",
"!  c #636363",
"~  c #6E6765",
"^  c #737879",
"/  c #647073",
"(  c #941300",
")  c #833E00",
"_  c #8B3500",
"`  c #983E00",
"'  c #8D3509",
"]  c #A93E00",
"[  c #884105",
"{  c #9B4400",
"}  c #984804",
"|  c #994C1D",
" . c #92491A",
".. c #9D501B",
"X. c #874719",
"o. c #AD4D00",
"O. c #A54700",
"+. c #B54D00",
"@. c #AB5503",
"#. c #B95500",
"$. c #A3521F",
"%. c #A95718",
"&. c #824526",
"*. c #894A27",
"=. c #944C23",
"-. c #9B4F21",
";. c #9E5022",
":. c #98552E",
">. c #8B543A",
",. c #945534",
"<. c #9C5D3B",
"1. c #965736",
"2. c #814E34",
"3. c #A25220",
"4. c #AE5C28",
"5. c #A55C33",
"6. c #A45E39",
"7. c #B05F2E",
"8. c #B7612C",
"9. c #BC642D",
"0. c #BE6424",
"q. c #AC643C",
"w. c #A5613C",
"e. c #B46433",
"r. c #B4693E",
"t. c #B96839",
"y. c #C75A00",
"u. c #CE6507",
"i. c #D36300",
"p. c #D76C02",
"a. c #DA700B",
"s. c #CD6D28",
"d. c #DC7424",
"f. c #D9742C",
"g. c #C36D3B",
"h. c #CA6E34",
"j. c #CD733C",
"k. c #CE7132",
"l. c #D3763D",
"z. c #D77533",
"x. c #E27D3B",
"c. c #E17728",
"v. c #845B4A",
"b. c #885F51",
"n. c #9A6247",
"m. c #976550",
"M. c #A26349",
"N. c #B56A40",
"B. c #B87454",
"V. c #A87056",
"C. c #937469",
"Z. c #C57244",
"A. c #D17741",
"S. c #D57942",
"D. c #DB7C42",
"F. c #CC7E59",
"G. c #E07F43",
"H. c #C07E61",
"J. c #A88577",
"K. c #D6865E",
"L. c #E18A5D",
"P. c #DC8960",
"I. c #D58D6D",
"U. c #D99577",
"Y. c #C58060",
"T. c #E28D62",
"R. c #E29673",
"E. c #747E81",
"W. c #7A8183",
"Q. c #6E8185",
"!. c #838585",
"~. c #888D8E",
"^. c #949596",
"/. c #928C8A",
"(. c #B2948B",
"). c #AC938B",
"_. c #9AA5A7",
"`. c #A2A4A4",
"'. c #AAABAC",
"]. c #A4ACAE",
"[. c #AEB2B2",
"{. c #B2B3B3",
"}. c #B8B8B9",
"|. c #AFAEAE",
" X c #DA9F88",
".X c #CDAA9E",
"XX c #E5A48B",
"oX c #C3ABA4",
"OX c #CDBAB3",
"+X c #EDB9A6",
"@X c #CFC0BC",
"#X c #ECC7BB",
"$X c #F4C6B5",
"%X c #C4C5C5",
"&X c #C7CACA",
"*X c #CBD2D4",
"=X c #D2D4D4",
"-X c #D7D8D9",
";X c #ECCDC3",
":X c #F3CFC3",
">X c #EAD2CA",
",X c #F6D0C4",
"<X c #FCD4C7",
"1X c #F2DCD6",
"2X c #DDE2E3",
"3X c #E9EBEC",
"4X c #E1E1E1",
"5X c #FAEEEB",
"6X c #E9EFF1",
"7X c #EBF0F2",
"8X c #F5F5F5",
"9X c #FEFEFD",
"0X c #F7F7F6",
"qX c #FFF0EB",
/* pixels */
"                                                                                                    ",
"                                                                                                    ",
"                                                                                                    ",
"                                                                                                    ",
"                                                                                                    ",
"                                                                                                    ",
"                                                                                                    ",
"                                                                                                    ",
"                                                                                                    ",
"                                                                                                    ",
"                                                                                                    ",
"                                                                                                    ",
"                                                                                                    ",
"                                                                            - = &                   ",
"                                                                          5 7 q 0 6                 ",
"                                                                        l N H  .} s d               ",
"                                                5 3 2 , = = &         8 N &.$.#.y.o.f *             ",
"                                                8 q z c v G b b     = 3 l X.5.F.R.I.V.l 4           ",
"                                                > n B &.:.r.q.1.b       y u b..X:X#X X6.) l         ",
"                                                < v D -.8.l.A.q.b &       . ~ &X8X5X+Xh.O.B =       ",
"                                                - j V =.7.g.Z.6.C =       . W *X9X9X$Xf.+.D =       ",
"                                                    l N H H H G 0 = - - . . W *X9X9X$Xz.+.S =       ",
"                                                    2 2 2 e 2 5 6 7 7 q X . ! %X0XqX+Xz.o.Z =       ",
"                                                    - - 8 k l B B S S H g u b.oX>X#XXXl.@.F &       ",
"                      , ; ; - = = & = & = & = = 2 8 - - l D =.=.=.=.=.-. .[ 5.H.U.R.L.A.e.F =       ",
"                    j j v v v b G F F G F F F b q 6 0 j V =.3.$.3.;.-.-.=.=...#.i.p.f.S.N.F &       ",
"                  h B &.*.&.&.,.q.r.N.r.r.t.r.1.v 3 N &.=.-.3.$.3.-.A M l j V %.u.d.x.S.N.b %       ",
"                - h D =.3.| ;.e.j.D.S.S.S.D.S.w.b 3 V -.3.3.3.3.;.=.B 8 & & l <.j.L.G.S.q.G *       ",
"              - = 0 Z &. .| $.9.h.l.D.G.D.S.N.,.j $ d ' } } } O.} ` ) f f d X.4.s.f.f.f.0...f d     ",
"            , = & = = 5 M =.$.3.4.9.l.G.A.q.H m o . o r g _ ] ' ( ( ] +.#.+.+.y.i.i.i.i.i.y.o.[ h , ",
"          7 7 x c x q q N &.-.|  .-.9.S.t.H = , K L K K T >.6.M.M.B.Y.P.T.P.P.P.P.P.K.K.P.T.K.M.x & ",
"        j l S ,.1.<.6.<.*.s u t t u _ { ) y , Q !.~.~.!./.).(.oXOX;X:X,X,X,X,X:X:X:X#X#X,X<X#X(.U . ",
"      ; j V =.7.g.A.S.S.e.s . . . X + + + . w ^ '.}.}.{.[.|.OX-X8X9X9X9X9X9X9X9X9X9X0X0X9X9X5X}.U . ",
"      ; b &.;.9.l.D.x.x.F.J.W.Q.W.E.W.E./ 0 3 ^ `.{.{.|.'.].[.*X3X8X8X7X7X7X3X3X3X8X9X9X9X9X2X[.P . ",
"      ; v &.| 9.j.D.d.d.U.OX-X-X=X*X-X-X[.! . # ^ !.W.^ ^ ^ W.^.'.{.'.'.].].]._._.%X0X9X9X-X^.!.    ",
"      ; l A -.8.j.l.p.i.XX1X9X9X9X9X9X9X4X^.. . 4 0 0 0 8 6 0 8 0 0 0 0 0 0 8 . . ^.2X9X2X!..       ",
"      ; v &.-.9.k.x.a.p.XX;X0X9X9X9X9X9X0X=X`.^ w . p s f a O . . . . . @ u p i i C.@X=X}.P .       ",
"      ; b &.;.9.z.L.c.d.U.OX=X3X9X9X9X9X9X9X3X}.W @ { j.r.v.K 1 $ > 1 K >.t.h.u.k.B.J.!.E.          ",
"      ; j V =.7.g.j.k.k.F.(.'.&X3X0X8X8X9X9X0X%X/ r @.l.Z.b.K J 3 8 J U b.Z.S.L.D.9.s . .           ",
"        j M S ,.<.w.w.5.m.C.!._.}.%X%X%X%X=X&X_.E @ X.w.w.Y K 9 0 0 9 L Y w.r.r.N.:.g . .           ",
"          7 c x v v v v n L U P I ! R R ! ! R P w 6 j v v q 0 0 0 0 0 0 z x v b C x q 3 2           ",
"            - = & & & & % . . . . . . . . . . . # 8 , & & : 3 5 3 3 5 3 = & & & & = > 5             ",
"                                                                                                    ",
"                                                                                                    ",
"                                                                                                    ",
"                                                                                                    ",
"                                                                                                    ",
"                                                                                                    ",
"                                                                                                    ",
"                                                                                                    "
};
