/* XPM */
static char *_334df7f35ab4929e15dd2a3f4cb7315uvjPeydrxbzn3PgR[] = {
/* columns rows colors chars-per-pixel */
"50 50 252 2 ",
"   c None",
".  c #1B1B08",
"X  c #0C091C",
"o  c #241C18",
"O  c #19281C",
"+  c #00381C",
"@  c #1A381D",
"#  c #062E14",
"$  c #242E1C",
"%  c #040226",
"&  c #190327",
"*  c #191724",
"=  c #030037",
"-  c #1D0638",
";  c #0C1934",
":  c #260329",
">  c #251C26",
",  c #261C2A",
"<  c #250133",
"1  c #25003C",
"2  c #280537",
"3  c #2A1C3A",
"4  c #261839",
"5  c #012827",
"6  c #172223",
"7  c #043825",
"8  c #193925",
"9  c #1C2938",
"0  c #1D3837",
"q  c #023330",
"w  c #242628",
"e  c #283528",
"r  c #252538",
"t  c #263837",
"y  c #332735",
"u  c #02471C",
"i  c #02591B",
"p  c #175A19",
"a  c #18491E",
"s  c #24581C",
"d  c #274E14",
"f  c #036917",
"g  c #166A1A",
"h  c #02761B",
"j  c #1A781A",
"k  c #0B7004",
"l  c #257807",
"z  c #2A681A",
"x  c #366A1B",
"c  c #257718",
"v  c #317114",
"b  c #034827",
"n  c #184826",
"m  c #025C2D",
"M  c #045525",
"N  c #185828",
"B  c #054638",
"V  c #1A4637",
"C  c #015C33",
"Z  c #025536",
"A  c #155733",
"S  c #274525",
"D  c #275B22",
"F  c #254937",
"G  c #2A5A37",
"H  c #335C22",
"J  c #006525",
"K  c #00632D",
"L  c #056A2B",
"P  c #196827",
"I  c #007425",
"U  c #00752C",
"Y  c #067A29",
"T  c #187928",
"R  c #016433",
"E  c #066736",
"W  c #146B34",
"Q  c #187734",
"!  c #097338",
"~  c #276B24",
"^  c #277A29",
"/  c #367925",
"(  c #286636",
")  c #277D35",
"_  c #347535",
"`  c #386333",
"'  c #44761D",
"]  c #48752B",
"[  c #0F0950",
"{  c #25014B",
"}  c #29004B",
"|  c #250547",
" . c #271B4A",
".. c #260053",
"X. c #290358",
"o. c #2E1052",
"O. c #1A3B4B",
"+. c #1B3B52",
"@. c #0D3748",
"#. c #252B44",
"$. c #272749",
"%. c #283449",
"&. c #272755",
"*. c #312D56",
"=. c #283758",
"-. c #333756",
";. c #31264C",
":. c #2B0F64",
">. c #2E2762",
",. c #373769",
"<. c #393A72",
"1. c #352D6C",
"2. c #433E7D",
"3. c #1A484B",
"4. c #185547",
"5. c #075048",
"6. c #27464A",
"7. c #2A574B",
"8. c #264555",
"9. c #2F4F54",
"0. c #066543",
"q. c #196544",
"w. c #276944",
"e. c #317049",
"r. c #384A6E",
"t. c #3C6966",
"y. c #447747",
"u. c #43447D",
"i. c #44605E",
"p. c #198709",
"a. c #05950A",
"s. c #1B9806",
"d. c #038916",
"f. c #1B8B14",
"g. c #178718",
"h. c #1B9316",
"j. c #068F0E",
"k. c #278D09",
"l. c #2A9C02",
"z. c #259B0D",
"x. c #2C9C0B",
"c. c #289606",
"v. c #359A06",
"b. c #228D1D",
"n. c #278717",
"m. c #378C17",
"M. c #259314",
"N. c #2B9415",
"B. c #2C9B12",
"V. c #24931D",
"C. c #279815",
"Z. c #3C9D13",
"A. c #359818",
"S. c #3B8E06",
"D. c #29A304",
"F. c #3BA40C",
"G. c #38A603",
"H. c #2BA013",
"J. c #3DA113",
"K. c #36A211",
"L. c #048327",
"P. c #1C8625",
"I. c #1E9221",
"U. c #228C22",
"Y. c #258728",
"T. c #378729",
"R. c #2D9722",
"E. c #379427",
"W. c #288935",
"Q. c #2C9432",
"!. c #1FA100",
"~. c #488A18",
"^. c #479817",
"/. c #549813",
"(. c #4BAB02",
"). c #4DAC0B",
"_. c #45A707",
"`. c #56AB0A",
"'. c #4CB204",
"]. c #53B303",
"[. c #5AB508",
"{. c #4AA512",
"}. c #47A714",
"|. c #53AB13",
" X c #59A819",
".X c #5CB213",
"XX c #5CB31B",
"oX c #64BB04",
"OX c #65BB0D",
"+X c #69BD07",
"@X c #67AB15",
"#X c #65BA12",
"$X c #6BBD13",
"%X c #66B617",
"&X c #74BC15",
"*X c #489825",
"=X c #529A26",
"-X c #478D2B",
";X c #4CA124",
":X c #5AA823",
">X c #5CA82D",
",X c #65A627",
"<X c #75AD2A",
"1X c #72B525",
"2X c #6BAD31",
"3X c #6B9D34",
"4X c #6BC403",
"5X c #6BC405",
"6X c #72C603",
"7X c #75CB02",
"8X c #7BCE02",
"9X c #72C40D",
"0X c #7DCC0D",
"qX c #75CD08",
"wX c #7ED206",
"eX c #74C314",
"rX c #7CCA13",
"tX c #79C515",
"yX c #66C014",
"uX c #6DC120",
"iX c #308849",
"pX c #91BB2F",
"aX c #80CF0C",
"sX c #83D503",
"dX c #84D30C",
"fX c #89D70A",
"gX c #85CB19",
"hX c #8AD315",
"jX c #8CD31A",
"kX c #88D316",
"lX c #94DA1B",
"zX c #9BDD1E",
"xX c #93D91B",
"cX c #9AE11B",
"vX c #A6E71E",
"bX c #89CB23",
"nX c #99D827",
"mX c #93CE27",
"MX c #A3DC2E",
"NX c #A8E524",
"BX c #B2EB2A",
"VX c #B4E92A",
"CX c #B8F32A",
"ZX c #BAEA33",
"AX c #BFF230",
"SX c #C0F52E",
"DX c #C4F533",
"FX c #CBF936",
"GX c #D3FE39",
"HX c #D3FF35",
"JX c #443B81",
"KX c #454680",
/* pixels */
"                                                                                                    ",
"                                + U                                                                 ",
"                              / |.].Q.5                                                             ",
"                            ~.qX0X8XT.=X+ :         Z = %                                           ",
"                            ~ 5X0X-X,XfXmXh ~     5 >XnX~.              % X *                       ",
"                            C Y._.R tXFXCX'.M.B.a N.fXkXh.s m.n 6     % @XA.V.c                     ",
"                  H + 8 W     I.C P.n.tXaX%Xj.p C Z.dX.Xz.M M.J.@ e h yXdX9XH.n.                    ",
"                ~.sX#Xx.n W b Q ^ ^ z -XL.A S / I ^.OXf.u ` gX8Xg.s h.6X&Xx.c                       ",
"                K }.qXJ.U g.OX;Xf kXNXDX*X*XmXBXOXh.g g -XZXDXrXf.8 m :Xx j *                       ",
"                  M I M.T +X0X`.bXDXGXNX@Xv CXZX$Xg x f MXGXNX`.L M ^.) d.* w                       ",
"                    ( I.A.rX^ g.xXzXxX_.{.f gX+Xj.@ D.).hXcX`.Y ^ J 4X8XyXN.< X.} .                 ",
"        O E C 6     8 j b.W R P.R h.l.g.+ f L.n a n.N F._.P.W n n.P z.eX[.S 6.Q.U.7.1               ",
"      N R I.Z.R.q M N.x.9X=XP.c g tX0XV.] fX|.f.N.W s V.Z U.M.M.x.m.C U.N & A.8XOXH.7.              ",
"    W P.F.{.0X9X^.Q *X0XxXzXa.N /.BXxX|.2XGXNXG.n.P B.z.^ T _.jXkXqX*XZ &.A.(.XX8X(.0 :             ",
"    z I *X0XaX&XyX+Xb.%XNX#XP S.F..X@X[.NXFXjXR.8 i j.{.f g.0XFXhX%XG.z [ T.1XXX0.m 5.r             ",
"      ^.=X|.OX9Xh |.*X#X_.K %XBXzXG.% gXGXxX].L.R }.jX4X}.j .XzX].G.P.4 j K Z V &.;X5X9.:           ",
"      _ `.L.K ~.V.C L T.Y %XAXAX1XP h A.&XG.NXkXm  XFXzX[.+ u ) 3.w.=.w.c.+X[.a k 4X@X1  .          ",
"    n J d.b.7 ^.%X*X9X%X*XAXGXxXJ P 6X#XI lXGXzXd.{.GXNXa.z c d.Q W G ^ z.rXsX>X0.S.& j 3 >         ",
"    U oXaXaX/ eXF.vXFXfXZ.kX9X/ J 5XsX#X3XGXzXqXZ.n _ ,X`.Z A.DXVX].~ c l.6XsX2X[ Y oX7Xk.:         ",
"    U +XxXA.H %Xb mXnX9Xz g.Y f ^.&XeXh <XNX%X{.R W [.=XJ 8.2XVX+Xg.O.} ^ E.yXg.x [ U.E.iXo.$       ",
"    ~ f.h L I .X<XI `._.j C Z.gX4Xi m.C :XXXB M.+ XXGX8X_ [ I ; Z w.| V 7.| Q X.% e.y JX1. .        ",
"    m V N `.[.kXBXjXf.B.g T.NXpX=XjX0XgXsXOX(.Z.i / NXMXO.pXvX[.8.9.k ^.D.g 4 %.*XsX~.&.-.o         ",
"      E I.[.dXqXgXzX).j j.$XlX XFXHXnXjX&Xc a.%Xf.i d.T.[ mXNX8XV.B {.dXeXH.g.w -XrX'.8.1.:         ",
"      C P.u -X{.[.sX).% f.b ~.lXCXnX@XI M <XAXhXmXA.N r ) D.+X).Y q ' ).|.B.W X.0.F.t.2.a k.( o.    ",
"        R 8 7 J z J.[.VXtXg.A.OXdX.Xd.S gXDXFXAX$Xs.W.X.4.f.^.E | 9 [ Q I E  .< %.0 3 2 6.D.H.7.    ",
"        8 W N.N.c c uXDXcX4Xi /.7XK.7 x kXBXNX).z.T.%.t F L +...~ E.T.c * &.4 8.#.N E r X.a l.w.    ",
"      * : K h z g. XAXDX1Xd.~.i V.R.T }.jXjXjXK.h b D.Q } n =.b ).dXrX].3.< w.G.}.D.T +.%.D e : #.  ",
"    6 D f {..Xk.= R.vX%X3XpXqX^.7 = j.h.n.5X.Xn.] jXlXc.! 6.} A K.6X8XS.{ 6.s.|.fX$Xs.j S H.p.=.*.  ",
"    & j ].0X.Xg n.s.E. XHXBX+X{.k.pX$Xk.5 A.G.7 aXGXDX6X_.9 V x k -Xy.= z *.^ K.$XdXeXA.S H.p.r.,.r ",
"    @ 5 &XdXf.* T ~ g }.kXv.).j.nXCX0XM.& E P O ' jXhX6Xx - I.I.} e 5.:XZ.T : g G.).`.N.$.c l | #.  ",
"    @ & m.}.a 8 B X @ f.x.n.5 M ] $X_.n R n n I 5 L T G [ ) v.5XW.X.! 4XrXv.c r =.Q s.6.1 * ,.>.$.3 ",
"      A K C a C.M.+X=Xb @ 7 =X+XK N @ f.H.g g }.eXtXf.C.G B $XsX4Xq.A oXrX9XH.^ 1 w @ t &.*.u.u.*.&.",
"        6 s M.|.0XdX|.g.i G.BXVXG.V.8 |.cX&Xf VXxXoXz.w.| } ) 9X9Xj > j s.l.^ } %. .e N.T.6.>.u.;.o ",
"        * P.Z.wXdXeX}.+ `.VXFXlX'.m g hXGXnXk.~.@XQ ( { d x | B.OXs.G 0 ) P.1 9 < 4 w.x.l.T.#.<.-.o ",
"        O m J.tX[.(.j.b %XVXlX5Xm.& g $XzXj.& p L } ..7.k.a.d T L.F | #.} +.4.W.F < } ( e.l.z *.;.  ",
"        > 3.Y._.7 G  .T x.G.'.m.i j f g v.: D M.v.l { q.].+X9.q , 0 L.W.e r c.l.c.=.4 - u.t.V .     ",
"        , 4 =.#.e U.8.^ l.^ 8 : g 4X6X^ $.w L.+X}.f.: m +XfXE.: 8 (.8X(.f.#.w.c.N.N.6.$.8.JX,.r     ",
"          > 1 3.(.wX(.O.r ..w.c = 1X{.U.< P OXdX}.+ * z z.+X8X&.u XXyXh.Q r , Q R.z  .&.r >.&.w     ",
"        o 3 n I OXkX'.4.1 ~ {.G.e.8.< -.p ].rX0XS.e K.c N Q.c 7.< s s.6.r %.3 ;.<.- <.;.r #         ",
"         .6.B.[.jXjXA.W &.(.aXaX].j.z c.%.L.].:X= z yXp.%.8.b h.7.4 - e l.( <.o #.&.u.u.r           ",
"         .3.A.fXqXA.Z } _ rXjX#XB.W z.^ { ( D.i w.#XqXP.%.g.oX].Y...X.W.l.l.r.*. .#.-.u.;.>         ",
"        o o.B.:Xy.b , N c.#XgXD.l n S : F 6.l %.M.sX4X0.| l .XaXh.z 1 _ S.t.2.<.; . o ,.>           ",
"          r G @.1 : , V W M.d A &.V c A R 3.1 2 0 T._ %.#.r p.G.Q.r.: 6.6.>.KX<.9.                  ",
"                      : &.9.: : V U.x.U.A > A R m.$XL.V : ^ n.g ,.JX*.& 9 &.&.;.y                   ",
"                      w O ;.r.u Y.x.B.k.& 6.R g.9X9Xc.I.9 n.x.B.U.X -.,.. w ,                       ",
"                          r  .V g.B.b.4., <.r.p.c.h.B.g.O.w.l.l.Q...-.-.                            ",
"                            3 %.3.c 4.| , =.JXr.T l.B.T @ } e.) w.o.#.                              ",
"                            w 3  ... .w   , *.JXq.g.Q &. .  ....| o                                 ",
"                                            $.>.=.O.0  .                                            ",
"                                              r &.4                                                 "
};
