/* XPM */
static char *result[] = {
/* columns rows colors chars-per-pixel */
"50 50 75 1 ",
"  c #050507",
". c #060609",
"X c #09070B",
"o c #0A090C",
"O c #0E0E11",
"+ c #100F11",
"@ c #121114",
"# c #161619",
"$ c #18171B",
"% c #1B1A1E",
"& c #1E1D21",
"* c #242326",
"= c #27262A",
"- c #28272C",
"; c #2B2A2D",
": c #2D2C30",
"> c #312F34",
", c #333136",
"< c #353438",
"1 c #3A393C",
"2 c #3D3C41",
"3 c #424043",
"4 c #47454B",
"5 c #49474B",
"6 c #4A494D",
"7 c #4D4C52",
"8 c #504F53",
"9 c #525155",
"0 c #56555B",
"q c #58565B",
"w c #5A595D",
"e c #5E5C62",
"r c #605F64",
"t c #636166",
"y c #66646B",
"u c #68666D",
"i c #6A696E",
"p c #6D6B72",
"a c #706E75",
"s c #727176",
"d c #75747B",
"f c #79777E",
"g c #7A787F",
"h c #7C7A81",
"j c #807E85",
"k c #827F88",
"l c #828086",
"z c #85838B",
"x c #89878E",
"c c #89888E",
"v c #898790",
"b c #8B8991",
"n c #908E95",
"m c #918E98",
"M c #929196",
"N c #94939A",
"B c #98969D",
"V c #9A999E",
"C c #9D9CA3",
"Z c #A09FA5",
"A c #A29FA9",
"S c #A2A0A6",
"D c #A3A2A9",
"F c #A8A7AD",
"G c #AAA9AE",
"H c #ADADB2",
"J c #B0AFB4",
"K c #B2B1B6",
"L c #B4B3B9",
"P c #B8B7BC",
"I c #B9B8BE",
"U c #BDBCC2",
"Y c #C1C1C7",
"T c #C5C5C9",
"R c #C8C8CB",
/* pixels */
"5aspit5patt,;;&o X +OOo.o%;6r2$O@=16wiappuiiiaye71",
"gj1SDSSSADZSSCSCnpXSSSDSSSDDDDDDDSSHxFSSSSDCCb hGg",
"qGDSDDSZAZCJSpSSDszCDAADSSDDDDCDSGSJhSSDzcDDBCDTjg",
"CDSSClbntbNzbbcSSzccbbvbbbxvbbbbbVSHs@bnbbbNnDCAPo",
"AvbbzkxcbbbvbxbNSyg5ccvlzvvvdvbvvbDHhvbvbbbbvbbDlZ",
"bbsbbkbhzcxxxcxlgqsdbcvbvvvvbbbzvnvDahzvccvvbzvbZz",
"zxbvzLzhhgfgffgfg:igfgfydzvzaeyhhdlNyahddhtt4hhlcc",
"yuuytypuyyyuytuty:yyuyyyuyyyyyyyiyidtyyyyuyyyiyyyy",
"CHLHHLJJGKSSVZLJHHKKLHHMLNGSMCFVHHLLJJKGK&6hjnDDCN",
"DDSSDDDASCsNgNDDSASAASSASADDSDSSSSSSSSSDS DGBCAZSS",
"iyCbbbzhVSSDcrgxvvbvcbbcvxzbNSDDADADDDASS hBF;CCMc",
"bbham7bbcSSliggcvbvbNbbbbvbvcbbcbbbvcbbbS.hvndbbcc",
"vvbxxxmbnDFjiggDcdvbbcccvvvivvvbzCvvvzvNS.hcbbnvcc",
"hhhlzhhhflzte<gghhhhfhhhddhlyjhdhhhdhhhllodsddsssh",
"yyyupyuuutuwuyiytapaiyuiyyiyyuyyyuuyyyuyyOyuyyyiui",
"bMNN#95:issgiigcO64<3sayfzf&;,plnBiyi@136*NFKLLs<y",
"lDGh=oDASSSDZSZgokGbDYCAASl&hFZSASSAZchOs3*HSSSSS7",
"RjSd:hjGCbMhcZSZohjJzjzbDSD<hgCDBSCAZZIsPphhSSSZSZ",
"Sjdo7hhbbcbbcnZS@hkmbbbbCcS$hhccbbbvDZSS ChhbnbFDS",
"SS.N2ihhbbcccccDOhvvbbvvcvS.hbbcbbbbbcZSSchhl1VNhn",
"zVSS9phaccbvbbcD#hvvhvvbbzA:dcbcbcbcbbZSSchgMcbbbb",
"cSSS9phKbvNcbbbSohhvvvvvubb>hzbbvnbvcbbSSchsccbcbC",
"cxcS9aha4vvvchhc=whhvkvvcjv4thbcczbzcccccsjgccccNb",
"dalzOthhhdhhggdh-yoahkzkhhha9#hhdhhhdhgdgKggdgjshh",
"uihuctuuutauuyty7&tetuuuyuppBp8uuuttuuyyiSuuyyuuty",
"u,pst;iuuut60upi9piaupupyu>i6u6pipipiiiudp-uuiuyyy",
"SSSZZSZZSSDhdlDDSSSACACSZAADZDSSDDlCBjMJZZADZSSZSS",
"SSCBBBBDSSSbhdDSSSSZAASAAAZSZZDSSSVKlOCSSDSC07SZSS",
"bbvbxcvbmDD=hhmzbbbbbbbbbbbbbbl42pHHOSSADzbnn0hvnb",
"bvbvxbbbvkA%hhhvbicCzbvbbbbvbbbbbbBLzzCmBbcbvbCvbc",
"bvvbzzbbhzk#uihzvzvbvvbbvvvvvvvvbiSLuzhruzbcvvbvbv",
"pepfhhffhhh&yhhhhdhhhgghhhjghhhghgglyiphghhhhhhhhj",
"yyyuuuyiyyy8ytiyyyuyyyyyyyyuyyyyyuyet&uyyuiyiyyyyt",
"DDSd3eVGccscGPKFHGsOHLKKKKZcHHKLGHLJLLLZJB9JHHGGHH",
"SSDVplZZDSSDSSSSgNCDSSSSSSSV hGAAFnnbSZZNgtbU.@hSS",
"SSSS@gkDDDZccNZSCdjhSSSFDSSSS8hvbbNbbbNDCCh9ZZSDAS",
"bFSBcihbbbbbccbZSchhdNMMnMDSD;shbvjvbvbYzSlhbbbbbb",
"bcnDKihcbxbxcccVSlfbmvvxxbnhSLphvvvvvbbzDSvhbC7bcv",
"bbbDKigcbBbbbbbnDdhbbbvbbbaNSLshCvvvbbebDSbhGnlcvv",
"bccDGigNbbxbbbxxCdfbbtbvvcvbSLahCnvvvcbbzAlhvbbbvB",
"vxzbbuphlbxvvbhlxdagblbbvbbzzGthbbbvbccgbzphhvvvbv",
"fhffcu9fhhhfhfhsusydfffhhfhfh.9fhhzzzfffpi&hhdhhcz",
"dutu@op>yhffffyyyfyuytaiiiyyypt8yyydhfuyypspysdaud",
"*=7t5u2yppppppy0ey,rey730ww0=*%o  O2uw4,$@##%2ryi9",
"SDSDzSSSSDM@fDDDDDDCSSGlzADADDDADDDDDADADSSShBDc@C",
"D7INNULbDZS@hhCbbazlbSSSzhVDDDASSCSCSASSCSDSSlzoAS",
"bhbbbcGebCS-phbbcbbcbcSSzfbtbbbbbbbbbbzNbbbbbSMCCn",
"bbvbcbcbccD*uhbbbvbbbbSDlhbvbbvvbbbbvbbvbvcbbS8Mbc",
"xvzbbvbvbvk&ufhzlpahhhvvhhhvvvzvnbbvhvvvvvbhhvvjbb",
"fhffffffdfd$yyyadhayyypiauyyyyhhhhdedddhhdpahdjssh"
};
